/* XPM */
static char *result[] = {
/* columns rows colors chars-per-pixel */
"128 128 78 1 ",
"  c #010000",
". c #0A0605",
"X c #0D0807",
"o c #0C0A0A",
"O c #110907",
"+ c #130D0B",
"@ c #1A0E0C",
"# c #0E100F",
"$ c #15100F",
"% c #1D100E",
"& c #0F1010",
"* c #141313",
"= c #1C1513",
"- c #161817",
"; c #1F1917",
": c #161919",
"> c #1B1B1B",
", c #20110F",
"< c #221614",
"1 c #2A1613",
"2 c #241916",
"3 c #2C1916",
"4 c #241C1A",
"5 c #2B1C19",
"6 c #311A16",
"7 c #341D19",
"8 c #3A1E1A",
"9 c #1D201F",
"0 c #2A201E",
"q c #3D211C",
"w c #1E2221",
"e c #1F2728",
"r c #222423",
"t c #2D2321",
"y c #272826",
"u c #2B2827",
"i c #262A29",
"p c #2B2D2C",
"a c #312523",
"s c #352927",
"d c #352B29",
"f c #3B2D2B",
"g c #2C302E",
"h c #3F302D",
"j c #2D3232",
"k c #323635",
"l c #3D3432",
"z c #343837",
"x c #3C3937",
"c c #363938",
"v c #3A3B39",
"b c #44241F",
"n c #42322F",
"m c #453431",
"M c #483734",
"N c #423835",
"B c #4B3936",
"V c #443D3B",
"C c #4E3B38",
"Z c #513D3A",
"A c #45413F",
"S c #55413D",
"D c #58433F",
"F c #4A4341",
"G c #564744",
"H c #5B4642",
"J c #544845",
"K c #5F4844",
"L c #5F4E4A",
"P c #614A46",
"I c #644E49",
"U c #684F4B",
"Y c #64504C",
"T c #6C524E",
"R c #6E5550",
"E c #715651",
"W c #755954",
"Q c None",
/* pixels */
"QQQQQQQQQQQQQQQQQQQQQQQQQQQQQQQQQQQQQQQQQQQQQQQQQQQQQQQQQQQQQQQQQQQQQQQQQQQQQQQQQQQQQQQQQQQQQQQQQQQQQQQQQQQQQQQQQQQQQQQQQQQQQQQQ",
"QQQQQQQQQQQQQQQQQQQQQQQQQQQQQQQQQQQQQQQQQQQQQQQQQQQQQQQQQQQQQQQQQQQQQQQQQQQQQQQQQQQQQQQQQQQQQQQQQQQQQQQQQQQQQQQQQQQQ     QQQQQQQ",
"QQQQQQQQQQQQQQQQQQQQQQQQQQQQQQQQQQQQQQQQQQQQQQQQQQQQQQQQQQQQQQQQQQQQQQQQQQQQQQQQQQQQQQQQQQQQQQQQQQQQQQQQQQQQQQQQQQ        QQQQQQ",
"QQQQQQQQQQQQQQQQQQQQQQQQQQQQQQQQQQQQQQQQQQQQQQQQQQQQQQQQQQQQQQQQQQQQQQQQQQQQQQQQQQQQQQQQQQQQQQQQQQQQQQQQQQQQQQQQ           QQQQQ",
"QQQQQQQQQQQQQQQQQQQQQQQQQQQQQQQQQQQQQQQQQQQQQQQQQQQQQQQQQQQQQQQQQQQQQQQQQQQQQQQQQQQQQQQQQQQQQQQQQQQQQQQQQQQQQQQ            QQQQQ",
"QQQQQQQQQQQQQQQQQQQQQQQQQQQQQQQQQQQQQQQQQQQQQQQQQQQQQQQQQQQQQQQQQQQQQQQQQQQQQQQQQQQQQQQQQQQQQQQQQQQQQQQQQQQQQQQ     .OOX   QQQQQ",
"QQQQQQQQQQQQQQQQQQQQQQQQQQQQQQQQQQQQQQQQQQQQQQQQQQQQQQQQQQQQQQQQQQQQQQQQQQQQQQQQQQQQQQQQQQQQQQQQQQQQQQQQQQQQQQ      182=.  QQQQQ",
"QQQQQQQQQQQQQQQQQQQQQQQQQQQQQQQQQQQQQQQQQQQQQQQQQQQQQQQQQQQQQQQQQQQQQQQQQQQQQQQQQQQQQQQQQQQQQQQQQQQQQQQQQQQQQ      @bb5<+  QQQQQ",
"QQQQQQQQQQQQQQQQQQQQQQQQQQQQQQQQQQQQQQQQQQQQQQQQQQQQQQQQQQQQQQQQQQQQQQQQQQQQQQQQQQQQQQQQQQQQQQQQQQQQQQQQQQQ       .7bb7=o  QQQQQ",
"QQQQQQQQQQQQQQQQQQQQQQQQQQQQQQQQQQQQQQQQQQQQQQQQQQQQQQQQQQQQQQQQQQQQQQQQQQQQQQQQQQQ                               1bbq5;+  QQQQQ",
"QQQQQQQQQQQQQQQQQQQQQQQQQQQQQQQQQQQQQQQQQQQQQQQQQQQQQQQQQQQQQQQQQQQQQQQQQQQQQQ                                   @bbbq;=o  QQQQQ",
"QQQQQQQQQQQQQQQQQQQQQQQQQQQQQQQQQQQQQQQQQQQQQQQQQQQQQQQQQQQQQQQQQQQQQQQQQQ                                      .7bbb7<*.  QQQQQ",
"QQQQQQQQQQQQQQQQQQQQQQQQQQQQQQQQQQQQQQQQQQQQQQQQQQQQQQQQQQQQQQQQQQQQQQQ                                         Obbbq2=+   QQQQQ",
"QQQQQQQQQQQQQQQQQQQQQQQQQQQQQQQQQQQQQQQQQQQQQQQQQQQQQQQQQQQQQQQQQQQQQ                                           Obbb5<*X   QQQQQ",
"QQQQQQQQQQQQQQQQQQQQQQQQQQQQQQQQQQQQQQQQQQQQQQQQQQQQQQQQQQQQQQQQQQ                     ..XXXOOX.                .7b8;*+   QQQQQQ",
"QQQQQQQQQQQQQQQQQQQQQQQQQQQQQQQQQQQQQQQQQQQQQQQQQQQQQQQQQQQQQQQ               XO,1688888888bq8bbq876+ X@@@. .O   @72;$.   QQQQQQ",
"QQQQQQQQQQQQQQQQQQQQQQQQQQQQQQQQQQQQQQQQQQQQQQQQQQQQQQQQQQQQQ             O@16qbbbbbbbbbbbbbbbbbbbbb6X 1b8@ ,b1. .+%$.    QQQQQQ",
"QQQQQQQQQQQQQQQQQQQQQQQQQQQQQQQQQQQQQQQQQQQQQQQQQQQQQQQQQQQ            .@38bbbbbbbbbbbbbbbbbbbbbbbbb8< o66O 3b8@   ..    QQQQQQQ",
"QQQQQQQQQQQQQQQQQQQQQQQQQQQQQQQQQQQQQQQQQQQQQQQQQQQQQQQQQ            .@8bbbbbbbbbbbbbbbbbbbqbqqqqq7551..@,.+6q8<o        QQQQQQQ",
"QQQQQQQQQQQQQQQQQQQQQQQQQQQQQQQQQQQQQQQQQQQQQQQQQQQQQQQ           .O17bbbbbbbbbq8q88777733<;<<;====;<=+..X +<<=$+       QQQQQQQQ",
"QQQQQQQQQQQQQQQQQQQQQQQQQQQQQQQQQQQQQQQQQQQQQQQQQQQ             X<7qbbbbbqq7532<<=++o....  ..  .. ..o$*.   o.o.        QQQQQQQQQ",
"QQQQQQQQQQQQQQQQQQQQQQQQQQQQQQQQQQQQQQQQQQQQQQQQQ              .6bbbb8q732;***+..                                     QQQQQQQQQQ",
"QQQQQQQQQQQQQQQQQQQQQQQQQQQQQQQQQQQQQQQQQQQQQQQQ           .&o o8bbq732;===+X                                       QQQQQQQQQQQQ",
"QQQQQQQQQQQQQQQQQQQQQQQQQQQQQQQQQQQQQQQQQQQQQQ       .     4N:  1q7<;;=+o.                                        QQQQQQQQQQQQQQ",
"QQQQQQQQQQQQQQQQQQQQQQQQQQQQQQQQQQQQQQQQQQQQ      +nCmf$  -kv>  @1=;=+.                                   Q      QQQQQQQQQQQQQQQ",
"QQQQQQQQQQQQQQQQQQQQQQQQQQQQQQQQQQQQQQQQQQQ       fIEWEm. *pki. .==+.                   QQQQQQQQQQQQQQQQQQQ     QQQQQQQQQQQQQQQQ",
"QQQQQQQQQQQQQQQQQQQQQQQQQQQQQQQQQQQQQQQQQ        0TEWWWI=  :jj& .+.              QQQQQQQQQQQQQQQQQQQQQQQQ      QQQQQQQQQQQQQQQQQ",
"QQQQQQQQQQQQQQQQQQQQQQQQQQQQQQQQQQQQQQQQ     44..4IWEWWEN. .wje               QQQQQQQQQQQQQQQQQQQQQQQQQQQ     QQQQQQQQQQQQQQQQQQ",
"QQQQQQQQQQQQQQQQQQQQQQQQQQQQQQQQQQQQQQQ    +mIS+ oSWWWWWI>  oie           QQQQQQQQQQQQQQQQQQQQQQQQQQQQQQ     QQQQQQQQQQQQQQQQQQQ",
"QQQQQQQQQQQQQQQQQQQQQQQQQQQQQQQQQQQQQQ    .fTWT5 .fEWWWWLpo  *>        QQQQQQQQQQQQQQQQQQQQQQQQQQQQQQQQ    QQQQQQQQQQQQQQQQQQQQQ",
"QQQQQQQQQQQQQQQQQQQQQQQQQQQQQQQQQQQQQ    . *nTEn. 4IWWWRFcw.  .       QQQQQQQQQQQQQQQQQQQQQQQQQQQQQQQ     QQQQQQQQQQQQQQQQQQQQQQ",
"QQQQQQQQQQQQQQQQQQQQQQQQQQQQQQQQQQQQ    .;. .aPH* oZWWWIcvp&        QQQQQQQQQQQQQQQQQQQQQQQQQQQQQQQQ     QQQQQQQQQQQQQQQQQQQQQQQ",
"QQQQQQQQQQQQQQQQQQQQQQQQQQQQQQQQQQQ    .fHt. .;Bt  fEWRFvkkw       QQQQQQQQQQQQQQQQQQQQQQQQQQQQQQQQ     QQQQQQQQQQQQQQQQQQQQQQQQ",
"QQQQQQQQQQQQQQQQQQQQQQQQQQQQQQQQQQ     4PWTfo  +ro <IELvckkio     QQQQQQQQQQQQQQQQQQQQQQQQQQQQQQQQ     QQQQQQQQQQQQQQQQQQQQQQQQQ",
"QQQQQQQQQQQQQQQQQQQQQQQQQQQQQQQQQ      *KWWEB*. .o .CRFkckkjo   QQQQQQQQQQQQQQQQQQQQQQQQQQQQQQQQQ     QQQQQQQQQQQQQQQQQQQQQQQQQQ",
"QQQQQQQQQQQQQQQQQQQQQQQQQQQQQQQQ    .+ .dTWWES4     5Jkkkkkko  QQQQQQQQQQQQQQQQQQQQQQQQQQQQQQQQQQ    QQQQQQQQQQQQQQQQQQQQQQQQQQQ",
"QQQQQQQQQQQQQQQQQQQQQQQQQQQQQQQ   ..tm. .hTWWEPt.   .gjkkkcV=  QQQQQQQQQQQQQQQQQQQQQQQQQQQQQQQQQ    QQQQQQQQQQQQQQQQQQQQQQQQQQQQ",
"QQQQQQQQQQQQQQQQQQQQQQQQQQQQQQ   +amIRf. omEWWWUM=.  >kkkvvl. QQQQQQQQQQQQQQQQQQQQQQQQQQQQQQQQQ     QQQQQQQQQQQQQQQQQQQQQQQQQQQQ",
"QQQQQQQQQQQQQQQQQQQQQQQQQQQQQ    4TEWWTs. +mEWWWEKa  #pckjt.  QQQQQQQQQQQQQQQQQQQQQQQQQQQQQQQQ     QQQQQQQQQQQQQQQQQQQQQQQQQQQQQ",
"QQQQQQQQQQQQQQQQQQQQQQQQQQQQ    .4KWWWWI0. +MEWWWWJ-  rcp:    QQQQQQQQQQQQQQQQQQQQQQQQQQQQQQQ    QQQQQQQQQQQQQQQQQQQQQQQQQQQQQQQ",
"QQQQQQQQQQQQQQQQQQQQQQQQQQQ   .4=+mTWWWWK4  &BEWWLve  *d+    QQQQQQQQQQQQQQQQQQQQQQQQQQQQQQQ    QQQQQQQQQQQQQQQQQQQQQQQQQQQQQQQQ",
"QQQQQQQQQQQQQQQQQQQQQQQQQQQ  .dPso2HWWWWWK;. +mRYvkjo  o    QQQQQQQQQQQQQQQQQQQQQQQQQQQQQQQ    QQQQQQQQQQQQQQQQQQQQQQQQQQQQQQQQQ",
"QQQQQQQQQQQQQQQQQQQQQQQQQQ  .fREG<.aIWWWWWK4. ofckkj>       QQQQQQQQQQQQQQQQQQQQQQQQQQQQQQ    QQQQQQQQQQQQQQQQQQQQQQQQQQQQQQQQQQ",
"QQQQQQQQQQQQQQQQQQQQQQQQQ   tUEWTm++fUWWWWWK4  .:pjyo      QQQQQQQQQQQQQQQQQQQQQQQQQQQQQQ    QQQQQQQQQQQQQQQQQQQQQQQQQQQQQQQQQQQ",
"QQQQQQQQQQQQQQQQQQQQQQQQQ   *afBHHso*mTWWWWWK4.  &:.      QQQQQQQQQQQQQQQQQQQQQQQQQQQQQQ    QQQQQQQQQQQQQQQQQQQQQQQQQQQQQQQQQQQQ",
"QQQQQQQQQQQQQQQQQQQQQQQQ      ..+;5=.*mTWWEYFj:.         QQQQQQQQQQQQQQQQQQQQQQQQQQQQQQ    QQQQQQQQQQQQQQQQQQQQQQQQQQQQQQQQQQQQQ",
"QQQQQQQQQQQQQQQQQQQQQQQQ .4=        . ofRYJvkkjw        QQQQQQQQQQQQQQQQQQQQQQQQQQQQQQ     QQQQQQQQQQQQQQQQQQQQQQQQQQQQQQQQQQQQQ",
"QQQQQQQQQQQQQQQQQQQQQQQQ +KK5.++&. .   odvckkvky.      QQQQQQQQQQQQQQQQQQQQQQQQQQQQQQ     QQQQQQQQQQQQQQQQQQQQQQQQQQQQQQQQQQQQQQ",
"QQQQQQQQQQQQQQQQQQQQQQQ. +PWK4o0Mmf4&.  #wjkkcpo      QQQQQQQQQQQQQQQQQQQQQQQQQQQQQQ     QQQQQQQQQQQQQQQQQQQQQQQQQQQQQQQQQQQQQQQ",
"QQQQQQQQQQQQQQQQQQQQQQQ  .fERm+*BRRGmy*& o:jvj-     QQQQQQQQQQQQQQQQQQQQQQQQQQQQQQQQ    QQQQQQQQQQQQQQQQQQQQQQQQQQQQQQQQQQQQQQQQ",
"QQQQQQQQQQQQQQQQQQQQQQ+   +NYGto=xVckkki&o.-y*     QQQQQQQQQQQQQQQQQQQQQQQQQQQQQQQQ    QQQQQQQQQQQQQQQQQQQQQQQQQQQQQQQQQQQQQQQQQ",
"QQQQQQQQQQQQQQQQQQQQQQ.    .uvio :gkkkcjj:. o     QQQQQQQQQQQQQQQQQQQQQQQQQQQQQQQQ    QQQQQQQQQQQQQQQQQQQQQQQQQQQQQQQQQQQQQQQQQQ",
"QQQQQQQQQQQQQQQQQQQQQ.      .ikwoorvFkkkkj-.     QQQQQQQQQQQQQQQQQQQQQQQQQQQQQQQQ    QQQQQQQQQQQQQQQQQQQQQQQQQQQQQQQQQQQQQQQQQQQ",
"QQQQQQQQQQQQQQQQQQQQQ        +pk:.=jkkkkjio     QQQQQQQQQQQQQQQQQQQQQQQQQQQQQQQQ    QQQQQQQQQQQQQQQQQQQQQQQQQQQQQQQQQQQQQQQQQQQQ",
"QQQQQQQQQQQQQQQQQQQQ          opp&.:jkkkyo     QQQQQQQQQQQQQQQQQQQQQQQQQQQQQQQQ    QQQQQQQQQQQQQQQQQQQQQQQQQQQQQQQQQQQQQQQQQQQQQ",
"QQQQQQQQQQQQQQQQQQQ     o0*    .rwo.ekje.     QQQQQQQQQQQQQQQQQQQQQQQQQQQQQQQQ    QQQQQQQQQQQQQQQQQQQQQQQQQQQQQQQQQQQQQQQQQQQQQQ",
"QQQQQQQQQQQQQQQQQQQ    .<uj+    oa;.*ly.    QQQQQQQQQQQQQQQQQQQQQQQQQQQQQQQQQ    QQQQQQQQQQQQQQQQQQQQQQQQQQQQQQQQQQQQQQQQQQQQQQQ",
"QQQQQQQQQQQQQQQQQQ       .oX.    o;o.+     QQQQQQQQQQQQQQQQQQQQQQQQQQQQQQQQQ    QQQQQQQQQQQQQQQQQQQQQQQQQQQQQQQQQQQQQQQQQQQQQQQQ",
"QQQQQQQQQQQQQQQQQ     +%@X.               QQQQQQQQQQQQQQQQQQQQQQQQQQQQQQQQQ    QQQQQQQQQQQQQQQQQQQQQQQQQQQQQQQQQQQQQQQQQQQQQQQQQ",
"QQQQQQQQQQQQQQQQQ   .1bb6**.            QQQQQQQQQQQQQQQQQQQQQQQQQQQQQQQQQQQ   QQQQQQQQQQQQQQQQQQQQQQQQQQQQQQQQQQQQQQQQQQQQQQQQQQ",
"QQQQQQQQQQQQQQQQ   .3bbq2;=           QQQQQQQQQQQQQQQQQQQQQQQQQQQQQQQQQQQQ    QQQQQQQQQQQQQQQQQQQQQQQQQQQQQQQQQQQQQQQQQQQQQQQQQQ",
"QQQQQQQQQQQQQQQ    ,bbb7==          QQQQQQQQQQQQQQQQQQQQQQQQQQQQQQQQQQQQ     QQQQQQQQQQQQQQQQQQQQQQQQQQQQQQQQQQQQQQQQQQQQQQQQQQQ",
"QQQQQQQQQQQQQQ    O8bbb2=.      QQQQQQQQQQQQQQQQQQQQQQQQQQQQQQQQQQQQQQQ     QQQQQQQQQQQQQQQQQQQQQQQQQQQQQQQQQQQQQQQQQQQQQQQQQQQQ",
"QQQQQQQQQQQQQQ    3bbb6*.      QQQQQQQQQQQQQQQQQQQQQQQQQQQQQQQQQQQQQQQ     QQQQQQQQQQQQQQQQQQQQQQQQQQQQQQQQQQQQQQQQQQQQQQQQQQQQQ",
"QQQQQQQQQQQQQ    Obbb72o      QQQQQQQQQQQQQQQQQQQQQQQQQQQQQQQQQQQQQQQ     QQQQQQQQQQQQQQQQQQQQQQQQQQQQQQQQQQQQQQQQQQQQQQQQQQQQQQ",
"QQQQQQQQQQQQQ   .3bbq2*.     QQQQQQQQQQQQQQQQQQQQQQQQQQQQQQQQQQQQQQQ     QQQQQQQQQQQQQQQQQQQQQQQQQQQQQQQQQQQQQQQQQQQQQQQQQQQQQQQ",
"QQQQQQQQQQQQ    Obbb5=o      QQQQQQQQQQQQQQQQQQQQQQQQQQQQQQQQQQQQQQ     QQQQQQQQQQQQQQQQQQQQQQQQQQQQQQQQQQQQQQQQQQQQQQQQQQQQQQQQ",
"QQQQQQQQQQQQ    1bbq2$      QQQQQQQQQQQQQQQQQQQQQQQQQQQQQQQQQQQQQQ     QQQQQQQQQQQQQQQQQQQQQQQQQQQQQQQQQQQQQQQQQQQQQQQQQQQQQQQQQ",
"QQQQQQQQQQQQ   O8bb5=o     QQQQQQQQQQQQQQQQQQQQQQQQQQQQQQQQQQQQQQ     QQQQQQQQQQQQQQQQQQQQQQQQQQQQQQQQQQQQQQQQQQQQQQQQQQQQQQQQQQ",
"QQQQQQQQQQQ    ,bbq<o      QQQQQQQQQQQQQQQQQQQQQQQQQQQQQQQQQQQQQ     QQQQQQQQQQQQQQQQQQQQQQQQQQQQQQQQQQQQQQQQQQQQQQQQQQQQQQQQQQQ",
"QQQQQQQQQQQ    6bb3$      QQQQQQQQQQQQQQQQQQQQQQQQQQQQQQQQQQQQQ     QQQQQQQQQQQQQQQQQQQQQQQQQQQQQQQQQQQQQQQQQQQQQQQQQQQQQQQQQQQQ",
"QQQQQQQQQQ    @bbq;.     QQQQQQQQQQQQQQQQQQQQQQQQQQQQQQQQQQQQQ     QQQQQQQQQQQQQQQQQQQQQQQQQQQQQQQQQQQQQQQQQQQQQQQQQQQQQQQQQQQQQ",
"QQQQQQQQQQ    3bb7$      QQQQQQQQQQQQQQQQQQQQQQQQQQQQQQQQQQQQ     QQQQQQQQQQQQQQQQQQQQQQQQQQQQQQQQQQQQQQQQQQQQQQQQQQQQQQQQQQQQQQ",
"QQQQQQQQQQ   +8bq;.     QQQQQQQQQQQQQQQQQQQQQQQQQQQQQQQQQQQQ     QQQQQQQQQQQQQQQQQQQQQQQQQQQQQQQQQQQQQQQQQQQQQQQQQQQQQQQQQQQQQQQ",
"QQQQQQQQQ    @bb7=     QQQQQQQQQQQQQQQQQQQQQQQQQQQQQQQQQQQQ     QQQQQQQQQQQQQQQQQQQQQQQQQQQQQQQQQQQQQQQQQQQQQQQQQQQQQQQQQQQQQQQQ",
"QQQQQQQQQ    6bb2o     QQQQQQQQQQQQQQQQQQQQQQQQQQQQQQQQQQQ     QQQQQQQQQQQQQQQQQQQQQQQQQQQQQQQQQQQQQQQQQQQQQQQQQQQQQQQQQQQQQQQQQ",
"QQQQQQQQQ   +qqq*.    QQQQQQQQQQQQQQQQQQQQQQQQQQQQQQQQQQQ     QQQQQQQQQQQQQQQQQQQQQQQQQQQQQQQQQQQQQQQQQQQQQQQQQQQQQQQQQQQQQQQQQQ",
"QQQQQQQQ    ,bq3=.    QQQQQQQQQQQQQQQQQQQQQQQQQQQQQQQQQ      QQQQQQQQQQQQQQQQQQQQQQQQQQQQQQQQQQQQQQQQQQQQQQQQQQQQQQQQQQQQQQQQQQQ",
"QQQQQQQQ    6bq2+    QQQQQQQQQQQQQQQQQQQQQQQQQQQQQQQQQ     QQQQQQQQQQQQQQQQQQQQQQQQQQQQQQQQQQQQQQQQQQQQQQQQQQQQQQQQQQQQQQQQQQQQQ",
"QQQQQQQQ   O8b7=X    QQQQQQQQQQQQQQQQQQQQQQQQQQQQQQQQ     QQQQQQQQQQQQQQQQQQQQQQQQQQQQQQQQQQQQQQQQQQQQQQQQQQQQQQQQQQQQQQQQQQQQQQ",
"QQQQQQQ    @bb5%    QQQQQQQQQQQQQQQQQQQQQQQQQQQQQQQQ     QQQQQQQQQQQQQQQQQQQQQQQQQQQQQQQQQQQQQQQQQQQQQQQQQQQQQQQQQQQQQQQQQQQQQQQ",
"QQQQQQQ    1bq2+    QQQQQQQQQQQQQQQQQQQQQQQQQQQQQQQ     QQQQQQQQQQQQQQQQQQQQQQQQQQQQQQQQQQQQQQQQQQQQQQQQQQQQQQQQQQQQQQQQQQQQQQQQ",
"QQQQQQQ   .6b8<X    QQQQQQQQQQQQQQQQQQQQQQQQQQQQQQ     QQQQQQQQQQQQQQQQQQQQQQQQQQQQQQQQQQQQQQQQQQQQQQQQQQQQQQQQQQQQQQQQQQQQQQQQQ",
"QQQQQQQ   Obb7=.   QQQQQQQQQQQQQQQQQQQQQQQQQQQQQQ     QQQQQQQQQQQQQQQQQQQQQQQQQQQQQQQQQQQQQQQQQQQQQQQQQQQQQQQQQQQQQQQQQQQQQQQQQQ",
"QQQQQQ    %bq5%    QQQQQQQQQQQQQQQQQQQQQQQQQQQQQ     QQQQQQQQQQQQQQQQQQQQQQQQQQQQQQQQQQQQQQQQQQQQQQQQQQQQQQQQQQQQQQQQQQQQQQQQQQQ",
"QQQQQQ    1bq4+    QQQQQQQQQQQQQQQQQQQQQQQQQQQQ     QQQQQQQQQQQQQQQQQQQQQQQQQQQQQQQQQQQQQQQQQQQQQQQQQQQQQQQQQQQQQQQQQQQQQQQQQQQQ",
"QQQQQQ   X7bq2X    QQQQQQQQQQQQQQQQQQQQQQQQQQQ     QQQQQQQQQQQQQQQQQQQQQQQQQQQQQQQQQQQQQQQQQQQQQQQQQQQQQQQQQQQQQQQQQQQQQQQQQQQQQ",
"QQQQQQ   @bbq%.   QQQQQQQQQQQQQQQQQQQQQQQQQQ      QQQQQQQQQQQQQQQQQQQQQQQQQQQQQQQQQQQQQQQQQQQQQQQQQQQQQQQQQQQQQQQQQQQQQQQQQQQQQQ",
"QQQQQ    1bbb+    QQQQQQQQQQQQQQQQQQQQQQQQQ      QQQQQQQQQQQQQQQQQQQQQQQQQQQQQQQQQQQQQQQQQQQQQQQQQQQQQQQQQQQQQQQQQQQQQQQQQQQQQQQ",
"QQQQQ    6bbqX    QQQQQQQQQQQQQQQQQQQQQQQQ     QQQQQQQQQQQQQQQQQQQQQQQQQQQQQQQQQQQQQQQQQQQQQQQQQQQQQQQQQQQQQQQQQQQQQQQQQQQQQQQQQ",
"QQQQQ   O6bb7.    QQQQQQQQQQQQQQQQQQQQQQQ     QQQQQQQQQQQQQQQQQQQQQQQQQQQQQQQQQQQQQQQQQQQQQQQQQQQQQQQQQQQQQQQQQQQQQQQQQQQQQQQQQQ",
"QQQQQ   O8bb7.    QQQQQQQQQQQQQQQQQQQQQQ     QQQQQQQQQQQQQQQQQQQQQQQQQQQQQQQQQQQQQQQQQQQQQQQQQQQQQQQQQQQQQQQQQQQQQQQQQQQQQQQQQQQ",
"QQQQQ   Oqbb7.    QQQQQQQQQQQQQQQQQQQQ      QQQQQQQQQQQQQQQQQQQQQQQQQQQQQQQQQQQQQQQQQQQQQQQQQQQQQQQQQQQQQQQQQQQQQQQQQQQQQQQQQQQQ",
"QQQQQ   +bbb3     QQQQQQQQQQQQQQQQQQQ     QQQQQQQQQQQQQQQQQQQQQQQQQQQQQQQQQQQQQQQQQQQQQQQQQQQQQQQQQQQQQQQQQQQQQQQQQQQQQQQQQQQQQQ",
"QQQQ    Obbb3.    QQQQQQQQQQQQQQQQQQ     QQQQQQQQQQQQQQQQQQQQQQQQQQQQQQQQQQQQQQQQQQQQQQQQQQQQQQQQQQQQQQQQQQQQQQQQQQQQQQQQQQQQQQQ",
"QQQQ    Obbb1     QQQQQQQQQQQQQQQQQ     QQQQQQQQQQQQQQQQQQQQQQQQQQQQQQQQQQQQQQQQQQQQQQQQQQQQQQQQQQQQQQQQQQQQQQQQQQQQQQQQQQQQQQQQ",
"QQQQ    @bbb1     QQQQQQQQQQQQQQQQ     QQQQQQQQQQQQQQQQQQQQQQQQQQQQQQQQQQQQQQQQQQQQQQQQQQQQQQQQQQQQQQQQQQQQQQQQQQQQQQQQQQQQQQQQQ",
"QQQQ    Obbb3     QQQQQQQQQQQQQQQ     QQQQQQQQQQQQQQQQQQQQQQQQQQQQQQQQQQQQQQQQQQQQQQQQQQQQQQQQQQQQQQQQQQQQQQQQQQQQQQQQQQQQQQQQQQ",
"QQQQ    Obbb3     QQQQQQQQQQQQQ      QQQQQQQQQQQQQQQQQQQQQQQQQQQQQQQQQQQQQQQQQQQQQQQQQQQQQQQQQQQQQQQQQQQQQQQQQQQQQQQQQQQQQQQQQQQ",
"QQQQ    +bbb7.    QQQQQQQQQQQQ      QQQQQQQQQQQQQQQQQQQQQQQQQQQQQQQQQQQQQQQQQQQQQQQQQQQQQQQQQQQQQQQQQQQQQQQQQQQQQQQQQQQQQQQQQQQQ",
"QQQQ    Obbb7X    QQQQQQQQQQQ     QQQQQQQQQQQQQQQQQQQQQQQQQQQQQQQQQQQQQQQQQQQQQQQQQQQQQQQQQQQQQQQQQQQQQQQQQQQQQQQQQQQQQQQQQQQQQQ",
"QQQQ     bbb7o    QQQQQQQQQQ     QQQQQQQQQQQQQQQQQQQQQQQQQQQQQQQQQQQQQQQQQQQQQQQQQQQQQQQQQQQQQQQQQQQQQQQQQQQQQQQQQQQQQQQQQQQQQQQ",
"QQQQ     886@.    QQQQQQQQQ     QQQQQQQQQQQQQQQQQQQQQQQQQQQQQQQQQQQQQQQQQQQQQQQQQQQQQQQQQQQQQQQQQQQQQQQQQQQQQQQQQQQQQQQQQQQQQQQQ",
"QQQQ     1,+      QQQQQQQQ     QQQQQQQQQQQQQQQQQQQQQQQQQQQQQQQQQQQQQQQQQQQQQQQQQQQQQQQQQQQQQQQQQQQQQQQQQQQQQQQQQQQQQQQQQQQQQQQQQ",
"QQQQ     . X++X    QQQQQQ     QQQQQQQQQQQQQQQQQQQQQQQQQQQQQQQQQQQQQQQQQQQQQQQQQQQQQQQQQQQQQQQQQQQQQQQQQQQQQQQQQQQQQQQQQQQQQQQQQQ",
"QQQQ      X@3<%    QQQQQ     QQQQQQQQQQQQQQQQQQQQQQQQQQQQQQQQQQQQQQQQQQQQQQQQQQQQQQQQQQQQQQQQQQQQQQQQQQQQQQQQQQQQQQQQQQQQQQQQQQQ",
"QQQQ       OO@%X   QQQQ     QQQQQQQQQQQQQQQQQQQQQQQQQQQQQQQQQQQQQQQQQQQQQQQQQQQQQQQQQQQQQQQQQQQQQQQQQQQQQQQQQQQQQQQQQQQQQQQQQQQQ",
"QQQQ     XOX. +O    QQ     QQQQQQQQQQQQQQQQQQQQQQQQQQQQQQQQQQQQQQQQQQQQQQQQQQQQQQQQQQQQQQQQQQQQQQQQQQQQQQQQQQQQQQQQQQQQQQQQQQQQQ",
"QQQQ      16,.      Q     QQQQQQQQQQQQQQQQQQQQQQQQQQQQQQQQQQQQQQQQQQQQQQQQQQQQQQQQQQQQQQQQQQQQQQQQQQQQQQQQQQQQQQQQQQQQQQQQQQQQQQ",
"QQQQQ     ,b8%+          QQQQQQQQQQQQQQQQQQQQQQQQQQQQQQQQQQQQQQQQQQQQQQQQQQQQQQQQQQQQQQQQQQQQQQQQQQQQQQQQQQQQQQQQQQQQQQQQQQQQQQQ",
"QQQQQ     X8b2=         QQQQQQQQQQQQQQQQQQQQQQQQQQQQQQQQQQQQQQQQQQQQQQQQQQQQQQQQQQQQQQQQQQQQQQQQQQQQQQQQQQQQQQQQQQQQQQQQQQQQQQQQ",
"QQQQQ      @@+o.       QQQQQQQQQQQQQQQQQQQQQQQQQQQQQQQQQQQQQQQQQQQQQQQQQQQQQQQQQQQQQQQQQQQQQQQQQQQQQQQQQQQQQQQQQQQQQQQQQQQQQQQQQ",
"QQQQQ       .         QQQQQQQQQQQQQQQQQQQQQQQQQQQQQQQQQQQQQQQQQQQQQQQQQQQQQQQQQQQQQQQQQQQQQQQQQQQQQQQQQQQQQQQQQQQQQQQQQQQQQQQQQQ",
"QQQQQ      %+o..     QQQQQQQQQQQQQQQQQQQQQQQQQQQQQQQQQQQQQQQQQQQQQQQQQQQQQQQQQQQQQQQQQQQQQQQQQQQQQQQQQQQQQQQQQQQQQQQQQQQQQQQQQQQ",
"QQQQQ     +1*=*.     QQQQQQQQQQQQQQQQQQQQQQQQQQQQQQQQQQQQQQQQQQQQQQQQQQQQQQQQQQQQQQQQQQQQQQQQQQQQQQQQQQQQQQQQQQQQQQQQQQQQQQQQQQQ",
"QQQQQ    .%;<5;.    QQQQQQQQQQQQQQQQQQQQQQQQQQQQQQQQQQQQQQQQQQQQQQQQQQQQQQQQQQQQQQQQQQQQQQQQQQQQQQQQQQQQQQQQQQQQQQQQQQQQQQQQQQQQ",
"QQQQQ    +==52*     QQQQQQQQQQQQQQQQQQQQQQQQQQQQQQQQQQQQQQQQQQQQQQQQQQQQQQQQQQQQQQQQQQQQQQQQQQQQQQQQQQQQQQQQQQQQQQQQQQQQQQQQQQQQ",
"QQQQ    +=<22*+     QQQQQQQQQQQQQQQQQQQQQQQQQQQQQQQQQQQQQQQQQQQQQQQQQQQQQQQQQQQQQQQQQQQQQQQQQQQQQQQQQQQQQQQQQQQQQQQQQQQQQQQQQQQQ",
"QQQ    O7532<+      QQQQQQQQQQQQQQQQQQQQQQQQQQQQQQQQQQQQQQQQQQQQQQQQQQQQQQQQQQQQQQQQQQQQQQQQQQQQQQQQQQQQQQQQQQQQQQQQQQQQQQQQQQQQ",
"QQQ    182<;*      QQQQQQQQQQQQQQQQQQQQQQQQQQQQQQQQQQQQQQQQQQQQQQQQQQQQQQQQQQQQQQQQQQQQQQQQQQQQQQQQQQQQQQQQQQQQQQQQQQQQQQQQQQQQQ",
"QQQ    <2;*+       QQQQQQQQQQQQQQQQQQQQQQQQQQQQQQQQQQQQQQQQQQQQQQQQQQQQQQQQQQQQQQQQQQQQQQQQQQQQQQQQQQQQQQQQQQQQQQQQQQQQQQQQQQQQQ",
"QQQ    oo+o       QQQQQQQQQQQQQQQQQQQQQQQQQQQQQQQQQQQQQQQQQQQQQQQQQQQQQQQQQQQQQQQQQQQQQQQQQQQQQQQQQQQQQQQQQQQQQQQQQQQQQQQQQQQQQQ",
"QQQ     .        QQQQQQQQQQQQQQQQQQQQQQQQQQQQQQQQQQQQQQQQQQQQQQQQQQQQQQQQQQQQQQQQQQQQQQQQQQQQQQQQQQQQQQQQQQQQQQQQQQQQQQQQQQQQQQQ",
"QQQ             QQQQQQQQQQQQQQQQQQQQQQQQQQQQQQQQQQQQQQQQQQQQQQQQQQQQQQQQQQQQQQQQQQQQQQQQQQQQQQQQQQQQQQQQQQQQQQQQQQQQQQQQQQQQQQQQ",
"QQQQ           QQQQQQQQQQQQQQQQQQQQQQQQQQQQQQQQQQQQQQQQQQQQQQQQQQQQQQQQQQQQQQQQQQQQQQQQQQQQQQQQQQQQQQQQQQQQQQQQQQQQQQQQQQQQQQQQQ",
"QQQQQ        QQQQQQQQQQQQQQQQQQQQQQQQQQQQQQQQQQQQQQQQQQQQQQQQQQQQQQQQQQQQQQQQQQQQQQQQQQQQQQQQQQQQQQQQQQQQQQQQQQQQQQQQQQQQQQQQQQQ",
"QQQQQQQQQQQQQQQQQQQQQQQQQQQQQQQQQQQQQQQQQQQQQQQQQQQQQQQQQQQQQQQQQQQQQQQQQQQQQQQQQQQQQQQQQQQQQQQQQQQQQQQQQQQQQQQQQQQQQQQQQQQQQQQQ",
"QQQQQQQQQQQQQQQQQQQQQQQQQQQQQQQQQQQQQQQQQQQQQQQQQQQQQQQQQQQQQQQQQQQQQQQQQQQQQQQQQQQQQQQQQQQQQQQQQQQQQQQQQQQQQQQQQQQQQQQQQQQQQQQQ"
};
