/* XPM */
static char *ba723bc9b5514bb5fd9272b5332cb2b29abAqyemFpbjlbIZ[] = {
/* columns rows colors chars-per-pixel */
"64 64 14 1 ",
"  c None",
". c gray5",
"X c #181818",
"o c #222222",
"O c #2D2D2D",
"+ c gray25",
"@ c #6F6F6F",
"# c gray58",
"$ c gray62",
"% c #C1C1C1",
"& c gray80",
"* c gray85",
"= c #ECECEC",
"- c white",
/* pixels */
"                                                                ",
"                                                                ",
"                                                                ",
"                                                                ",
"                                      ++++++                    ",
"                                     +@----@+                   ",
"                                    +@---=**@+                  ",
"                                   +@---=%&**+                  ",
"                                  +@---=%%&**+                  ",
"                                 +@---=%%%&**+                  ",
"                                +@---=%%%%&**+                  ",
"                               +@---=%%%%%%&*+                  ",
"                              +@---=%%%%%%%&*+                  ",
"                             +@---=%%%%%%%%&*+                  ",
"                            +@---=%%%%%%%%%&*+                  ",
"                           +@---=%%%%%%%%%%&*+                  ",
"                          +@---=%%%%%%%%%%%%&+ XX               ",
"                         +@---=%%%%%%%%%%%%%&+XXXX              ",
"                        +@---=%%%%%%%%%%%%%%&+XooX.             ",
"                        +---=%%%%%%%%%%%%%%%$@++oo..            ",
"                        +--=%%%%%%%%%%%%%%%$#*&@+o..            ",
"                        +-=%%%%%%%%%%%%%%%$#*&%%+..             ",
"                        +-*&&&&%%%%%%%%%%$#*&%%%@+              ",
"                        +@*****&&&&&%%%%$#*&%%%%#@+             ",
"                         +@*********&&&$#*&%%%%#$%@+            ",
"                          +++++++++++++@*&%%%%#$%%%@+           ",
"                                     XX+&%%%%#$%%%%&@+          ",
"                                    XXo+@%%%#$%%%%&*&+          ",
"                                   XXooo++@#$%%%%&*&%+          ",
"                                  XXooooo.+@%%%%&*&%%+          ",
"                                 XXooooo.. +@%%&*&%%%+          ",
"                                XXOOooo..   +@&*&%%%@+          ",
"                               XXOOOOo..     +@&%%%@+           ",
"                              XXOOOOO..       ++++++            ",
"                             XXOOOOO..                          ",
"                            XXoOOOO..                           ",
"                           XXoooOO..                            ",
"                          XXooooo..                             ",
"                         XXooooo..                              ",
"                        XXooooo..                               ",
"                       XXOOooo..                                ",
"                      XXOOOOo..                                 ",
"                     XXoOOOO..                                  ",
"                    XXoooOO..                                   ",
"                   XXooooo..                                    ",
"                  XXooooo..                                     ",
"                 XXooooo..                                      ",
"                XXooooo..                                       ",
"               XXOOooo..                                        ",
"              XXOOOOo..                                         ",
"             XXOOOOO..                                          ",
"            XXOOOOO..                                           ",
"           XXOOOOO..                                            ",
"          XXoOOOO..                                             ",
"         XXoooOO..                                              ",
"        XXooooo..                                               ",
"        XXoooo..                                                ",
"         XXoo..                                                 ",
"          ....                                                  ",
"           ..                                                   ",
"                                                                ",
"                                                                ",
"                                                                ",
"                                                                "
};
