/* XPM */
static char *_cd587688bae4b1ea37d6e38c127e687xdYuO1DM4vvidUDt[] = {
/* columns rows colors chars-per-pixel */
"128 128 66 1 ",
"  c #C4DBDE",
". c #C5DBDE",
"X c #C6DBDE",
"o c #C5DCDE",
"O c #C6DCDF",
"+ c #C8DCDF",
"@ c #C8DDDF",
"# c #C6DDE0",
"$ c #C7DDE0",
"% c #C7DEE0",
"& c #C7DEE1",
"* c #C8DDE0",
"= c #C8DFE1",
"- c #C9DFE1",
"; c #CBDEE1",
": c #CBDFE2",
"> c #CCDFE2",
", c #C9E0E2",
"< c #CAE0E2",
"1 c #CDE1E3",
"2 c #CFE1E3",
"3 c #CEE2E3",
"4 c #CCE1E4",
"5 c #CEE2E5",
"6 c #CFE3E5",
"7 c #CFE3E6",
"8 c #D0E2E4",
"9 c #D0E3E4",
"0 c #D1E2E5",
"q c #D3E3E6",
"w c #D0E4E7",
"e c #D3E5E7",
"r c #D4E4E7",
"t c #D4E5E7",
"y c #D6E6E7",
"u c #D3E5E8",
"i c #D5E6E8",
"p c #D4E7E8",
"a c #D4E7E9",
"s c #D5E7EA",
"d c #D8E7E8",
"f c #D9E7EA",
"g c #D7E8EA",
"h c #D7E8EB",
"j c #D9E8EB",
"k c #D8E9EB",
"l c #DAE8EA",
"z c #DBE9EC",
"x c #DBEAED",
"c c #DCEAEC",
"v c #DDEBEC",
"b c #DFEBEE",
"n c #DEECED",
"m c #DCECEE",
"M c #DEECEF",
"N c #DFECEF",
"B c #E0ECEF",
"V c #E2EDEF",
"C c #E0EEF0",
"Z c #E0EFF0",
"A c #E2EFF1",
"S c #E5EFF2",
"D c #E4F1F2",
"F c #E4F0F3",
"G c #E6F1F3",
"H c #E7F1F3",
/* pixels */
"   OO$$$=OO   OO=fBBacSSSHScrcBza5e,$$                  $*>>$$         $=04==$                                  OOO             ",
"    O$$OOO      @>fzfrzAHSBarfBchu4,==*$$                 =>$$         $:urw>$                                  O O      $$$    ",
"    O$$OOO       =4czaaBAScaeefnzhu5=++*                  =$$=*$        $wajw=$                                          $>=    ",
"    O$$$OOO       =rzBafCAcjruuznzguw==+$$                 $=>*$        $$0zaw$                                  $ O   $ $4a=   ",
"     OO$@OOO       =aBzafBSzararccguw>==$*                  **==$        +wazaw=OO                                OO $ =>==rw=  ",
"     OO$OOOOO       =fzfagAAcarfjczgrr=@**$$                 *=4$          rffrr@                                $ ,, $erw4=w>+ ",
"      OO,OOO        +>fcfrznnprgrrffre4=*$$$$                  $$$$        =fffrw@O                                ,,@14rww>>r= ",
"          ,$ $       +racaeBBcjrefrarwr>=*$$$                  $$$$         afcawe,                                $$,$1rwrr=wr=",
"O          $OOO       +warafBczaprpreew=>** $*$                 OO          =rjcje1,OO                              @===wrrre1e5",
"=O        OOOO$O       $>ewwrcBargerrr,,>===$+=                              >jjgje41O                              ==>11rpre15e",
"4$         OOOOO        O$>wwfffprprrge@=***$$=+                             @rcnngjr1OO   O@                         @1@rrreeee",
"a4O          OOO=         $=wrccdrprrrr5*==$$ @=$$                            ,jnnnjrr,,  O1r1 +                     =O,>,wreee4",
"ar,            O$         $*=wrzcrrprrjr>**   @=$$$                            1fcBBngr,@OOwjc8@                       O,11rrara",
"rae$             *       $**+>4ucjjrrrrjr=      $$                             OrcBBcjr11  +rcy@                       ,O@w1jrpj",
"jrj1             **$      ==+=,>rBnpgrrrrr*     $$ $ # $                         aBAnccr1=@ 1jjrO                       ,11wereg",
"gggu,             $       *===+=>anjrprrfrw      $$   =$$                         ennncarw=@ enjeO                     O@O,15eea",
"ajxs$              $        *=***>fBfrrrrjrO         $>w>*                        @rBVBjre1, %rBf>                       *>>>ww0",
"asjs=# #                     *==*+>fcjjrprr1+        $+>w>                         =fBBBne51O ,jfr>                      $==>04r",
"0azuw=$$                      **+=*4jczrr5re>=        *=>>=                         @jcnBjee1OO$4rw                       $>w>0u",
">000:::$                      $*==*+4jgjpr5e1>=       *$=>>=                        OOjBnjpr4@   =w=                       *$==w",
"$$:w0:w$$                       ==+= wffrr65r-1+       $==>w*                         Ojccjjw1   +=>#                      #$$$$",
"$#$:>0:w*                         * + >rjprr851@$      $*==>=$                        O@jjjjw4,                             $   ",
"  $$>4r>=                         $    =rjpr141==*       $===                         OO5jgjrr,O                                ",
"  ##*>>>=$                              -rdre1,e>*+       $=                            Oejcrr1O                                ",
"     ###$                                >rfrw$w>w=                                      Oedgr5O                                ",
"                                          =aaaw:=w>=*                                     @egrr,                                ",
"                                          *=yf0>=>0;**                                    O@eerr=                               ",
"                                           +>aj0>=>r>*$                                   OOerprr                               ",
"                                             >ffr=>>>>=*                                    O5egrw                              ",
"                                             $>jrw>>>>>=*                                    ,rrrr>                             ",
"                               $              $rra>=>=>>=*          O=@                       ,rrgr=                            ",
"                              *=r=             =0ar>==*=>>*        O====+                      1prrr=                           ",
"                              =wrr=             +rrw@@ ==>>*        =>4$=***                   =rrrgeOO                         ",
"                               rzfw$             =rr>= $*=>>*       *==:==**$$                  ,earw@                 *>>$     ",
"                               >fccwOO            =wr==@  =>>*$      *$$*>*=$***                 =wrreOO               >aaw+    ",
"                               *aSBa5              ,w>=@* *==>$       $$>$=*===*                  @ree5O                rafr$   ",
"                                rBHzu,%O           O=>,O**  $$=*       #*=**+=*>==                ==5ew=$               @waf4   ",
"                              *>rBHDa5,O            O@@,**$  $=*$      #=*$>===>>>=                 Oerr*                 arrw  ",
"                            ** >rnHDze5,            O  O*=*$  $**       $$$:=@@>>>>=                 =wr>$                *wrr= ",
"                            =w>=egDHBjg1,               $*>=     $     #$$$$== =>>=>=                +>rr=                 *=wr*",
"                            ;ww=,ejHBngjw                ++>@              ,,= =>4=>=+$               $ew>   $              @=w ",
"                            =0ww=Oecnnjjr>OO              ====             $>==@4>>=>>$                $ww@+ $               $=*",
"                            *4>rrr-,jgrpjrOO               ===              =>>warw===$$               $=rw@   $                ",
"                             =wreee%,ererj1O     O           +@              @wrrarw>==$O               O>>>$   +               ",
"                              >reu4e@rrerjp1O  OwrO                           ,4rrrf0>>>                 =>w=O                  ",
"                              $=4eu4>=eerpjp-OO,rBj,                          OO1rjjjr0>=     $ O         =>>@$ *               ",
"                                =$444,epprpjp,O,waBf=$                          @ewrafaw      O$O         O=== $ +*             ",
"     $$#                          4er1,rprrrjeerrwfCf>*                          O1afffr>O      $$$ $       =+=*+               ",
"     $$$$                         OwrrwweeerrjkppeaaAzeO                          =wrrjf>=      $$$$****     $     + *          ",
"      $$*$                         =4wrweewrrggzge55rcge=                           rajfr=+      $$**=**      $$*               ",
"      =*=*                         O,4rw5rurrpgnngg54rjgw@                           rrfr8>+      ***==*=+    $ + @  *     +    ",
"      $*=*$                        O,18ra5urperjnnge1,,5=                            +>=er>==      *=*=$===    $ = @  *  *      ",
"       $*>*                        =r,eewwrereegcAnje1$ +                              $=1>=@+      $$$$++$ #   *  * * *        ",
"   $$   *>=                        wjrwwwe8ereeeanDce4$                                  =>=+        $$$+=$$ $   *++ = * * +    ",
"   $==$  ==+                       ,cc4wrr4epereuzAAca=$                                  ==            $$$*  $ ** == + =       ",
"  $**>=$***+                       ecBf1raaeerreeugHHfw$                                   @            $$**$$    *=>==*=  = +  ",
"    $>>0:$$$                       =rnDj5weeeeureeenHnhw$#                  $              $              =+ $ $+  ===>   $ $ $ ",
"     *>00:$#                        >acnaeeeueraerernHcu5$                                                    $     *==* = $ $  ",
"      *=0a:$                        +wfAze1erararre4whHcuw$                ** *                                      ===+   # $ ",
"       $000:                         +wcnBr=arrarrra04Ccu54$                $**                                        ==$ = $ $",
"$       $:0uw#                      O=wwnBD4,eu5rprre5rcguw@                  $ *                                      ==$$ # # ",
"        #$>rw$     *                @==1gnneO,er5errer=rzgr=                   $                =                      $$$$$ # #",
"$         $0rw=+   *$                $==5az5OO1egewrrpe@ez,                      $             =>>*                      $$  $# ",
"         $4:4ww=   =*                 =w,egu,OO15gwwerw1,ea,               $     *             *>w=$                    $ $$$   ",
"         =wrr>w1$$$>,O                =>>wraw  =wrwwraar>1gr             +X X     X             +>w>OO                   @=+$   ",
"          @wr>@ww=$=>$$    ++          =w>>4>$  +>wrajarr,4a>          *  XX X      +           +1rr1OO                  @ + $$ ",
"          @wr4>w>w===>=                =@>ww=    O>wwrfaww=>=              XX      X              >re@OO                 $ = $ $",
"           @rr> >ww==>=O+  +            =1>=      =4@werrw>$$           + +X X X                  Owrr,@                  $ * $ ",
"            1rr, >w>>>14>@O  O @         =w>       @,,=wrrg,            X X X X                   OOrrr,=                    $ $",
"             rr4+=>w>@$1r1@  O     +     =w>==       $=rfrwe=            X X X XX     X           OO1pr1=@     >>= +==     $$   ",
"+            @rw>* >ww4=4r,@ O            =8>@        O,erfr>=            X X X  X       +          1rpr1=@   @1r>==>@       * =",
"             +=rw=*=1we,er4,    + +        >w>+        O,ecrr>@            X X XX XX                Oerjr>>=   =>r>18>=       * ",
"+              wrw= >wr0=rr,OO         +   +r>==        *4ajf4=                 X X X                @rjrr1-,1@ @118r91O      + ",
"@=             =rrr=*>r4wrj5O   + + +       =r1=         *wfje=              * + X X X               O1rjpq-@1r1@@>w9rr1*      =",
"@=              +wrr=>wrwwfa5        X      O1r=          =agf,              +  X X X X  +       O    O1pjr1-11r>@-11rrr>       ",
" $              $$wla4>>euhce,O   + X        =4w,@        *=uae=          >>+  + X X X X         OOO   Oqdj9-11rrw-111efw=      ",
"                 O1zcu$wrrrcfw+ ++=           =ww=          wrra=         =w>=   +XXXX +         %11OO  @qjg9111ryrw14rjfr=     ",
"                   aczu$=warza4= ++@ ++       +>w=$          war>+        +>>>+   XXX+   ++ + + OO11-OOOOOpjj811wryr111rff4+   +",
"                   4jhu$$=eeuzr>+=++++          =>=$         *war=          =r>+ + +        ++>>OOO191@OOoOrdr111rfjr111rrrr+  $",
"                   @wzz1$$1eahfw1=@+++++        +>=@         *=arr=          >>> +   +  + + +>>>1 O@111-OoO%rr1@@1rcr111rrrrw=$ ",
"$                   >rc0=*=>rwfar==+ == +        +==          +=arw           =>==  ++++    +=>>1>+ =1w>+   @rr=,>8fc811re9err- ",
" $                  $>ra0=*==rrfe4==@@+++           $          $war=          $$>=*   + + +  +>>>11=  1r>=  =1r1,>>1ge118rqqeprO",
"=*                   $4ar=$$=>warrw=$=OO+$                      =wr4=          $=>+ +   =+    +>1>1>= +>w>= @=41>=@1egr11err1ee1",
">=                    >rfw=$==>rawr>$OO,+                        =rr>=          *=*$   +++     +>11r>>=+=r>=+@>w>>==-rrr18rp8111",
">>*                   =>ra4=++*rrjr54O$     *                    $@rr=             +++  +++ +    >>881> =>r==+=>>w>==>jr11err1-1",
"=>$$                   *wrr+====arau51   + +                      O>ww@               +  ++++     =>>88= +@r1=+>>==>>>rje11rrr,-",
"==>=$                    wrw==+=1rreee$ +    ++                    =>ww                   ++X      =>8>2> +>r>==>==>>wrfr911rrr@",
"=>=+                     =wrr= ==wrae45O   +                        @rr=$             + +  +  +   + @>82w== >18>=>=@4wwrpr1,1er@",
"==**$                     =rw>=*==rwuee4       +                     >rw=              +  +      +   +>>1>+++18>11-O-19rrrr--111",
">$$*$                      =wr>=+=@rauue0+  +                        =4w>+                        + +++>1>8=@ =r81,@Oo6rrpr61-19",
">>** $                      =ww=**=weerar@     ++                     =rw>$               + XX++    +  +>11>1==>1e1,OO-6dpr91,-1",
"=>=*$                       +>r>=$= raarr8=                            =rw$                 + +        ++>11>1==1419OOO-rprpw11%",
">=>==*$                      $>4>=++>eraerw+                            >4w+                +         +  +@1111-@188,OOO9pkrq11@",
">$>>>*$                       *>w=**,,acgrrw+                           $wr>                            + +>119r1$1ee-OO@9dpr111",
"=>>=>=**                       *w>>$@,ergerrr=                           *4w1+                         +   +@11rr1=w91OOO-rjpr11",
">=$==>=$                        >w>=OO-ejgrrwr+                           =wr=$                         +   +@18rr1@1r,OOO1rjre1",
"::=>==>=*                       $>w>==*:ajjawrr                           +=2w=                               +>rrr8>r1@  =rrjp5",
"w:==*>=>==                      $==>==>>>jazwwrr=                        $ ==ww+                              +=>wrr81w>+@+=rrjj",
"a0:==*=>>=                       $=>==**&0csfwrar$O                       +  >ww=                              +@1rr41w>=@ =19pg",
"j0,=*==>=1$$                      =$>=>=>>ajjaw4f4O                      $ + =>w>*                               O1er811+ = @9rp",
"fjr>=>===>>, O                     $>>=;0:0azcjwwr=                        $$ $ww> *                            OO=88>>@ O O@,8r",
"rrar>>>==>>4>=O                      >>w0w,0ajNjww>=O                       #$$$>0=$                              O=11=  OO OO11",
"rrrl0r>>===4r>@                     *=wr0u&4afccrw=1,                       #  $:04=$                              O11>O   OOO@1",
"11rarr0w4>>1r4w=                     $=>,04$>ajcBr84===                       $$$>>>=      $                        O111O  O OO,",
"=8rerkprre164ew@$                     $=>ww==wjjjnre>>=OO                     $$$$:w=*$$  $$$                        ==>,OO    ,",
" >18erjprjee44ww>                      =>=4>==ajjBce>>>=$O                      $$$=w=$#$  $$                         =>e,OO O  ",
"OO189erjjjnpw11rw=$                     =w>w=*,jcjnj==1,,O                      $###:0==*$$$**$                        $,1,@    ",
"O @1errjjpjBa41wrw$                      =4>>$$wjjgje@,1=,                      $$# =>>>=$$*=*$                         O,1,O OO",
"O  ,1rehjrppcrw=ww0                      =>w:=$$erpjreO,>>==                       $$$:w>>>=>==+                         *>>,@ O",
"O  O,ruzjdrdcrrr>ww>$                     =>0>$$6rjpgr,O=,1=O                       $#$$=>>>>>=*+ =                       +=,,@ ",
"  OO,5gnjpdrrccarww>>$                     >>4w=O1gjgjeO=>=>>=                      $$==>>=>>>>=+@+@+                      =>=@ ",
"OO  @ezngjpjpjnBcwrw>>                     $=w>4O,5pgjgeO=>>>>O                      $*=*==>=>w>@=+  *              $      $ =@=",
"$$$ @=aBnjjpjpBBBlr=ww $                     >>>>==wafcaw*==>==                       $*+$$$=>>4>>$$*               *$    $ $$$>",
"=$ $ =>rBjdjjrrBBBf=>=>$                     $>4>>>=rrafr> ==w>$                         $= +=>>w>==**$$            ***$   +**==",
"=>=$$$=wjBjrjjrjAABr,14$$                     *=w>w==rrrja$ *=$                            +=+=>>1>>*$*              =*=$=$=**=>",
">>= $ O>pnngjjjafAcc5$e1$                     $$>=>===wwfr$ $                                *+==1>>=$**$            +==$$$=***=",
">>>:  $=9jnBzzarwBVBjw1r>=                     $+=4=$$=rw=OO     $                          $$* =>>1>==+$              =,0r>==>>",
"=>::=  =-rnnczfarfBBBr,4>=$                     +$==  ==1@     *=$=$                          * +=>>>>=+$*$            *:,0a>>=>",
":$::== $O4rncjajffBHcBr=>r=$                    $$==@  ,>=$    =w>@=                          ** +=>>w>=$$$             $$r00w>>",
"4:4$=,$   ezCczualcBHcBe4>=$                     $*==@ O=,,    >rw>>=                            = ==w>>=**=$           #,,00u>0",
"w:====* O ,rnBzzpgkBSBBArw0:$##                    $$$$ $==*   $>w4>>=                            =+=>>>>=**$             $=rrr1",
"www==>=* O$1azNjjjjjBAccN00::$                     $$$$$  ==*   =>ww>>=                              *===>**$             $$=rrw",
"wwr>>=>=O OOwcccnkjjcBScNjrw:$#                     $$$$         +>rrw+                              *   =>=**$             O>rr",
"wr0w>>>*O OO=rccjnjBjBSAcCB004$                      $$$=   $     ==w4r==                                +*=**$              @>w",
"u0a00:w:,  OO>rBnnncczASBjCju0w&                      $$*          =>r4>=$                                *==+=               =r",
":>0a00w:,O  OOwfcjjjczcSABBcNuu,*$                    $$+=$         =www>=                                 *==*==              O",
"&&:wa0w:,O  OO,wjnjjzcBASCjNNja0w=$  $                  $==          >>4w>*                                $ *=@=               ",
"#$$wraww,,O    ,ejnjfBcSHHCjjAjuu=$$$                  $ $*+          =0ww>*                                   @@=              "
};
