/* XPM */
static char *_b7263ee22f14f70a62598a7176aa208lMF9EVKRl3u1OI1W[] = {
/* columns rows colors chars-per-pixel */
"128 128 72 1 ",
"  c #90B5BB",
". c #99BBC0",
"X c #9BBCC2",
"o c #9CBDC2",
"O c #9EBEC3",
"+ c #A1C0C5",
"@ c #A3C1C6",
"# c #A3C2C7",
"$ c #A4C2C7",
"% c #A5C3C8",
"& c #A6C3C8",
"* c #A8C4C9",
"= c #A9C5CA",
"- c #ABC7CC",
"; c #ACC7CC",
": c #AEC9CE",
"> c #B1CACF",
", c #B3CBD0",
"< c #B3CCD1",
"1 c #B4CCD1",
"2 c #B5CDD2",
"3 c #B7CED3",
"4 c #B7CFD3",
"5 c #B8CFD3",
"6 c #B8CFD4",
"7 c #B9D0D4",
"8 c #BCD2D6",
"9 c #BED3D7",
"0 c #BFD3D8",
"q c #BFD4D8",
"w c #C0D4D8",
"e c #C0D4D9",
"r c #C2D5DA",
"t c #C3D6DB",
"y c #C4D7DB",
"u c #C5D7DC",
"i c #C7D9DD",
"p c #C8D9DD",
"a c #CADBDF",
"s c #CBDBDF",
"d c #CBDBE0",
"f c #CEDDE1",
"g c #CFDEE2",
"h c #D0DEE2",
"j c #D0DFE2",
"k c #D1DFE3",
"l c #D2E0E3",
"z c #D2E0E4",
"x c #D3E1E4",
"c c #D5E2E5",
"v c #D6E3E6",
"b c #D7E3E7",
"n c #D8E4E7",
"m c #D9E4E8",
"M c #DBE5E9",
"N c #DBE6E9",
"B c #DCE6EA",
"V c #DEE7EB",
"C c #DEE8EB",
"Z c #DFE8EC",
"A c #E0E9EC",
"S c #E2EAEE",
"D c #E3EBEE",
"F c #E4ECEF",
"G c #E6EDF0",
"H c #E7EDF0",
"J c #E7EEF1",
"K c #EAEFF2",
"L c #EAF0F3",
"P c #ECF1F4",
"I c #EDF2F5",
"U c #EEF2F5",
/* pixels */
"UUUUUUUUUUUUUUUUUUUUUUUUUUUUUUUUUUUUUUUUUUUUUUUUUUUUUUUUUUUUUUUUUUUUUUUUUUUUUUUUUUUUUUUUUUUUUUUUUUUUUUUUUUUUUUUUUUUUUUUUUUUUUUUU",
"UUUUUUUUUUUUUUUUUUUUUUUUUUUUUUUUUUUUUUUUUUUUUUUUUUUUUUUUUUUUUUUUUUUUUUUUUUUUUUUUUUUUUUUUUUUUUUUUUUUUUUUUUUUUUUUUUUUUUUUUUUUUUUUU",
"UUUUUUUUUUUUUUUUUUUUUUUUUUUUUUUUUUUUUUUUUUUUPPPLKKUUUUUUUUUUUUUUUUUUUUUUUUUUUUUUUUUUUUUUUUUUUUUUUUUUUUUUUUUUUUUUUUUUUUUUUUUUUUUU",
"UUUUUUUUUUUUUUUUUUUUUUUUUUUUUUUUUUUUUUUUUUUUKPKKSAKUUUUUUUUUUUUUUUUUUUUUUUUUUUUUUUUUUUUUUUUUUUUUUUUUUUUUUUUUUUUUUUUUUUUUUUUUUUUU",
"UUUUUUUUUUUUUUUUUUUUUUUUUUUUUUUUUUUUUUUUUUUKKLKLFcVLUUUUUUUUUUUUUUUUUUUUUUUUUUUUUUUUUUUUUUUUUUUUUUUUUUUUUUUUUUUUUUUUUUUUUUUUUUUU",
"UUUUUUUUUUUUUUUUUUUUUUUUUUULUUUUUUUUUUUUUUUFFLKLSgcLUUUUUUUUUUUUUUUUUUUUUUUUUUUUUUUUUUUUUUUUUUUUUUUUUUUUUUUUUUUUUUUUUUUUUUUUUUUU",
"UUUUUUUUUUUUUUULUULULUUUUUUKLULUUUUUUUUUUULFFKSScpmLUUUUUUUUUUUUUUUUUUUUUUUUUUUUUUUUUUUUUUUUUUUUUUUUUUUUUUULLUUUUUUUUUUUUUUUUUUU",
"UUUUUUUUUUUUUULKKLULLUUUUULKKKLUUUUUUUUUUUUFlccayVLUUUUUUUUUUUUUUUUUUUUUUUUUUUUUUUUUUUUUUUUUUUUUUUUUUUUUUULLKKKKUUUUUUUUUUUUUUUU",
"UUUUUUUUUUUUUULSFKKPPPUUUUKKKLPPUUUUUUUUUUULZxpgDUUUUUUUUUUUUUUUUUUUUUUUUUUUUUUUUUUUUUUUUUUUUUUUUUUUUULUULUUKKKKPPUUUUUUUUUUUUUU",
"UUUUUUUUUUUUUUUSSVKKPUUUULULPPPPUUUUUUUUUUUUULKKUUUUUUUUUUUUUUUUUUUUUUUUUUUUUUUUUUUUUUUUUUUUUUUUUUUUUUULLULLPKKKLUUUUUUUUUUUUPUU",
"UUUUUUUUUUUUUUUFVcSFPUUUUUULPPPPUUUUUUUUUUUUUUUUUUUUUUUUUUUUUUUUUUUUUUUUUUUUUUUUUUUUUUUUUUUUUUUUUUUUUULUPPLKPKKKPPUUUUUUUUPLKFFU",
"UUUUUUUUUUUUUUUJCljCFPUUULLUPPPPUUUUUUUUUUUUUUUUUUUUUUUUUUUUUUUUUUUUUUUUUUUUUUUUUUUUUUUUUUUUUUUUUUUUUUULPPKKPKPPPPUUUUUUUPScmmgc",
"UUUUUUUUUUUUUUUKVlrylSLUPPPUPKKPUUUUUUUUUUUUUUUUUUUUUUUUUUUUUUUUUUUUUUUUUUUUUUUUUUUUUUUUUUUUUUUUUUUUULLUPPPKKKPKPUUUUUUUUJmcCCxi",
"UUUUUUUUUUUUUUUUKnp39rsnASSFmmKPUUUUUUUUUUUUUUUUUUUUUUUUUUUUUUUUUUUUUUUUUUUUUUUUUUUUUUUUUUUUUUUUUUUULULUUUPKKPPPPUUUUUUUPZNCCCbr",
"UUUUULLUUUUUUUULLSVy79yyrripaZPUUUUUUUUUUUUUUUUUUUUUUUUUUUUUUUUUUUUUUUUUUUUUUUUUUUUUUUUUUUUUUUUUUUUUUULUPPPKKPPPUUUUUUUULmmZSVbp",
"UUUUKKKKUUUUUUUUUFVVgyw77rgcSPUUUUUUUUUUUUUUUUUUUUUUUUUUUUUUUUUUUUUUUUUUUUUUUUUUUUUUUUUUUUUUUUUUUUUUULLLPPPPUPPUUUUUUUUULncZSVxi",
"UUPLPPPPPUUUUUUUULSVNccccVCDPUUUUUUUUUUUUUUUUUUUUUUUUUUUUUUUUUUUUUUUUUUUUUUUUUUUUUUUUUUUUUUUUUUUUUUPUUPPPPUPPUUUUUUUUUUUPnlVmcgj",
"UPPKLPPPPPUUUUUUUUPFSSDSSFKUUUUUUUUUUUUUUUUUUUUUUUUUUUUUUUUUUUUUUUUUUUUUUUUUUUUUUUUUUUUUUUUUUUUUUUPUUUUUUUUPPPUUUUUUUUUUUKmjgjcK",
"UUPLLLPPPPUUUUUUUUUUPPPPPLUUUUUUUUUPUPUUUUUUUUUUUUUUUUUUUUUUUUUUUUUUUUUUUUUUUUUUUUUUUUUUUUUUUUUUUUPUUUUUUUUPPUUUPPPUUUUUUUUKJJLU",
"UUPPLLPIUPPUUUUUUUUUUUPUUUUUUUUUUPLPPPPUUUUUUUUUUUUUUUUUUUUUUUUUUUUUUUUUUUUUUUUUUUUUUUUUUUUUUUUUUPPUUUUPPPKPPPUPKPPUUUUUUUUUUUUU",
"UUUPPPIIPUPPUUUUUUUUUUUUUUUUUUUPPJSDGKKPPPLUUUUUUUUUUUUUUUUUUUUUUUUUUUUUUUULPUULUUUUUUUUUUUUUUUUUPUPUPPPPPKPPPUPJJKPUUUUUUUUUUUU",
"UUUUPPIIUUUUUUUUUUUUUUUUUUUUUPKLJPSJJJPGFJULUUUUUUUUUUUUUUUUUUUUUUUUUUULKKKKKSSFSLLUUUUUUUUUUUUUUPPUPPPPPKLPPPPPJSFPUUUUUUUUUUUU",
"UUUUUPUUUUUUIIUUUUUUUUUUUUUUPFKLPJKKPKPJKDFKLLUUUUUUUUUUUUUUUUUUUUUUUPLSSSSSSSVVmVZLUUUUUUUUUUUUUPUPPPPPKKLPPPLPJSUUUUUUUUUUUUUU",
"UUUUUPUUUUUUUUUUUUPPUUUUUUPKSFLPPKKKKKKJJKLKKUUUUUUUUUUUUUUUUUUUUUUUULSCSSJJSSSSCCZCKUUUUUUUUUUUPUUPPPPPKKPPLLKHJKUUUUUUUUUUUUUU",
"UUUUUUUUIIIIIIUUUULPUUUUUULDSLPPPKJGZGSSDDFKJJLPUUUUUUUUUUUUUUUUUUUUKSCASFKDmVVVCCSSSLUUUUUUUUUUPUUUPPPKPKKLHLKHPUUUUUUUUUUUUUUU",
"UUUUUUUUIIIIIIUUUIPIUPUUUUDSHPPLKKZbxxkgcnVDJKFJPPUUUUUUUUUUUUUUUUPLFVVVDFDSg9icCSSSSLUUUUUUUUULPUPUPPLLFLFHKKKPPUUUUUUUUUUUUUUU",
"UUUUUUUUPIUUIUUUUUUPULUUPHSKPKPKJScccxi03>7pVSJJDSFLUUUUUUUUUUUUPPLSSbcVFFFSp$3plVSSSDLUUUUUULUUUUPPLLFLSASFKPPUUUUUUUUUUUUUUUUU",
"UUUUUUUUPUUUUUUUUUUUPUUPKKKLKKKFSVkkgt0231$+wASKKVVCKUUUUUUUUUUUULSSVjcSKKDVe;&5rgCSSSJUUUUUUULLUUPPLJDncSFFKPPUUUUUUUUUUUUUUUUU",
"UUUUUUUPPPUPUUPUUIIIUUUUPPPKKFSDAkjd9896531*+iVJLFmllDUUUUUUUUUUPSSVlsCKKKSc9OO-8rdZSSJLUUUPLUUUULLKSVjgVSFLUUUUUUUUUUUUUUUUUUUU",
"UUUUUUUUPLPPPUUUULUUUPPUPPKKSASFmgr66889913>*3cSDJDCglJUUUUUUUUUFCCcjnFHKFAyO X$39qimSSJLULKJKLULKSnsjjcSSKLUUUUUUUUUUUUUUUUUUUU",
"UUUUUUUPPLJLJSSSJUPUPPUPPKKFSAFDVcpe9699yr833>pCSSSSmglJPUUUUUULSCnlnSKKFSj3++O:9piqpnSKLLFSVVJSSVVpgcVSSJPPUUUUUUUUUUUUUUUUUUUU",
"UUUUUUUUUPSZnga98ylCHKPPLKHDDKLFSVVVVjjjcjdggyrjCSSJLDNmLPUUUULSSVnVSFLFScy>;-:wgnCcpgcmCCCmlxmZmccsccSFJPPUUUUUUUUUUUUUUUUUUUUU",
"UUUUUUUUUUPZCgir335rcSFLLKJLPKLKFSFFFSAVVnmZcgppgmAFLLKAASKKKKDFSSSSJJJJVir0iixcnZVmllgaddii88gjcmxcbVJJLLUUUUUUUUUUUUUUUUUUUUUU",
"UUUUUUUUUUPPDZgiyrryanSDKKLLPLKKSFKKFDDFDVSDCjpprycSKLLKJSFKJJLFFSSSJKJVguigcVKKJZmVliir2:-&$*3rcnbmZSJJUUUUUUUUUUUUUUUUUUUUUUUU",
"UUUUUUUUUUUPLFSgyriyyyjVFPPPLLFSDKKKLLULUKFDSSmcg9ybFKLKKKKKKKKFFDDKKFVcrixVZKUUPJVcxprr8:&+>9wgnnnVZSJKUUUUUUUUUUUUUUUUUUUUUUUU",
"UUUUUUUUUUUUPPFScgprypygAFFFDACFLKKLLUUUUUUSSJKCcg99nKPPKKJJJLSSSDFJSVcirkcZJUUUULScxxyrrr,3ribAmnVVSKKUUUUUUUUUUUUUUUUUUUUUUUUU",
"UUUUUUUUUUUUPULHFSVcglcnVVVVnnCSJKLUUUUUUUUPKFKKScgrwcALKJSSCncZCSFDmxxgcmCJLUUUUUUClxgrrrrignAVcVCSJPUUUUUUUUUUUUUUUUUUUUUUUUUU",
"UUUUUUUUUUUUUUPPKJFFSCAACCAACCSKLLUUUUUUUUUULKSKJScgpwsccmVnnnmZVCSncccmZSJLUUUUUUUKCllgpdglVVVnmSZSKUUUUUUUUUUUUUUUUUUUUUUUUUUU",
"UUUUUUUUUUUUUUUULKKKFKSSSSSASKKUUUUUUUUUUUUUUPLKJJSnlgryiiallxcgccbnVCVCZJUUUUUUUUUULFnlnmmCCCmCSSJPUUUUUUUUUUUUUUUUUUUUUUUUUUUU",
"UUUUUUUUUUUUUUUUUUUPULKPKKHLPUUUUUUUUUUUUUUUUUPKKJKSmjgyrrrr93qiccVSSCSSKUUUUUUUUUUUUULFZCCSSSSSJPPUUUUUUUUUUUUUUUUUUUUUUUUUUUUU",
"UUUUUUUUUUUUUUUUUUUUUUPUUUUUUUUUUUUUUUUUUUUUUUUPPHHKSnlcjr9939pnbnCSCSFKUUUUUUUUUUUUUUULLKJJFKJPLUUUUUUUUUUUUUUUUUUUUUUUUUUUUUUU",
"UUUUUUUUUUUUUUUUUUUUUUUUUUUUUUUUUUUUUUUUUUUUUUUUPPLHLDVnVVVncnnncVVSSKKUUUULUKKKLUUUUUUUUUUPPUUUUUUUUUUUUUUUUUUUUUUUUUUUUUUUUUUU",
"UUUUUUUUUUUUUUUUUUUUUUUUUUUUUUUUUUUUUUUUUUUUUUUUUULPKKSSASSDSFSFSSHKKLUUUUULKLKSLPUUUUUUUUUUUUUUUUUUUUUUUUUUUUUUUUUUUUUUUUUUUUUU",
"UUUUUUUUUUUUUUUUUUUUUUUUUUUUUUUUUUUUUUUUUUUUUUUUUUPULLKSFSFDKLKFFSSKPUUUUULKUKLSSKUUUUUUUUUUUUUUUUUUUUUUUUUUUUUUUUUUUUUUUUUUUUUU",
"UUUUUUUUUUUUUUUUUUUUUUUUUUUUUUUUUUUUUUUUUUUUUUUUUUUUUULPKFKFJJSFDKPUPUUUULKKPKLScKUUUUUUUUUUUUUUUUUUUUUUUUUUUUUUUUUUUUUUUUUUUUUU",
"UUUUUUUUUUUUUUUUUUUUUUUUUUUUUUUUUUUUUUUUUUUUUUUUUUUUUUPULPPKJPLUUUUUUUUUUUKKKUFjcPUUUUUUUUUUUUUUUUUUUUUUUUUUUUUUUUUUUUUUUUUUUUUU",
"UUUUUUUUUUUUUUUUUUUUUUUUUUUUUUUUUUUUUUUUUUUUUUUUUUUUUUUUUUPPPUUUUUUUUUUUUUKSSAgiJUUUUUUUUUUUUUUUUUUUUUUUUUUUUUUUUUUUUUUUUUUUUUUU",
"UUUUUUUUUUUUUUUUUUUUUUUUUUUUUUUUUUUUUUUUUUUUUUUUUUUUUUUUUUUUUUUUUUUUUUUUUULKCmSKUUUUUUUUUUUUUUUUUUUUUUUUUUUUUUUUUUUUUUUUUUUUUUUU",
"UUUUUUUUUUUPUUPUUUUUUUUUUUUUUUUUUUUUUUUUUUUUUUUUUUUUUUUUUUUUUUUUUUUUUUUUUUUUUUUUUUUUUUUUUUUUUUUUUUUUUUUUUUUUUUUUUULUUUUUUUUUUUUU",
"UUUUUUUUUUPPPLPPUUUUUUUUUUUUUUUUUUUUUUUUUUUUUUUUUUUUUUUUUUUUUUUUUUUUUUUUUUUUUUUUUUUUUUUUUUUUUUUUUUUUUUUUUUUUUUUUULLLLKUUUUUUUUUU",
"UUUUUUUUUPKLLKLLPUUUUUUUUUUUUUUUUUUUUUUUUUUUUUUUUUUUUUUUUUUUUUUUUUUUUUUUUUUUUUUUUUUUUUUUUUUUUUUUUUUUUUUUUUUUUUUUULULKJKUUUUUUUUU",
"UUUUUUUUULHLPPKFPUUUUUUUUUUUUUUUUUUUUUUUUUUUUUUUUUUUUUUUUUUUUUUUUUUUUUUUUUUUUUUUUUUUUUUUUUUUUUUUUUUUUUUULUUUUUUUUULUJFKUUUUUUUUU",
"UUUUUUUUULFKLLFFPUUUUUUUUUUUUUUUUUUUUUUUUUUUUUUUUUUUUUUUUUUUUUUUUUUUUUUUUUUUUUUUUUUUUUUUUUUUUUUUUUUUUUUUKKLPUUUUULPPJDSKUUUUUUUU",
"UUUUUUUUUPSVACnFUUUUUUUUUUUUUUUUUUUUUUUUUUUUUUUUUUUUUUUUUUUUUUUUUUUUUUUUUUUUUUUPLLLUUUUUUUUUUUUUUUUUUUULSSVJUUUUUUPLDSVLUUUUUUUU",
"UUUUUUUUUUFVcVFPUUUUUUUUUUUUUUUUUUUUUUUUUUUUUUUUUUUUUUUUUUUUUUUUUUUUUUUUUUUUUUPLKJKPUUUUUUUUUUUUUUUUUUUDSVSSLUUULULLScSUUUUUUUUU",
"UUUUUUUUUUPLKKUUUUUUUUUUUUUUUUUUUUUUUUUUUUUUUUUUUUUUUUUUUUUUUUUUUUUUUUUUUUUUUUPPKKKFPUUUUUUUUUUUUUUUUUPKSJJSKUUUULLDcjLUUUUUUUUU",
"UUUUUUUUUUUUUUUUUUUUPUPPPUUUUUUUUUUUUUUUUUUUUUUUUUUUUUUUUUUUUUUUUUUUUUUUUUUUUUULKKJSPUUUUUUUUUUUUUUUUULJJJKKKUKUKPSbxmKUUUUUUUUU",
"UUUUUUUUUUUUUUUUUUUUPPPPPPUUUUUUUUUUUUUUUUUUUUUUUUUUUUUUUUUUUUUUUUUUUUUUUUUUUUUUULJJLUUUUUUUUUUUUUUUUULJJKKKKJKJGVcxcJUUUUUUUUUU",
"UUUUUUUUUUUUUUUUUUUPPPLKHPUUUUUUUUUUUUUUUUUUUUUUUUUUUUUUUUUUUUUUUUUUUUUUUUUUUPUPLLKJKPUUUUUUUUUUUUUUUUUFSSSCVCSVbddgVPUUUUUUUUUU",
"UUUUUUUUUUUUUUUUPPUUPLLHKPUUUUUUUUUUUUUUUUUUUUUUUUUUUUUUUUUUUUUUUUUUUUUUUUUUPUPULKKJKKUUUUUUUUUUUUUUUUULAmcccccgyrgcJUUUUUUUUUUU",
"UUUUUUUUUUUUUUUUPPPPPKFKFPUUUUUUUUUUUUUUUULUPUUUUUUUUUUUUUUUUUUUUUUUUUUUUUUUIIIIULLJKKUUUUUUUUUUUUUUUUUPSgriii98rgVDUUUUUUUUUUUU",
"UUUUUUUUUUUUUUUUPPKPLKKKKPUUUUUUUUUUUUUUPKKKKLUUUUUUUUUUUUUUUUUUUUUUUUUUUUUUIIIIUULJJKKUUUUUUUUUUUUUUUUUPFnggpilZSLUUUUUUUUUUUUU",
"UUUUUUUUUUUUUUUUPPKKKKHLPUUUUUUUUUUUUUUUKFKPKKUPUUUUUUUUUUUUUUUUUUUUUUUUUUUUUUUUULKJKKKLUUUUUUUUUUUUUUUUUULLKJLKPUPUUUUUUUUUUUUU",
"UUUUUUUUUUUUUUUUUUPPPPPPPUUUUUUUUUUUUUUPKKPKPKKUUUUUUUUUUUUUUUUUUUUUUUUUUUUUUUUUUUKKJKKKUUUUUUUUUUUUUUUUUUUULUUUUUUUUUUUUUUUUUUU",
"UUUUUUUUUUUUUUUUUUUUUUUUUUUUUUUUUUUUUUULKKPLLKLPUUUUUUUUUUUUUUUUUUUUUUUUUUUUUUUUUPPKHLKHPUUUUUUUUUUUUUUUUUUUUUUUUUUUUUUUUUUUUUUU",
"UUUUUUUUUUUUUUUUUUUUUUUUUUUUUUUUUUUUUUKJKPPLLKPUUUUUUUUUUUUUUUUUUUUUUUUUUUUUUUUUUUUPHKKKLPUUUUUUUUUUUUUUUUUUUUUUUUUUUUUUUUUUUUUU",
"UUUUUUUUUUUUUUUUUUUUUUUUUUUUUUUUUUUUPKKJKUPPLPUUUUUUUUUUUUUUUUUUUUUUUUUUUUUUUUUUUUUPLLLLKLPUUUUUUUUUUUUUUUUUUUUUUUUUUUUUUUUUUUUU",
"UUUUUUUUUUUUUUUUUUUUUUUUUUUUUUUUUUUULLKKULPLLUUUUUUUUUUUUUUUUULUUUUUUUUUUUUUUUUUUUUPLLKLKLPUUUUUUUUUUUUUUUUUUUUUUUUUUUUUUUUUUUUU",
"UUUUUUUUUUUUUUUUUUUUUUUUUUUUUUUUUUPLLLKKLULLPUUUUUUUUULLKLLUUUJKUUUUUUUUUUUUUUUUUUUPPPLPLLKPPUUUUUUUUUUUUUUUUUUUUUUUUUUUUUUUUUUU",
"UUUUUUUUUUUUUUUUUUUUUUUUUUUUUUUUUPKLLKKUULKUUUUUUUUUUPKKJSSUULKJUUUUUUUUUUUUUUUUUUUULPPLPPPKPUUUUUUUUUUUUUUUUUUUUUUUUUUUUUUUUUUU",
"UUUUUUUUUUUUUUUUUUUUUUUUUUUUUUUUPPLULKKPULPUUUUUUUUUUKCFKDSLUKKKPKLPUUUUUUUUUUUUUUUUPLULPPPPPPUUUUUUUUUUUUUUUUUUUUUUUUUUUUUUUUUU",
"UUUUUUUUUUUULULUPUUUUUUUUUUUUUUPPLULKKUULUUUUUUUUUUUUKVSKLSLLULLLJKPUUUUUUUUUUUUUUUPPLLPPPPPLPUUUUUUUUPPKUUKPUUUUUUUUUUUUUUUUUUU",
"UUULLLFLKKGGSGDSSJLUUUUUUUUUUUUUPPPKKKPPUPUUUUUUUUUUULCSJJJJJKKKLFDPUUUUUUUUUUUUUUPPUPLLPPUPPKPUUUUUPLLKHLKDJFKUUUUUUUUUUUUUUUUU",
"KKFSVmADKGSGGSSSACSLUUUUUUUUUUULPPPPKPPPPUUUUUUUUUUUUPFVSJLJSJJKJFJPUUUUUUUUUUUUUUUUPPLLPPPUKPKUUUUUKKFKKFFCclcKUUUUUUUUUUUUUUUU",
"DSSCVnVSKASSSSLDSSSFLUUUUUUUUUPUUUKFKPPUUUUUUUUUUUUUUUKSmZSLLKSSSSKUUUUUUUUUUUUUUUUUUPKLKKPKUKLLUUUPLHHKLJFCcllmPUUUUUUUUUUUUUUU",
"JJSSAVVAVVVVVZDFSDLLKLUUUUUUUPUPPPKKPPUUUUUUUUUUUUUUUUUKSccccnbVSDPUUUUUUUUUUUUUUUUUPPLFSFFKPLLLPUUPHKLKFSSCmcxmSPUUUUUUUUUUUUKJ",
"JKKJSVjljkcVVCDSFFLLJJLUUUPUPPPUPKKKPUUUUUUUUUUUUUUUUUUUKVxccmbZSPPUUUUUUUUUUUUUUUUUUPLHFFSFKKLKPPPKKKHLFFDcjVnVSJLUUUUUUUUUUKJV",
"JKKJVccpygjccnCKKFPLKKLLUUULPULLKKKKPUUUUUUUUUUUUUUUUUUUPKJSSSDJPUPPUUUUUUUUUUUUUUUUUPLKKSFFSKKKLKLKLFKDSSyrpjcVZJJLPUUUUUUPUKVV",
"KKLKVcp99dckcncCFKLULULUPUUUPPLKDFDUUUUUUUUUUUUUUUUUUUUUUUUPLPPUPKFHLPUUUUUUUUUUUUUUUPPKFKSFJJJKKKKKKFSAVp389rjVSDSDJKPUUUUUKJSS",
"KUUJbi>:1yjcjcmnVKULULULUUUPPPLSSSKUUUUUUUUUUUUUUUUUUUUUUUUUUUUUPCVAJPUUUUUUUUUUUUUUUUPKKLHSDJSSSSSFACSNy>>938rcZGDGSmSKPPJJJJJS",
"PKPSp3*:23ryplCVnDLPLUPPPPPPUJSCVDUUUUUUUUUUUUUUUUUUUUUUUUUUUUUPFVnSFKUUUUPPUUUUUUUUUUUUKFFAVVVSSZVVbmmd923>+O-imSDGFmnSDFFLFSLF",
"KPJc3--2229>>ygcVmKKULPPPPLKSmmVAUUUUUUUUUUUUUUUUUUUUUUUUUUUUUUUDVnDKKUUUPPPPKPUUUUUUUUUPCAVbjgkmcxggdgddi8-OO &iZGDDScCSSSSFKHH",
"KKSi-*iZny9:.:rpccnDLLLLKFFAlcnVUUUUUUUUUUUUUUUUUUUUUUUUUUUUUUPPHDASKPUUPPPPPHHUUUUUUUUUULnVbjrrry02:3ikcjr38:>--ynDSFSSSFFSHHPL",
"JJc3-gLUUDgr-O:9pljlVSSSFVVncVALUUUUUUUUUUUUUUUUUUUUUUUUUUUUUUUULFAAFLPUPPPPPbAUUUUUUUUUUPLnVmxd0q8238dbmkirciru92yxmSSJFFKKPPUH",
"JV99xLUUUUKcy:$;33:--9rilnVcVnKPUUUUUUUUUUUUUUUUUUUUUUUUUUUUUUUUPSSVSFPPLPPLFcFUUUUUUUUUUUPKCVnVxi9>,3ikmVcZUSiiar9icbSJKPLPLUPH",
"VrrmPUUUUUUJVsrw73;&$*:9ypsjcKUUUUUUUUUUUUUUUUUUUUUUUUUUUUUUUUUUPKSVVSFFKSSSVVPUUUUUUUUUUUUULSCmZmxitikbmZJKUKcyiappcVSDKLLKLHPH",
"r9ZUUUUUUUUUKcsyrrryyyr959pgFPUUUUUUUUUUUUUUUUUUUUUUUUUUUUUUUUUUULSVcVAVAVnnVKUUUUUUUUUUUUUUUULJSVmcgxbcVJKUUUJprijppkmZSFFPKFHD",
"lLUUUUUUUUUUUScprw9ww999rgnKLUUUUUUUUUUUUUUUUUUUUUUUUUUUUUUUUUUUULSVVnccjjcVDLUUUUUUUUUUUUUUUUUULKJSVZZJKUUUUUUSirdjiupjcNVVCVVn",
"LUUUUUUUUUUUULDcpppipaplcSKUUUUUUUUUUUUUUUUUUUUUUUUUUUUUUUUUUUUUUULSVcccggcFPUUUUUUUUUUUUUUUUUUUUUULLUPUUUUUUUULmu9rir933>8rpljg",
"PUUUUUUUUUUUUUUKVgrrrygCKPUUUUUUUUUUUUUUUUUUUUUUUUUUUUUUUUUUUUUUUUUPKFSSSFLUUUUUUUUUUUUUUUUUUUUUUUUUUUUUUUUUUUUUUSp998>-$$3ypgcS",
"UUUUUUUUUUUUUUUUPLJSSJLLUUUUUUUUUUUUUUUUUUUUUUUUUUUUUUUUUUUUUUUUUUUUUPPPPUUUUUUUUUUUUUUUUUUUUUUUUUUUUUUUUUUUUUUUUUJmgr9999ypcSUU",
"UUUUUUUUUUUUUUUUUUUUUUUUUUUUUUUUUUUUUUUUUUUUUUUUUUUUUUUUUUUUUUUUUUUUUUUUUUUUUUUUUUUUUUUUUUUUUUUUUUUUUUUUUUUUUUUUUUUUPJSKFKKKLUUU",
"UUUUUUUUUUUUUKUUUUUUUUUUUUUUUUUUUUUUUUUUUUUUUUUUUUUUUUUUUUUUUUUUUUUUUUUUUUUUUUUUUUUUUUUUUUUUUUUUUUUUUUUUUUUUUUUUUUUUUUUUUUUUUUUU",
"UUUUUUUUUUUHKJSJPUUUUUUUUUUUUUUUUUUUUUUUUUUUUUUUUUUUUUUUUUUUUUUUUUUUUUUUUUUUUUUUUUUUUUUUUUUUUUUUUUUUUUUUUUUUUUUUUUUUUUUUUUUUUUUU",
"UUUUUUUUUUKcASJJLLUUUUUUUUUUUUUUUUUUUUUUUUUUUUUUUUUUUUUUUUUUUUUUUUUUUUUUUUUUUUUUUUUUUUUUUUUUUUUUUUUUUUUUUUUUUUUUUUUUUUUUUUUUUUUU",
"UUUUUUUUUULpcLSKJLUUUUUUUUUUUUUUUUUUUUUUUUUUUUUUUUUUUUUUUUUUUUUUUUUUUUUUUUUUUUUUUUUUULULPUUUUUUUUUUUUUUUUUUUUUUUUUUUUUUUUUUUUUUU",
"UUUUUUUUUULgrVKSCPUUUUUUUUUUUUUUUUUUUUUUUUUUUUUUUUUUUUUUUUUUUUUUUUUUUUUUUUUUUUUUUUUUPKJKJKUUUUUUUUUUUUUUUUUUUUUUUUUUUUUUUUUUUUUU",
"UUUUUUUUUUUSy9plDUUUUUUUUUUUUUUUUUUUUUUUUUUUUUUUUUUUUUUUUUUUUUUUUUUUUUUUUUUUUUUUUUUKSJKKJJUUUUUUUUUUUUUUUUUUUUUUUUUUUUUUUUUUUUUU",
"UUUUUUUUUUUPKASJUUUUUUUUUUUUUUUUUUUUUUUUUUUUUUUUUUUUUUUUUUUUUUUUUUUUUUUUUUUUUUUUUUKSGJKKJJPUUUUUUUUUUUUUUUUUUUUUUUUUUUUUUUUUUUUU",
"UUUUUUUUUUUUPUUUUUUUUUUUUUUUUUUUUUUUUUUUUUUUUUUUUUUUUUUUUUUUUUUUUUUUUUUUUUUUUUUUPKZSJPPKJKUUUUUUUUUUUUUUUUUUUUUUUUUUUUUUUUUUUUUU",
"UUUUUUUUPUPPUUUUUUUUUUUUUUUUUUUUUUUUUUUUUUUUUUUUUUUUUUUUUUUUUUUUUUUUUUUUUUUUUUUUPZmLJPKKKUUUUUUUUUUUUUUUUUUUUUUUUUUUUUUUUUUUUUUU",
"UUUUUUUUKKKKPUUUUUUUUUUUUUUUUUUUUUUUUUUUUUUUUUUUUUULPJPPUUUUUUUUUUUUUUUUUUUUUUUKSmSJPKPKKUUUUUUUUUUUUUUUUUUUUUUUUUUUUUUUUUUUUUUU",
"UUUUUUUPSVASFUUUUUUUUUUUUUUUUUUUUUUUUUUUUUUUUUUUULSVmVmZGPUUUUUUUUUUUUUUUUUUUULSVmJLKUPPUUUUUUUUUUUUUUUUUUUUUUUUUUUUUUUUUUUUUUUU",
"UUUUUUKFSVASDPUUUUUUUUUUUUUUUUUUUPKKPUUUUUUUUUUUJligxgigmZKKUUUUUUUUUUUUUUUUUUSmmCLLPPPUUUUUUUUUUUUUUUUUUUUUUUUUUUUUUUUUUUUUUUUU",
"UUUUUUKAFSSSFKPUUUUUUUUUUUULUPUUUZmmSPUUUUUUUUULxqrggiipcnmVJUUUUUUUUUUUUUUUUAccNJKPUUUUUUUUUUUUUUUUUUUUUUUUUUUUUUUUUUUUUUUUUUUU",
"UUUUUUKbVHFKFFKUUUUUUUUUUULLJCLPSbgggZUUUUPUUUPmirripirrgcmlxJUUUUUUULKULUUUKplbCLPPPUUUUUUUUUUUUUUUUPPPPUUUPLUUUUUUUUUUUUUUUUUU",
"UUUUUUPAxSFKJJKKUUUUUUUULKKJJZmSmcgximUUPPPPPPKmgiq4pggirlNnxxZSKUUUJSVCLUUKmgcVJLPUUUUUUUUUUUUUUUUULKLFJPUPPKLUUUUUUUUUUUUUUUUU",
"UUUUUUUHkcSJKLSLKUUUUUUULKKLLSngcxxcjcPULPJLLLPZxi83pllgdynmmcxgkVVmZVVSSUUJccCSLPPUUUUUUUUUUUUUUUULSFFDFKKJDnnLUUUUUUUUUUUUUUUU",
"UUUUUUUUSjVSJKJSJLUUUUUPKPKPKJcjxcxmjVKUJSKJPKKZgpriSDclcipcVcCbxpygZSJFJPKScnAKKPPUUUUUUUUUUUUUUUUJDJJKKKKKSg9FUUUUUUUUUUUUUUUU",
"UUUUUUUUKVjVSSKFSSJLUUUKKKPKJDcgixkVcCKPJCJJKKKmgdgDUUSnmnpicSmmVccmJJKLJKSVgcFKPUUUUUUUUUUUUUUUUUULLPLKKKKLVy3SUUUUUUUUUUUUUUUU",
"UUUUUUUUUKccVZSJDJSDKPPKPKKPKScirmmmZSLUJJKKKPJcgcSUUUDSZZcddjVGSSSSFKJLJJVgpVKPPUUUUUUUUUUUUUUUUUUUPPLLKKKFcwrJUUUUUUUUUUUUUUUU",
"UUUUUUUUUUSjcccCDDSJSJPPKPUKJVcrrCmVZSJLKJKKKKSkcSUUUULDSZCxggkmSSFFJJJJJVsrcJHKUUUUUUUUUUUUUUUUUUUUPLDDFKSmgrcPUUUUUUUUUUUUUUUU",
"UUUUUUUUUUKVxcbxZZDDSFJLLLKKFns9inCmVCKKKKPKKJcxVLUUUUULSCCVlagnnVSSSSFSmprgSJLLUUUUUUUUUUUUUUUUUUUUUKZmVcjckjDUUUUUUUUUUUUUUUUU",
"UUUUUUUUUUUGmmSccCVCSSSSFFJFSpssmnSVmCSKKPPKJcdmDUUUUUUULSVZVlppjcmmZmnirriCJKPUUUUUUUUUUUUUUUUUUUUUPScxgjccmDUUUUUUUUUUUUUUUUUU",
"UUUUUUUUUUUUKVZSVcgpiipjmnVVcpscSmmSCCSDJKSSxddmLUUUUUUUULSmccxappyrr0rrrilSLPUUUUUUUUUUUUUUUUUUUUUUUJVccmVVDUUUUUUUUUUUUUUUUUUU",
"UUUUUUUUUUUUKSZZDSci8,3rpxVmgppmLCmlccjcccggggxGUUUUUUUUUULKCcxdjjspiir99gJLUUUUUUUUUUUUUUUUUUUUUUUUUUKCVVSKLUUUUUUUUUUUUUUUUUUU",
"UUUUUUUUUUUUULJVSJAjr928gmcgpigSKSCmjgpyiupdxxSUUUUUUUUUUUUUPDZckjgkjgyuCLPUUUUUUUUUUUUUUUUUUUUUUUUUUUUPKKKUUUUUUUUUUUUUUUUUUUUU",
"UPPPUPUUUUUUUPJSSDDScppgjcSSSmSKPKVVVcjjgppgkSUUUUUUUUUUUUUUUULDVVcjcVJKPUUUUUUUUUUUUUUUUUUUUUUUUUUUUUUUPUUUUUUUUUUUUUUUUUUUUUUU",
"JSSJJPUUUUUUUUUKDSSFCccccVKULULUUPSVmccjgxxmSPUUUUUUUUUUUUUUUUUPUKKKPUUUPUUUUUUUUUUUUUUUUUUUUUUUUUUUUUUUUUUUUUUUUUUUUUUUUUUUUUUU",
"ZSSSkSPUUUUUUUUUULFSSmcgjJUUUUUUUPKCnVncbmSKUUUUUUUUUUUUUUUUUUUUUUUUUUUUUUUUUUUUUUUUUUUUUUUUUUUUUUUUUUUUUUUUUUUUUUUUUUUUUUUUUUUU",
"ZSSCpcUUUUUUUUUUULKKJVmmJUUUUUUUUUULFACSFLLUUUUUUUUUUUUUUUUUUUUUUUUUUUUUUUUUUUUUUUUUUUUUUUUUUUUUUUUUUUUUUUUUUUUUUUUUUUUUUUUUUUUU",
"CSClpgLUUUUUUUUUUUUUKLLKKUUUUUUUUUUUUPLPUUUUUUUUUUUUUUUUUUUUUUUUUUUUUUUUUUUUUUUUUUUUUUUUUUUUUUUUUUUUUUUUUUUUUUUUUUUUUUUUUUUUUUUU",
"igaitxLUUUUUUUUUUUUUPPUUUUUUUUUUUUUUUUUUUUUUUUUUUUUUUUUUUUUUUUUUUUUUUUUUUUUUUUUUUUUUUUUUUUUUUUUUUUUUUUUUUUUUUUUUUUUUUUUUUUUUUUUU",
"8:39gDUUUUUUUUUUUUUUUUUUUUUUUUUUUUUUUUUUUUUUUUUUUUUUUUUUUUUUUUUUUUUUUUUUUUUUUUUUUUUUUUUUUUUUUUUUUUUUUUUUUUUUUUUUUUUUUUUUUUUUUUUU",
"JVmZKUUUUUUUUUUUUUUUUUUUUUUUUUUUUUUUUUUUUUUUUUUUUUUUUUUUUUUUUUUUUUUUUUUUUUUUUUUUUUUUUUUUUUUUUUUUUUUUUUUUUUUUUUUUUUUUUUUUUUUUUUUU",
"UUUUUUUUUUUUUUUUUUUUUUUUUUUUUUUUUUUUUUUUUUUUUUUUUUUUUUUUUUUUUUUUUUUUUUUUUUUUUUUUUUUUUUUUUUUUUUUUUUUUUUUUUUUUUUUUUUUUUUUUUUUUUUUU",
"UUUUUUUUUUUUUUUUUUUUUUUUUUUUUUUUUUUUUUUUUUUUUUUUUUUUUUUUUUUUUUUUUUUUUUUUUUUUUUUUUUUUUUUUUUUUUUUUUUUUUUUUUUUUUUUUUUUUUUUUUUUUUUUU",
"UUUUUUUUUUUUUUUUUUUUUUUUUUUUUUUUUUUUUUUUUUUUUUUUUUUUUUUUUUUUUUUUUUUUUUUUUUUUUUUUUUUUUUUUUUUUUUUUUUUUUUUUUUUUUUUUUUUUUUUUUUUUUUUU"
};
