/* XPM */
static char *result[] = {
/* columns rows colors chars-per-pixel */
"72 45 201 2 ",
"   c black",
".  c #050509",
"X  c #0C0609",
"o  c #070A09",
"O  c #0C0909",
"+  c #130C0C",
"@  c #15140F",
"#  c #1C161C",
"$  c #1E1A1A",
"%  c #181416",
"&  c #221D1D",
"*  c #24231E",
"=  c #1F1821",
"-  c #221C22",
";  c #271B2E",
":  c #252126",
">  c #2A2524",
",  c #27222A",
"<  c #2B242D",
"1  c #2D2A2D",
"2  c #2E2B25",
"3  c #30272B",
"4  c #37342E",
"5  c #2D2531",
"6  c #2F2931",
"7  c #322C33",
"8  c #362E38",
"9  c #343137",
"0  c #3A3534",
"q  c #373139",
"w  c #3C343C",
"e  c #3E383E",
"r  c #3A3835",
"t  c #413A3C",
"y  c #483739",
"u  c #45413C",
"i  c #49443F",
"p  c #3E3641",
"a  c #3F3840",
"s  c #413A42",
"d  c #474244",
"f  c #4B4443",
"g  c #4E4944",
"h  c #4E4549",
"j  c #4A494B",
"k  c #444248",
"l  c #534D4C",
"z  c #504D47",
"x  c #54504D",
"c  c #5A534E",
"v  c #584F51",
"b  c #545355",
"n  c #5B5353",
"m  c #59565A",
"M  c #5D5B5C",
"N  c #595755",
"B  c #625B56",
"V  c #635E5A",
"C  c #66625B",
"Z  c #69665C",
"A  c #6B695F",
"S  c #70695F",
"D  c #655E62",
"F  c #775F61",
"G  c #646264",
"H  c #6A6463",
"J  c #6D6A63",
"K  c #6D6B6A",
"L  c #726C65",
"P  c #746E6B",
"I  c #786767",
"U  c #75726C",
"Y  c #79746B",
"T  c #7E786D",
"R  c #767065",
"E  c #716D73",
"W  c #7A7472",
"Q  c #7D7A72",
"!  c #7C7B7B",
"~  c #747374",
"^  c #867F55",
"/  c #827C74",
"(  c #827D7A",
")  c #867A75",
"_  c #858076",
"`  c #8A8377",
"'  c #85827C",
"]  c #8A857C",
"[  c #8B897E",
"{  c #908975",
"}  c #8A8366",
"|  c #B2AE7B",
" . c #857E80",
".. c #858383",
"X. c #8B8682",
"o. c #8C8A83",
"O. c #8C898A",
"+. c #868883",
"@. c #938D84",
"#. c #958E8A",
"$. c #998E88",
"%. c #958682",
"&. c #969186",
"*. c #999287",
"=. c #96918B",
"-. c #9A948B",
";. c #9E988D",
":. c #958F95",
">. c #959492",
",. c #999492",
"<. c #9D9993",
"1. c #9D9B9A",
"2. c #A18683",
"3. c #A29B8E",
"4. c #A69E87",
"5. c #A39D93",
"6. c #A39E9A",
"7. c #AB9F9B",
"8. c #A69894",
"9. c #B19A9C",
"0. c #AEAA8D",
"q. c #ABA48A",
"w. c #B9B48F",
"e. c #A6A195",
"r. c #AAA496",
"t. c #ADA894",
"y. c #A4A29B",
"u. c #ACA69A",
"i. c #AEA99C",
"p. c #A7A89A",
"a. c #B1A59D",
"s. c #B1AB9E",
"d. c #B0A796",
"f. c #BFB996",
"g. c #BEB59D",
"h. c #A4A3A3",
"j. c #ABA5A2",
"k. c #ADA9A3",
"l. c #ADADAB",
"z. c #BBA6A3",
"x. c #B2ACA2",
"c. c #B3AEAB",
"v. c #B8A9A2",
"b. c #B5B1A4",
"n. c #B8B2A4",
"m. c #B4B0AC",
"M. c #B9B3AC",
"N. c #B1AFB0",
"B. c #B5B4B3",
"V. c #BDB7B3",
"C. c #BBB9B6",
"Z. c #BCBBBB",
"A. c #B8B7BA",
"S. c #C1BA9A",
"D. c #C7A8A8",
"F. c #C5B5A7",
"G. c #DDADB2",
"H. c #C1BBB5",
"J. c #C7B9B7",
"K. c #D7B9BA",
"L. c #C2C2BE",
"P. c #CAC3BD",
"I. c #BFBFC2",
"U. c #C3BEC1",
"Y. c #E8B7C5",
"T. c #C4C4C3",
"R. c #CBC5C3",
"E. c #CDC9C6",
"W. c #CCCBCA",
"Q. c #D2CDC8",
"!. c #D4D1CD",
"~. c #D9D1CE",
"^. c #CFCFD1",
"/. c #D3D3D2",
"(. c #DAD5D4",
"). c #DAD9D6",
"_. c #DBDBDA",
"`. c #DCD2DB",
"'. c #EEC6CB",
"]. c #E9C2C4",
"[. c #F5CFD5",
"{. c #E1D9D5",
"}. c #E4DDDB",
"|. c #E5E2DE",
" X c #ECE5DF",
".X c #E6DFE0",
"XX c #E3E3E2",
"oX c #ECE5E4",
"OX c #ECE9E6",
"+X c #ECEBEB",
"@X c #F1E7E7",
"#X c #F2EAE6",
"$X c #F4ECEB",
"%X c #F4EBEC",
"&X c #F3F0EE",
"*X c #EFEEF2",
"=X c #F1EFF1",
"-X c #F3F3F3",
";X c #FBFBFB",
":X c #F9F8F8",
">X c None",
/* pixels */
">X>X>X>X>X>X>X>X>X>X>X>X>X>X>X>X>X>X>X>X>X>X>X>X>X>X>X>X>X>X>X>X>X>X>X>X>X>X>X>X>X>X>X>X>X>X>X>X>X>X>X>X>X>X>X>X>X>X>X>X>X>X>X>X>X>X>X>X>X>X>X>X",
">X>X>X>X>X>X>X>X>X>X+X>.#.<.C.XX>X>X>X>X>X>X>X>X>X>X>X>X>X>X>X>X>X>X>X>X>X>X>X>X>X>X>X>X>X>X>X>X>X>X>X>X>X>X>X>X>X>X>X>X>X>X>X>X>X>X>X>X>X>X>X>X",
">X>X>X>X>X>X>X>X>X>X_.M 5.J ( j.A..X>X>X>X>X>X>X>X>X>X>X>X>X>X>X>X>X>X>X>X>X>X>X>X>X>X>X>X>X>X>X>X>X>X>X>X>X>X>X>X>X>X>X>X>X>X>X>X>X>X>X>X>X>X>X",
">X>X>X>X>X>X>X>X>X>XXXG b.#.=.C.>.6.Z.XX>X>X>X>X>X>X>X>X>X>X>X>X>X>X>X>X>X>X>X>X>X>X>X>X>X>X>X>X>X>X>X>X>X>X>X>X>X>X>X>X>X>X>X>X>X>X>X>X>X>X>X>X",
">X>X>X>X>X>X>X>X>X>X+XG 5.s.#.R.}.m.=.6.T.>X>X>X>X>X>X>X>X>X>X>X>X>X>X>X>X>X>X>X>X>X>X>X>X>X>X>X>X>X>X>X>X>X>X>X>X>X>X>X>X>X>X>X>X>X>X>X>X>X>X>X",
">X>X>X>X>X>X>X>X>X>X:X~ *.x.5.$.}.$X(.j.>.j.).>X>X>X>X>X>X>X>X>X>X>X>X>X>X>X>X>X>X>X>X>X>X>X>X>X>X>X>X>X>X>X>X>X>X>X>X>X>X>X>X>X>X>X>X>X>X>X>X>X",
">X>X>X>X>X>X>X>X>X>X>XO.` x.x.#.7.OX%X%XE.:.O.T.>X>X>X>X>X>X+X>X>X>X>X>X>X>X>X>X>X>X>X>X>X>X>X>X>X>X>X>X>X>X>X>X>X>X>X>X>X>X>X>X>X>X>X>X>X>X>X>X",
">X>X>X>X>X>X>X>X>X>X>Xj.T x.r.s.] R.@XoX#X|.k.' B.+X>X>X>X>Xl.A.>X>X>X>X>X>X>X>X>X>X>X>X>X>X>X>X>X>X>X>X>X>X>X>X>X>X>X>X>X>X>X>X>X>X>X>X>X>X>X>X",
">X>X>X>X>X>X>X>X>X>X>XT.L n.r.x.5.#.oX@XoXoX#XC.' h.XX>X>X+.C h.Z.-X_.XX>X>X>X>X>X>X>X>X>X>X>X>X>X>X>X>X>X>X>X>X>X>X>X>X>X>X>X>X>X>X>X>X>X>X>X>X",
">X>X>X>X>X>X>X>X>X>X>X_.C x.u.r.i.@.M.%XE.c.).$XE.! 1.OXI.$ r ] L W.1./.>X>X>X>X>X>X>X>X>X>X>X>X>X>X+XXX>X>X>X>X>X>X>X>X>X>X>X>X>X>X>X>X>X>X>X>X",
">X>X>X>X>X>X>X>X>X>X>XOXZ u.p.u.u.r.@.R.@.~ M.%X%XJ.U ..j + z 5.Q J N.*X>X>X>X>X>X>X>X>X>X>X-X/.C.h.y.1.h.l.Z.^.>X>X>X>X>X>X>X>X>X>X>X>X>X>X>X>X",
">X>X>X>X>X>X>X>X>X>X>X+XL ;.p.i.u.a.-./ ( V 7.%X~.H.y.9 = q @.M.' h *X>X>X>X>X>X>X>X>X>X>XE.k.+.! ( o.X.+.] ' X.6.L.>X>X>X>X>X>X>X>X>X>X>X>X>X>X",
">X>X>X>X>X>X>X>X>X>X>X:X! &.i.p.r.a.e./ *.L H.E.n.e.x.d k I 7.r.T N _.>X>X>X>X>X>X>X>XW.y.] ( &.e.u.s.s.s.r.5.&.' ' <.L.>X>X>X>X>X>X>X>X>X>X>X>X",
">X>X>X>X>X>X>X>X>X>X>X;Xo.] s.r.s.y.u.r.r.5.s.e.i.s.e.B @.) u.] [ / o._.>X>X>X>X>X>Xl.' ! =.i.s.t.r.s.r.u.u.s.s.k.;.] ( h.>X>X>X>X>X>X>X>X>X>X>X",
">X>X>X>X>X>X>X>X>X>X>X;X<.! b.t.s.r.u.a.r.a.r.i.p.;.5.<.v.%.D.) r.r./ +.-X>X>X>XE.>.Q &.i.i.i.i.u.u.u.u.u.i.u.u.r.k.i.-.Q o.!.>X>X>X>X>X>X>X>X>X",
">X>X>X>X>X>X>X>X>X>X>X;XC.J b.e.e.5.s.u.r.r.i.i.Y u x X.D.G.D.9.u.t.s.J A.>X>XL.Q Q r.k.i.p.r.u.i.u.r.u.i.r.r.r.i.i.r.s.i.! ' R.>X>X>X>X>X>X>X>X",
">X>X>X>X>X>X>X>X>X>X>X;XU.s u.c.%.B i.i.i.5.s.-.&     2 D.>XY.K.r.i.s.&.! :XC.T ] s.s.r.r.u.u.u.u.u.u.u.u.u.u.u.i.u.u.u.r.x.] T W.>X>X>X>X>X>X>X",
">X>X>X>X>X>X>X>X>X>X>X;XO.$ V ,.X.u ] a.y.u.x.J   .     F [.'.J.y.i.u.s.G x.W @.x.u.r.u.r.u.u.u.u.i.u.r.u.r.i.u.y.r.u.i.r.i.x.] Q _.>X>X>X>X>X>X",
">X>X>X>X>X>X>X>X>X>X>X_.d f 8 h H W @.u.i.r.n.Z   .     t K.F.d.r.i.p.n.H N -.x.u.r.u.u.s.u.u.u.u.u.i.u.i.u.u.u.r.i.r.u.a.r.i.k._ ] >X>X>X>X>X>X",
">X>X>X>X>X>X>X>X>X>X>Xh.& ( Y N H 8.x.r.u.t.s.&.2 .   @ U i.r.r.p.p.t.s.Y R c.r.a.u.i.r.s.r.u.s.u.u.u.u.u.i.r.u.a.u.u.i.r.u.i.p.x.J l.>X>X>X>X>X",
">X>X>X>X>X>X>X>X>X>X>XM - n 5.u.t.s.r.a.i.0.u.k.' z u Z r.r.a.u.u.y.u.s.-.3.s.r.i.r.s.u.u.u.u.r.u.u.u.u.a.u.u.u.u.u.r.u.u.i.u.u.i.5.J XX>X>X>X>X",
">X>X>X>X>X>X>X>X>X>XXX, ; ; n -.r.s.r.u.j.0.r.j.x.q.5.i.u.u.i.u.u.u.u.u.i.r.u.s.r.u.u.u.u.i.u.i.u.u.u.u.u.r.i.u.u.i.s.u.u.u.u.r.u.b.U y.>X>X>X>X",
">X>X>X>X>X>X>X>X>X>Xc.& s n c / r.r.u.y.j.d.t.j.r.0.x.u.i.u.u.u.u.u.r.r.i.r.u.u.u.u.r.u.r.u.u.u.u.u.u.u.u.s.u.u.u.;.u.a.r.a.u.r.s.i.<.K -X>X>X>X",
">X>X>X>X>X>X>X>X>X;X~ w ( 8.3.3.r.r.u.a.j.r.0.a.F.S.r.r.u.u.u.u.u.s.u.u.i.u.r.r.u.i.u.u.i.u.u.u.u.u.u.u.r.s.e.u.s.L y.i.u.u.u.u.e.i.n.Z W.>X>X>X",
">X>X>X>X>X>X>X>X>X:Xj > n $.x.a.r.s.r.u.u.i.t.3.q.w.3.d.u.u.u.u.u.u.i.u.i.3.[ a.u.u.u.r.u.u.u.u.u.u.u.u.u.u.u.u.s.S *.v.i.s.i.t.r.u.x.T y.>X>X>X",
">X>X>X>X>X>X>X>X:X).f g s n ,.j.u.u.u.u.u.u.j.4.^ } u.a.u.u.u.u.r.u.r.u.x./ / i.u.u.u.i.u.u.u.u.u.u.i.u.u.u.u.u.s.@.L 5.e.5.r.5.s.s.x.` ..>X>X>X",
">X>X>X>X>X>X>X>X+X+.! 3.@.L ` x.a.r.a.u.p.r.j.S.| { x.u.u.u.u.u.u.u.u.u.a.g ) r.u.*.3.a.i.u.u.u.u.u.u.u.i.i.s.i.5.[ c I / / ` ] { 3.s.&.! >X>X>X",
">X>X>X>X>X>X>X-X1.T k.s.r.L L 3.d.r.y.i.t.u.7.g.S.5.i.u.u.u.u.u.i.u.i.i.y.> d Y / R r.s.u.i.u.u.i.u.e.e.u.e.=./ C R Y Y / / ) ] ) / [ ) ..>X>X>X",
">X>X>X>X>X>X>Xm.P y.p.p.5.c P -.s.r.r.k.e.r.s.u.r.i.i.y.u.u.u.a.i.r.p.u.u.g - r n *.s.y.u.u.u.u.r.u.u.R A Z x e q I -.=.@.*.3.7.5.*.] C ! ;X>X>X",
">X>X>X>X>X>XE.U 5.s.r.p.y.-.u.r.r.s.u.T c N &.i.u.u.u.u.u.u.y.s.t.p.u.k.n.@.V C ] u.i.r.i.u.u.i.i.y.@.0 $ < 1 q p h ) #.%.[ [ 3.r.x.u.] J T.>X>X",
">X>X>X>X>X_.Q &.k.r.r.i.r.i.u.u.r.b.U $ O   0 &.s.u.u.u.u.u.i.u.5.p.k.u.-.u.u.i.s.r.u.i.r.u.a.u.$.V d 1 = 5 7 p p e l X.@.*.%.*.3.s.i.x.o.U >X>X",
">X>X>X>XoX+.] i.t.i.r.-.` r.a.u.p.r.*   X o   Z x.a.r.u.u.u.u.u.t.s.<.C f V 5.i.r.s.r.a.r.u.j.Y t , - , , 5 8 p s w t H $.$.*.@.*.i.i.p.n.J m.>X",
">X>X>X>X,.Q i.i.s.-.<.! V =.j.u.i.-.O . .     B n.u.r.u.r.u.y.i.u.i.L & 1 t R u.r.i.u.r.r.x.P > & < < 6 5 ; 6 q t w s s X.-.$.@.&.r.r.u.n._ X.>X",
">X>X>XA.U u.x.5.3.8.V.L V %.n.u.s.e.4 O o + y 9.v.u.u.r.u.a.s.r.r.b.i 7 V ( Y r.i.7.a.r.s.-.> # ; < ; 5 < 5 < < s t s 8 I =.@.@.$.5.u.u.s.o.+.>X",
">X>XW.~ e.p.5.-.u.(.(.( K m.P.5.t.s.] n g ) D.'.z.p.p.i.i.u.s.r.r.b.n H <.r.r.r.u.u.i.t.u.h & 6 5 5 5 < < < < ; 8 s p p c :.@.#.@.3.i.u.n.Q 6.>X",
">X(.Q =.i.-.<.H..X%X(.U.:.oX{.r.t.;.s.y.8.].>X>Xz.u.r.d.u.r.u.i.r.x.o.L u.t.t.d.u.a.y.x.W - , 5 5 5 5 6 5 6 6 5 6 s s p s %.#.#.[ ;.i.i.y.Z (.>X",
">X+.] u.#.j.Q.%X@XoX@XoX{.@XoXs.s.P @.x.$.K.G.].z.y.p.r.t.p.i.u.u.u.p._ 5.s.y.s.i.i.i.i.e - 5 5 5 5 5 5 5 5 < < < p p s t ) $.#.%.-.i.t.U 1.>X>X",
"h.U x.@.V.oX%X@X%X@X@X@X&X X@XH.x.f W <./ x.2.F.a.r.s.x.e.-.p.i.i.u.i.r.r.u.5.r.e.,.e._ : 6 ; 6 ; 5 5 5 5 5 6 5 6 s e s q W ,.$.%.<.k._ ..>X>X>X",
">.W X.L c.R.E.~.~.(.}.~.Q.Q.Q.M.$.3 B ( r.-./ c.a.i.e.-.L A o.o.[ ] @.[ X.X.' ..] ' -.G - 5 5 6 6 , 5 7 5 5 < < < w s s q P =.$.=.@.! o._.>X>X>X",
"_.h.1.o...#.#.>.,.,.=.:.#.=.X.( h & n 8.b.[ T e.=.o._ X.<.1.h.<.y.y.h.k.l.l.k.l.B.L.W.1.= < 6 : = # - - ; < 6 5 < t s s w P -.] Q U 1.XX>X>X>X>X",
">X>XOX|./.T.Z.A.A.B.k.l.l.j.l.+.# $ ( n.i.C U =.O.,.k.^.:X;X:X+X+XOX-X>X>X>X>X>X>X>X;X+X6 1 , 1 M G m s 6 5 - : - q q q 7 M ( U o.B.+X>X>X>X>X>X",
">X>X>X>X>X>X>X>X>X>X>X>X>X*X*XG % > o.-.X.l l.E./.>X>X>X>X>X>X>X>X>X>X>X>X>X>X>X>X>X>X>XE # : O._.XX/.B.:.! G b j b b m G ..y.C._.>X>X>X>X>X>X>X",
">X>X>X>X>X>X>X>X>X>X>X>X>X>X!.j b K K o.l...W.:X>X>X>X>X>X>X>X>X>X>X>X>X>X>X>X>X>X>X>X>X^.1 b +X*X:X:X;X;X+X/.W.T.>X>X>X>X>X>X>X>X>X>X>X>X>X>X>X",
">X>X>X>X>X>X>X>X>X>X>X>X>X>X_.A.^.U.l./.;XW.W.+X>X>X>X>X>X>X>X>X>X>X>X>X>X>X>X>X>X>X>X>X>Xh.C.>X>X>X>X>X>X>X>X>X>X>X>X>X>X>X>X>X>X>X>X>X>X>X>X>X",
">X>X>X>X>X>X>X>X>X>X>X>X>X>X>X>X>X>X>X>X>X>X+X>X>X>X>X>X>X>X>X>X>X>X>X>X>X>X>X>X>X>X>X>X>X>X>X>X>X>X>X>X>X>X>X>X>X>X>X>X>X>X>X>X>X>X>X>X>X>X>X>X"
};
