/* XPM */
static char *_588681734340[] = {
/* columns rows colors chars-per-pixel */
"90 98 91 1 ",
"  c #010101",
". c #0A0605",
"X c #0E0807",
"o c #0B0B0B",
"O c #130B09",
"+ c #1A0F0C",
"@ c #1C100D",
"# c #131313",
"$ c #1B1B1B",
"% c #231411",
"& c #291814",
"* c #301C17",
"= c #331D18",
"- c #3A211B",
"; c #242424",
": c #2B2B2B",
"> c #322C2A",
", c #3D2F2C",
"< c #34302F",
"1 c #3C312F",
"2 c #333333",
"3 c #3C3635",
"4 c #3D3937",
"5 c #3B3B3B",
"6 c #41261F",
"7 c #462821",
"8 c #4B2B24",
"9 c #442F2B",
"0 c #46302B",
"q c #4C312B",
"w c #51322C",
"e c #5A352D",
"r c #4B3935",
"t c #403D3C",
"y c #493B38",
"u c #5F3B33",
"i c #63392F",
"p c #653B31",
"a c #6B3E33",
"s c #67463E",
"d c #744236",
"f c #774439",
"g c #79463A",
"h c #7C4A3E",
"j c #434343",
"k c #4B4B4B",
"l c #514845",
"z c #545454",
"x c #565858",
"c c #5B5B5B",
"v c #636363",
"b c #6B6B6B",
"n c #747474",
"m c #777878",
"M c #7D7D7D",
"N c #824B3E",
"B c #884E40",
"V c #8E5143",
"C c #945546",
"Z c #9C5A4A",
"A c #A45D4D",
"S c #AC6251",
"D c #B26654",
"F c #B76957",
"G c #B86957",
"H c #BE6D5A",
"J c #C16F5B",
"K c #C5715E",
"L c #C9735F",
"P c #CC7560",
"I c #D07762",
"U c #D47964",
"Y c #D97C67",
"T c #DC7E68",
"R c #E3826C",
"E c #E9856E",
"W c #EB8770",
"Q c #EE8871",
"! c #7F8080",
"~ c #808080",
"^ c #8C8C8C",
"/ c #939393",
"( c #9C9C9C",
") c #A3A3A3",
"_ c #ABABAB",
"` c #B4B4B4",
"' c #BBBBBB",
"] c #C3C3C3",
"[ c #CCCCCC",
"{ c #D0D0D0",
"} c None",
/* pixels */
"}}}}}}}}}}}}}}}}}}}}}}}}}}}}}}}}}}}}}}}}}}}}}}}}}}}}}}}}}}}}}}}}}}}}}}}}}}}}}}}}}}}}}}}}}}",
"}}}}}}}}}}}}}}}}}}}}}}}}}}}}}}}}}}}}}}}}}}}}}}}}}}}}}}}}}}}}}}}}}}}}}}}}}}}}}}}}}}}}}}}}}}",
"}}}}}}}}}}}}}}}}}}}}}}}}}}}}}}}}}}}}}}}}}}}}}}}}}}}}}}}}}}}}}}}}}}}}}}}}}}}}}}}}}}}}}}}}}}",
"}}}}}}}}}}}}}}}}}}}}}}}}}}}}}}}}}}}}}}}}}}}}}}}}}}}}}}}}}}}}}}}}}}}}}}}}}}}}}}}}}}}}}}}}}}",
"}}}}}}}}}}}}}}}}}}}}}}}}}}}}}}}}}}}}}}}}}}}}}}}}}}}}}}}}}}}}}}}}}}}}}}}}}}}}}}}}}}}}}}}}}}",
"}}}}}}}}}   }}}}}}}}}}}}}}}}}}}}}}}}}}}}}}}}}}}}}}}}}}}}}}}}}}}}}}}}}}}}}}}}}}}}}}}}}}}}}}",
"}}}}}}}}      }}}}}}}}}}}}}}}}       }}}}}}}}}}}}}}}}}}}}}}}}}}}}}}}}}}}}}}}}}}}}}}}}}}}}}",
"}}}}}}}}  :$    }}}}}}}}}}}}}}}           }}}}}}}}}}}}}}}}}}}}}}}}}}}}}}}}}}}}}}}}}}}}}}}}",
"}}}}}}}   4nz:.  }}}}}}}}}}}}}}}}}           }}}}}}}}}}}}}}}}}}}}}}}}}}}}}}}}}}}}}}}}}}}}}",
"}}}}}}}  6qv~Mc;o  }}}}}}}}}}}}}}}}}  .;:o     }}}}}}}}}}}}}}}}}}}}}}}}}}}}}}}}}}}}}}}}}}}",
"}}}}}}}  gD3!~~Mc;.  }}}}}}}}}}}}}}    .5bz:o    }}}}}}}}}}}}}}}}}}}}}}}}}}}}}}}}}}}}}}}}}",
"}}}}}}}  ZEic~~~~mx;   }}}}}}}}    .o##. 2mMbj$    }}}}}}}}}}}}}}}}}}}}}}}}}}}}}}}}}}}}}}}",
"}}}}}}} .DWH1m~!~~~mk$  }}}}}   #2zvnnnbz3jM~~nz$.   }}}}}}}}}}}}}}}}}}}}}}}}}}}}}}}}}}}}}",
"}}}}}}  OHWEfk~~~~~~~mk#  }}  #2jkjjkxbm~!nM~!~~nk#    }}}}}}}}}}}}}}}}}}}}}}}}}}}}}}}}}}}",
"}}}}}}  +PWEI0b~~~~~~~~n5#    oo....  o;kn~!!~!~~~n4.   }}}}}}}}}}}}}}}}}}}}}}}}}}}}}}}}}}",
"}}}}}}  @PWWWCt!~~~~~~!!!z. #:kcvbbvvxj2;;cM~~~~~!!!c$    }}}}}}}}}}}}}}}}         }}}}}}}",
"}}}}}}  @PWEETec~~~~!~~~n;;xn!!!~~~~~~~~mbxb~~~~~~~!!!2o                             }}}}}",
"}}}}}}  OKEEEWF1m~~!~~~~xxm!!!!!~~~~~~~~~~~!~~~~~~~~!!!jo    o..oo...oooooooo#o#o.   }}}}}",
"}}}}}}  OHEEEEEgk~~~~!!!!!!!!!!!~~~~~~M~~!~~~~~~~!~!!!!!vccvcvcvvvvvvbbbbbbbbbvkyu&  }}}}}",
"}}}}}}} .DQEEEEU0b~~S~~~!!!!!!!!~~~~~~~~!!~~~~~~~~~~!!!!!!~~~~!!~!!^~~!!~~~MvlsZPP&  }}}}}",
"}}}}}}}  ZWEEEEEZ5!!!!!!!!!!!!!!~~~~~~~~!!!!!!!~~~!!!!!!~!~!!~!~!!!!!!S~~bkrhHREQC   }}}}}",
"}}}}}}}  NWEEEERRux!!!nx!!!!!!!!~~~~~~~~!!!!!!~!~!!S!!!!~~~~~~~~!!!!!!!v5qVPWWEER8  }}}}}}",
"}}}}}}}  iEEEEEEEH5n!n2b!!!!!!!!~~~~~~~~~~~~!!!^~~~~!!!!~~~~~!!~!!!!!x<wZTWEEEEEDO  }}}}}}",
"}}}}}}}  6REEEEEEWsjm:k!!!!!!!S~~~~~~~~~~~~!!!!!~!~!!!!!~~!~~~~~!!mx:5ATQWEEEEEEi  }}}}}}}",
"}}}}}}}  %PWREEEEETw;;n~~~~~~!~!~~~~~~~~!!!!!!!!~~~~~~~~~~!!~!~~Mx>wSREEEEEEEEEJ+  }}}}}}}",
"}}}}}}}  .DWEEEEEEEs c~~~~~~~~~~~~~~~~M~!!!!!!!!~~~~~~~~~~!!~~Mb:.dEEEEEEREEEEEa  }}}}}}}}",
"}}}}}}}}  NEEEEEEWSO:M~~~~!MM~~~~~~M~~~~!!!!^!!!~~~~~~~~~~~!~~b5. 7REEEEEEEEEEH+  }}}}}}}}",
"}}}}}}}}  8REEEEEU- c~M!~~^//^^~M~~~~~~~!!!!!!!!!!~~~~~~~~~~~~mm; XDEEEEEEEEERe  }}}}}}}}}",
"}}}}}}}}  @KEEEEWg ;m~^(`]]][]]`)/~~~~~~!!!!~~~~!!!!~~~~~~~~~~~~k  aEEEREEEEWSX  }}}}}}}}}",
"}}}}}}}}}  VWEEEK@ k^)][[[[[[[[[[]_^M~~~!!!!~!~!!!~~~~~~~~~~~~~~n# &YEEEREEEY-  }}}}}}}}}}",
"}}}}}}}}}  8REEEa #M'[[[[[[[[[[[[[[]/~~~!!!!~!~~~~~!~~~~~~~~~~~~M2 XFEEEEEEEf   }}}}}}}}}}",
"}}}}}}}}}  OFEEP% 4'[[[[[[[[[[[[[[[[]^M~!!!!S~~~~~~~~~~~~~~~~~~~~z  VQEEEEESO  }}}}}}}}}}}",
"}}}}}}}}}}  pEQV  m[[[[[[[]]]]]]][[[{`~~~~!~!~~!~Mnbbvcvcvbbm!~!!bo pWEEEEP&  }}}}}}}}}}}}",
"}}}}}}}}}}  +JE8 o_[]_/nxj5<;;::5kv!_]^!~!~~!mvj2;$oo     .o#2v!!m# 8REEET8  }}}}}}}}}}}}}",
"}}}}}}}}}}}  iP% ;`/k#        o .#;x)[/!!~!!~c2#       .o#$:3xn!!!; =TEWRp   }}}}}}}}}}}}}",
"}}}}}}}}}}}  OdX <`])c2;:25jzv!!(_'[[]^!!!!!~~McjjjjkzcbbmM!!~!!!!3 %IERf.  }}}}}}}}}}}}}}",
"}}}}}}}}}}}}  .  3_[[[]]]]][[[{{[[[[[`~~!^!!!!!!~~~~~~~~~~~!!~!~~~4 +LRf.  }}}}}}}}}}}}}}}",
"}}}}}}}}}}}}     t^'[[[[[[[[[[[[[[[[]/!~!!!!!!!!~~~~~~~~~~~~~~~~~~5 OFa.  }}}}}}}}}}}}}}}}",
"}}}}}}}}}}}}}    j!^'[[[[[[[[[[{[[[]/~~~!!!!!!!!~~~~~~~~~~~~~~!~!~3 .*   }}}}}}}}}}}}}}}}}",
"}}}}}}}}}}}}}}   5!M~_][[[[[[[[{[]`^~~~~!!!!!!!!~~~~~~~~!~~!~!~~!!;     }}}}}}}}}}}}}}}}}}",
"}}}}}}}}}}}}}}}  2~~!~^)]][[][['_/~~^///!!!!!!!!~~~~~~~~~!!!!!!!~m$    }}}}}}}}}}}}}}}}}}}",
"}}}}}}}}}}}}}}}  ;M~~~!!!!!((!!!~~^c2<2z(/~~!!!!~~~~~~!~!!!S!!!!~bo   }}}}}}}}}}}}}}}}}}}}",
"}}}}}}}}}}}}}}}  on~~!~!!!!!!nxxv/]z   $_`mvvvm!~~~~!~~!!!~~!!!!~k   }}}}}}}}}}}}}}}}}}}}}",
"}}}}}}}}}}}}}}}   z~~~~~!!!S!!bvcb_`v$z^Mbbccxm!~~~!~~~~!!!~!!!!m;  }}}}}}}}}}}}}}}}}}}}}}",
"}}}}}}}}}}}}}}}}  :~~~~~~~~Mbcczkc({`:)[~mxbxvbm!~~~~!~!!!!!!!!!co  }}}}}}}}}}}}}}}}}}}}}}",
"}}}}}}}}}}}}}}}}  ov~~~~~~~mvvzk;c]'z3k)(b:nbbvxcM!~~~~~!!!!!!!!;  }}}}}}}}}}}}}}}}}}}}}}}",
"}}}}}}}}}}}}}}}}}  :M~M~~~~~nkvnbkvzb'^zxx^~kzM!M!!!!~!!!!!!!!!z   }}}}}}}}}}}}}}}}}}}}}}}",
"}}}}}}}}}}}}}}}}}   k~~~~~~~mm~~(]`'[[{]'][(MvvS!!!!~!!!!!!!!!v#  }}}}}}}}}}}}}}}}}}}}}}}}",
"}}}}}}}}}}}}}}}}}}  ov~~~~~~!~~M^]{{[[[[[['^~~~~!!!!~~!~~M~~~b#   }}}}}}}}}}}}}}}}}}}}}}}}",
"}}}}}}}}}}}}}}}}}}}  #v~~~~~~~~!M(][[[[[[](~~~!~!!!!~!~~~~~~b$   }}}}}}}}}}}}}}}}}}}}}}}}}",
"}}}}}}}}}}}}}}}}}}}   #c~~M~!~!~M~/'][[['/~~~~~!~~!~~~~!~~~v#   }}}}}}}}}}}}}}}}}}}}}}}}}}",
"}}}}}}}}}}}}}}}}}}}}   okm~~~~~!~~M^/((/~~~~M~~~~!~~~!~!~mjo   }}}}}}}}}}}}}}}}}}}}}}}}}}}",
"}}}}}}}}}}}}}}}}}}}}}    ;c~~~!!~~M~~M~~~~~~!~~!~!~~~~!Mc;    }}}}}}}}}}}}}}}}}}}}}}}}}}}}",
"}}}}}}}}}}}}}}}}}}}}}}}   o2vM!!~~~~~~~~~~~~~~~~~~~~~Mv:.    }}}}}}}}}}}}}}}}}}}}}}}}}}}}}",
"}}}}}}}}}}}}}}}}}}}}}}}}    o;znM~~~~~~~~~~~!!~~~~Mbk;o      }}}}}}}}}}}}}}}}}}}}}}}}}}}}}",
"}}}}}}}}}}}}}}}}}}}}}}}}}}     O:jcnM~~~~~~~!MMbcj;O   o<j.  }}}}}}}}}}}}}}}}}}}}}}}}}}}}}",
"}}}}}}}}}}}}}}}}}}}}}}}}}}}}       o$;24tj552;$o   oo#5bM!:   }}}}}}}}}}}}}}}}}}}}}}}}}}}}",
"}}}}}}}}}}}}}}}}}}}}}}}}}}}}}}                   o$5x!!!!!bo   }}}}}}}}}}}}}}}}}}}}}}}}}}}",
"}}}}}}}}}}}}}}}}}}}}}}}}}}}}}}  .2:$#.. ..oo#$:txb!!!!!!!!~j   }}}}}}}}}}}}}}}}}}}}}}}}}}}",
"}}}}}}}}}}}}}}}}}}}}}}}}}}}}}   :Mbj2zvvcvbbnM!~!~!!!!!S~~~M2   }}}}}}}}}}}}}}}}}}}}}}}}}}",
"}}}}}}}}}}}}}}}}}}}}}}}}}}}}}  .z5#2b!!~~~~~~~~~!~~~~~~~~~~~n;   }}}}}}}}}}}}}}}}}}}}}}}}}",
"}}}}}}}}}}}}}}}}}}}}}}}}}}}}}  $;#x!mvM!!!~~~~~~!~~~~~~~~M~~Mn;   }}}}}}}}}}}}}}}}}}}}}}}}",
"}}}}}}}}}}}}}}}}}}}}}}}}}}}}   ##vmk;zM!!!~~~~~~~~~~~~~~~~~~~~n;   }}}}}}}}}}}}}}}}}}}}}}}",
"}}}}}}}}}}}}}}}}}}}}}}}}}}}}    jc$ k!!!!!!~~M~~~~~~~M~~~~~~~~Mn;   }}}}}}}}}}}}}}}}}}}}}}",
"}}}}}}}}}}}}}}}}}}}}}}}}}}}   oo<o 2M!~~~~~!v!!!!!!!!!!!!!!!!!~~n;   }}}}}}}}}}}}}}}}}}}}}",
"}}}}}}}}}}}}}}}}}}}}}}}}}}}   jkk$.v!!~!!~~vj!!!!!!!!!!!!!!!~!~!~b$   }}}}}}}}}}}}}}}}}}}}",
"}}}}}}}}}}}}}}}}}}}}}}}}}}}  #n~m$$M!~~~~~M:k!!!!!!!!!bm!!!!~~~~~~vo  }}}}}}}}}}}}}}}}}}}}",
"}}}}}}}}}}}}}}}}}}}}}}}}}}}  ;M~n#:!~~~~~~kon!!!!!!!!mjm!!!!~~~~~~~k   }}}}}}}}}}}}}}}}}}}",
"}}}}}}}}}}}}}}}}}}}}}}}}}}}  3!~m$$vbM~~~b#:M~!!~~~~!v2M!!!Mmmm!~!!M;   }}}}}}}}}}}}}}}}}}",
"}}}}}}}}}}}}}}}}}}}}}}}}}}   kMx:o .o$jbM: c~!!S~~~~!j2!nx5$##$5v!~~v.  }}}}}}}}}}}}}}}}}}",
"}}}}}}}}}}}}}}}}}}}}}}}}}}   4:        $2 :m~~~~~!~!n$jk#oo$:2:#.3m!M:   }}}}}}}}}}}}}}}}}",
"}}}}}}}}}}}}}}}}}}}}}}}}}}      .;kbx;   ov!~~~~~~~!k # #jbm!!Snx$4!~c   }}}}}}}}}}}}}}}}}",
"}}}}}}}}}}}}}}}}}}}}}}}}}}     :~'[[[`z o#m!~~~~~~~m;  2b!!!!~~~!m5v~m$  }}}}}}}}}}}}}}}}}",
"}}}}}}}}}}}}}}}}}}}}}}}}}}}   k'[[[[[[]j ox!!~!~!~!co tM~~~~~~~!!~nc~~:  }}}}}}}}}}}}}}}}}",
"}}}}}}}}}}}}}}}}}}}}}}}}}}   j][[[[[[[{/o 2!~S~!~~~: 2M~~~~~!~!!~!!m~~j   }}}}}}}}}}}}}}}}",
"}}}}}}}}}}}}}}}}}}}}}}}}}}  $_[[[][[[[['$ $!!!~~~!vo$n~~~~~~~~~!~~~!~~z   }}}}}}}}}}}}}}}}",
"}}}}}}}}}}}}}}}}}}}}}}}}}}  c[[[[[[[[[[]: #n~~~~~~2 z~~~~~~~~!!!~~~~~~c   }}}}}}}}}}}}}}}}",
"}}}}}}}}}}}}}}}}}}}}}}}}}  ./[[[[[[[[[[]: ob~~~~~vo;M~~~!~!~~~!!~~!~~~x   }}}}}}}}}}}}}}}}",
"}}}}}}}}}}}}}}}}}}}}}}}}}  $_[[[[[[[[[[`$ #n~~~~~2 z~~~~!~~~~~!~~!!!~~k   }}}}}}}}}}}}}}}}",
"}}}}}}}}}}}}}}}}}}}}}}}}}  ;'[[[[[[[[[[_# #m~~~~vo$m~~~~!!!~!~~~nM!!~~2  }}}}}}}}}}}}}}}}}",
"}}}}}}}}}}}}}}}}}}}}}}}}}  :][[[[[[[[[[^  :M~!~M2 k~~!~!~~~!~~mjk!~~~n$  }}}}}}}}}}}}}}}}}",
"}}}}}}}}}}}}}}}}}}}}}}}}}  ;'[[[[[[[[[{v  5~~~~v.$n~~~~~~!~~Mv$$b~~~~x.  }}}}}}}}}}}}}}}}}",
"}}}}}}}}}}}}}}}}}}}}}}}}}  #_[[[[[[[[[[z  z~~~M: j~~~~~~!~!b3.oc~~~!M:   }}}}}}}}}}}}}}}}}",
"}}}}}}}}}}}}}}}}}}}}}}}}}   ~[[[[[[[[['z  j~~~x #n~~~!!~~nj# .k~~~~~x.  }}}}}}}}}}}}}}}}}}",
"}}}}}}}}}}}}}}}}}}}}}}}}}}  3][[[[[[['^bo oc!m$ j~~~!~!bj#  okM~~~~b#   }}}}}}}}}}}}}}}}}}",
"}}}}}}}}}}}}}}}}}}}}}}}}}}   m{[[[[]_~!!j  o22 ovmnbck;o   #c~~~~~b$   }}}}}}}}}}}}}}}}}}}",
"}}}}}}}}}}}}}}}}}}}}}}}}}}}  $/]]'_/!!!~m3     .$##o     o5n~~~~~b$   }}}}}}}}}}}}}}}}}}}}",
"}}}}}}}}}}}}}}}}}}}}}}}}}}}   $b^~MM~~~~~Mz$.         .$tb!!~~~~x#   }}}}}}}}}}}}}}}}}}}}}",
"}}}}}}}}}}}}}}}}}}}}}}}}}}}}   #zM!!!!!~~~~mcj2;$;;25zvm~~~~~~n5o   }}}}}}}}}}}}}}}}}}}}}}",
"}}}}}}}}}}}}}}}}}}}}}}}}}}}}}   .3n!!!~!~~~~~~MMmMM~~~~~~~~~Mc$    }}}}}}}}}}}}}}}}}}}}}}}",
"}}}}}}}}}}}}}}}}}}}}}}}}}}}}}}    #jb!!!~~~~~~~~~~~~~~~~~~mz;.    }}}}}}}}}}}}}}}}}}}}}}}}",
"}}}}}}}}}}}}}}}}}}}}}}}}}}}}}}}}    #4vm~~~~~~~~~~~~~~~Mvj$      }}}}}}}}}}}}}}}}}}}}}}}}}",
"}}}}}}}}}}}}}}}}}}}}}}}}}}}}}}}}}     .$tcnnMMM~~mnnvk3$.      }}}}}}}}}}}}}}}}}}}}}}}}}}}",
"}}}}}}}}}}}}}}}}}}}}}}}}}}}}}}}}}}}      .o$;::::;$oo        }}}}}}}}}}}}}}}}}}}}}}}}}}}}}",
"}}}}}}}}}}}}}}}}}}}}}}}}}}}}}}}}}}}}}}                    }}}}}}}}}}}}}}}}}}}}}}}}}}}}}}}}",
"}}}}}}}}}}}}}}}}}}}}}}}}}}}}}}}}}}}}}}}}}}           }}}}}}}}}}}}}}}}}}}}}}}}}}}}}}}}}}}}}",
"}}}}}}}}}}}}}}}}}}}}}}}}}}}}}}}}}}}}}}}}}}}}}}}}}}}}}}}}}}}}}}}}}}}}}}}}}}}}}}}}}}}}}}}}}}",
"}}}}}}}}}}}}}}}}}}}}}}}}}}}}}}}}}}}}}}}}}}}}}}}}}}}}}}}}}}}}}}}}}}}}}}}}}}}}}}}}}}}}}}}}}}"
};
