/* XPM */
static char *_1479087fac34131a01738a0f11ce524BsA4wOQw5suWDkQd[] = {
/* columns rows colors chars-per-pixel */
"128 128 30 1 ",
"  c None",
". c #150D04",
"X c #160F08",
"o c #171007",
"O c #17110A",
"+ c #19130C",
"@ c #171612",
"# c #1A1611",
"$ c #171916",
"% c #1C1915",
"& c #171B1A",
"* c #1C1D1C",
"= c #201C17",
"- c #211E1B",
"; c #1E201F",
": c #22211E",
"> c #171F20",
", c #1B1F20",
"< c #1D2323",
"1 c #232524",
"2 c #282725",
"3 c #262827",
"4 c #292827",
"5 c #232728",
"6 c #25292A",
"7 c #2B2D2D",
"8 c #2F302F",
"9 c #2D2F30",
"0 c #2E3030",
"q c #313232",
/* pixels */
"                                                                                                                                ",
"                                                                                                                                ",
"                                                                                                                                ",
"                                                                                                                                ",
"                                                                                                                                ",
"                                                                                                                                ",
"                                                                                                                                ",
"                                                                                                                                ",
"                                                                                                                                ",
"                                                                                                                                ",
"                                                                    .......               ....                                  ",
"                                                   .................................o.o........                                 ",
"                              ..ooo...         .o..............................................                                 ",
"                             ...................................................................                                ",
"                             ................o.....o.o+++o++o+++#@%%=%%%#=*%%%+++++O++@+@++o....                                ",
"                             ...o++o...o+---:=====---::1112:21222242433743474442112212;*-1*@....                                ",
"                             ...#=--**%*11131<<<<;:133687778777422-*:;;1;1111:::1:112211111#X...                                ",
"                             ...#233-*%=%*;151511551111:11:::;%&%@+.ooOO+O++++oo+oo+++Oo#--#....                                ",
"                             ...#11-+O.O..+=:;;:;::=#@@+o++oo+$%++++ooo.oo..ooooooo.....XO##X...                                ",
"                             ...#,-+OO.O#OO+o++++++@#%&;%**;;:<<55111***@@;;%;%;&;@o..X...##X...                                ",
"                             ...+**+@&O@*1<<:*;*;;;;<6<6<5<<<<<<<6<6<5<5<<<655<<<5*o.o@O.X**....                                ",
"                             ...+&*O#,@O&<55555<1<<<<<<<<<<<<<<<<<<<<<<<<<<<<<<<<<&o+$$oX+;=....                                ",
"                             ...O&&X@,&OO,<<<<555<1<<<<<<<<<<<<<<<<<<<<<<<<<<<<<<<@+**%..#4-X...                                ",
"                             ...X&&OO&&@X$>><<575555<6<<<5<<<<<<<<<6<<555655<<512*O#**@.X=4-X...                                ",
"                             ...O&&Oo$,$OO;<56678667767776777<67766666767999888q7=+%-;++.=31X...                                ",
"                             ...O$&@.@**@.;<56677877999970779077999000000000qqqq4+@*;&+#.=3:O...                                ",
"                             ...X$*@.o#*&@O<<67777777779970000000q00qqqqqqqqqqq8=O*-1O##.*3:X...                                ",
"                             ...X$&@Xo@*;$O;55677777979990799990qqqqqqqqqqqqqqq:O@*1#@**.=42X...                                ",
"                             ....$&@o+o@;;O@:67667777779707000qqqqqqqqqqqqqqqq8:O=--+*,$.=41O...                                ",
"                             ....%&@O$oO$;$+;667777797777900qqqqqqqqqqqqqqqqqq4+#-<#@&,$.=41+...                                ",
"                             ....&&@O&+o+;;@@<670709707700qqqqqqqqqqqqqqqqqqq0;+*;:+$>,#.#21+...                                ",
"                             ....&>@O**oo%;&@;66qq000000qqqqqqqqqqqqqqqqqqqqq8+@*;+#&>5#.=21+...                                ",
"                             ....**@o*<@o+**@+1470qqqqqqqqqqqqqqqqqqqqqqqqqq0-O*;=@&>,5#X=41+...                                ",
"                             ...o**@o<<*oX***o%660qqqqqqqqqqqqqqqqqqqqqqqqqq9++*;+%<<,<#.%21+...                                ",
"                             ...o*<@O*5<&o+&-@+1760qqqqqqqqqqqqqqqqqqqqqqqqq=O*-=#,<565#.#44#...                                ",
"                             ...o*,@o<75<%o%*;+%6670qqqqqqqqqqqqqqqqqqqqqqq4O#,=#*>5591+X#44+...                                ",
"                             ...o=;@X-76<<++*,%+1470qqqqqqqqqqqqqqqqqqqqqq8=@**=#,<577,X.=22#X..                                ",
"                             ...X-1@O-765<$O%**@%367qqqqqqqqqqqqqqqqqqqqqq4+#-%+*,<777<+.#44#....                               ",
"                             ...X*1@O*975<%.+***@:67qqqqqqqqqqqqqqqqqqqqqq=#**#%<<<9771+X%44#....                               ",
"                             ....=1@O*766<*o.@**#@569qqqqqqqqqqqqqqqqqqqq4##,%+,><69741+X#76#....                               ",
"                             ...o%1$o;7776;@.+***@-670qqqqqqqqqqqqqqqqqq0-+-*O@><<97775@.#44-....                               ",
"                             ...o%1#X<77785$oo#**%@247qqqqqqqqqqqqqqqqqq7@#-#X&<<799961@.=44%X...                               ",
"                              ..o%1#X&70876<+.+*,&O-670qqqqqqqqqqqqqqqqq1+**@#><500977<@.#45%X...                               ",
"                              ...%<$.;600875*.o@-$+@567qqqqqqqqqqqqqqqqq=+*#X&<<0q09761%.=44%X...                               ",
"                              ...%1%.&770077<+.o**#.*660qqqqqqqqqqqqqqq4#%*X$<<7q00777<%.%31=....                               ",
"                              ...+1%o*7700073*..%*&+%<59qqqqqqqqqqqqqq8=@*%+&<5qq00876<%.%44*....                               ",
"                              ...+:%o&60000945@.+**@o*<6qqqqqqqqqqqqq82+**o*<<0qq087765&.%44*X...                               ",
"                              ...+1*.*67000077*+.%,*O%159qqqqqqqqqqqq4==*$+&<7qqqq78755%X#41=O...                               ",
"                              ...+1%o&3780q0975%.O**#+-159qqqqqqqqqqq:+*-+#,5qqq00077<5*o#43*O...                               ",
"                              ...+:%.$398qqq9741+X#**O%<<9qqqqqqqqqq7##-*X$19qqq00000<<*.#32*+...                               ",
"                              ...+:=X$3798qq0977-.+**++*<59qqqqqqqqq-+**#+,5qqqq007006<*.%32-+...                               ",
"                              ...+:%o$579qqqqqqq4+.%**++*,9qqqqqqqq4##*=X#,9qqqq07777<<;.#25-O...                               ",
"                              ...+:=o$5798qqqqqqq-.+**@.O,5qqqqqqqq=+=,#O&5qqqqq0777861&.%32-#...                               ",
"                              ...@:#O&579qqqqqqqq4=.#-%O.*<7qqqqqq4+#,*O%59qqqqq0770665%.%21-#...                               ",
"                              ...+:#O&5780qqqqqqqq-oX#-@.X,5qqqqqq=+%*#+,4qqqqq97788865*.=21*%...                               ",
"                              ...#1#O&568qqqqqqqqq9=.O**XX@57qqqq7+=*-+-59qqqqq97788687%o+21-%...                               ",
"                              ...+2=O*1770qqqqqqqqq=..#=+.+-4qqqq-+**%+59qqqqq977999777;O+21-%...                               ",
"                              ...+:#O&3779qqqqqqqqq2o.o=+..=48qq4@+:%+:8qqqqq9999777776;O+1:*%...                               ",
"                              ...+:=X&599qqqqqqqqqq82o.+%X.X18qq:+%*%+40qqqq99497776<<<;OO11-=...                               ",
"                              ...=1#X*399qqqqqqqqqqqq-.o##..=qq4++-:+:7899979966655<<<<<=+21;%...                               ",
"                              ...+:=X*4q9qqqqq8qqqqqq8=.X%+XX2q-o@-%+<566666565<5515,,,*O+2:-*...                               ",
"                              ...=2#X*49qqqqqq88884844=oX++.X#4+.+=+%<<<5555<,<<***&&#@#.O2:*-...                               ",
"                              ...+2#.$-21:2----=+++++++o..XX.X+.o++.%*&****%%+@+OO..o....X:;*%...                               ",
"                              ...=2=.OX.oo..o..ooo+o++ooXX.......O....ooooXX.oOOOO++OO+X..2<*@...                               ",
"                              ...+1-.@@++++@##%%%-,-----==%%%+ooXO+O++@####*####@+@#####o.-1*@...                               ",
"                              ...=1=.*-*,*-,*-,,,-*--;,-*****&#+%******----*-**-*****-*%Oo:;*#..o                               ",
"                              ...=1=.+*=**,-;;***:-,,-****&&%%&&*,-**,**,;-,,**,;*****&*OX;<,*...                               ",
"                              ...=:O.XO+#%#*$#@$#&$**&&&******&&&&&**<****,****$$$@+@O++.X-;&=...                               ",
"                              ...=-....oXXXX....XXXO@@#%$$&&&$$&#O@@$@$@@XXXXOOXoooo...o..-,,%...                               ",
"                              ...=1#.O@@#+XXOoO+XO+%&*<*@OOOo.o.X..XXXooX@@##$*-11+oO++%O.=<,%...                               ",
"                              ...=41X@&<5,,*<<<<<,,,<<<,*XO%@OO@@XXO&<;*,<<<<5356651<16<+.=;&%...                               ",
"                              ...=41O+<351<,<<<<<<,,<<<<#O#&@O++@#XX%<55<55<1555<5<5<<<<+.=;,%...                               ",
"                              ...=42OO16655<577555567<<<@O*$OO+oX*+oO<<<<<<<<<<<<<<<<<<<@.%,*#...                               ",
"                              ...=52#O-7767770009979977<o+*%+&+o$**@.%<<<<<<7<<55<556<<<+.#,&#...                               ",
"                              ...=12%X*7779900q09999777%+*-+%<%+@*-&oO*<<<65666655556<<<#o#,,%...                               ",
"                              ...=12%X=q9qqq00qqq999771++*=+*5<+O#,,%o%<<797767767977797=.#,,%...                               ",
"                              ...=24%O=9qqqqqqqq099797=o%:@#<<<<@+&-*@+*<669799777777748-.+-,*....                              ",
"                              ...=55*O#9qqqqqqqq779992++*=+:<<<6#X@**%o+<<799qq9q0007798-.+;,=....                              ",
"                              ...#24-++9qqqqqqq999704=O%*%%<<<<<,#O%;;@X<<6999qqqqqqqqqq:.+*,=....                              ",
"                              ...#54*+X9qqqqqqq997884+@*:+;<<6<<1*+O#;&++<<679qqqqqqqqqq:o+*,=....                              ",
"                              ...#24,+X7qqqqqqq787q7=+*-%+1<<66<<<*OO***X#;5499qqqqqqqqq-.O-,*....                              ",
"                              ...=24-#X7qqqqqq99778:++-:+=5<<676351;o+***O*<7499qqqqqqqq2.O=&*....                              ",
"                              ..X%14:#X4qqqq99998q4#+&*%+15<66007555-o+*,#+-59990qqqqqqq2.O&**....                              ",
"                              ...#242#.2qqqq9979qq:+#*%+=66<<60q76554#o#-*+#,6599qqqqqqq4.O%&*....                              ",
"                              ...#144%X2qqqq9799q4#+&&#+:6<6670q056565+.*-#X*55990qqqqqq4oo*&*O...                              ",
"                              ...#174-X:qqq99999q:o%;*+%365568qq077567-.@-,O+15779qqqqqq4oo%*&O...                              ",
"                              ...#244-X:9q97779q7#+&&%o:6666700q0075566+.%**O%15770qqqqq2OX#*&X...                              ",
"                              ...+:44,+=4q7779q9:o$;&+#36687000q0076637:o+*-@+*3679qqqqq:O.*,&X...                              ",
"                              ..X+144:+=9qqqqqq4++&*$X*65779qqqqqq076667@.#;*+@;5699qqqq1..#,&O...                              ",
"                              ...+:472++4qqqqqq1X#**+@266699qqqqqq0766<7:oo*-*O#27690qqq2+.%,&+...                              ",
"                              ...X-744#=4qqqqq4+@**&+*6679q9qqqqqq0066664+.#*;@X%6799qqq4+X%&&X...                              ",
"                              ..XX-744##4qqqqq-+#,*#+:4777qqqqqqq00077757:o+=,-+o*6699qq4+o&,&@...                              ",
"                              O..+-451##2qqqq4=+***@%567779qqqqqqqqq005557%.#-**+@1470qq7+O**&+...                              ",
"                              ...X%22-#+4qqqq-+=,,#+-76799qqqqqqqqqq0077571oo%1*%+%3779q7+O=&*@....                             ",
"                              ..XX%:21+=4qqq4+=-&,+@5479q9qqqqqqqqqq0000767;.+:***+=369q7+o=,,@....                             ",
"                              ...X%122++4qqq-+--**O*7999qqqqqqqqqqqq00008806#.=--*#O-15q8+o=,&#X...                             ",
"                              ...X#:61#+7qq2+=:,*X+47799qqqqqqqqqqqqqqqqq8991XX=*,*#+*590=O*,,&X...                             ",
"                              ...X#:5:#+7q4=#1*,%X-7799qqqqqqqqqqqqqqqqqqq999=.+*:*-+#4q0-O*&,$X...                             ",
"                              ...X%151#+8q2+-,&*##7779qqqqqqqqqqqqqqqqqqqq8q84=.#-**=+=89=X*,,&X...                             ",
"                              ..XX#:21#+88##:,*%X19779qqqqqqqqqqqqqqqqqqqqqq884X.+*,-#+20=XX*,>+...                             ",
"                               ..X#,21#+2=.::**+%7977qqqqqqqqqqqqqqqqqqqqqqqqq7-.X%*,%##4=..$,*@...                             ",
"                               ..X#:11#+2#=2-*%X1979qqqqqqqqqqqqqqqqqqqqqqqqqqq7#.X=-*%X==..*,*@....                            ",
"                               ..X%:1:#X=+2-,&X%99799qqqqqqqqqqqqqqqqqqqqqqqqqqq2XX#-,*#X+..@,,$....                            ",
"                              ...X%:1:#.o=2-*%X2q999qqqqqqqqqqqqqqqqqqqqqqqqqqqqq1.X=,-=X...*,&&....                            ",
"                              ....#,1*#XO;,*=+=9qqqqqqqqqqqqqqqqqqqqqqqqqqqqqqqqqq=.X--:#X..#,*$....                            ",
"                              ....%,,=XX#,*,*O-9qqqqqqqqqqqqqqqqqqqqqqqqqqqqqqqqqq9+.+:*-@X.#-,&o...                            ",
"                              ....&::*X.%;&*##9qq8qqqqqqqqqqqqqqqqqqqqqqqqqqqqqqqqq2X.#*-#..#-,*o...                            ",
"                              ..XX#:2*X.=**&+=37999999qqqqqqqqqqqqqqqqqqqqqqqqqqqqq:#X.-**X.+,,*@...                            ",
"                              ....+-:#XX*;,@O%=--21:1122222211211111444449979q99qq95-+XX**+.O*,*+...                            ",
"                              ....#*-+OO%%#Xo=%##=+=#+#++O+O+XO+++++==#%-*-51,,1111<:*XX***OX#*>@...                            ",
"                              ....#*-*+...X.O+++XOXX++++####%###=#+#+OO+O#OXXXXXXX@++#+X+@@OX@*&@...                            ",
"                              ...X#,-,*+#=.#-112112211:121121221214515-*%%####$###++O++#@@@@@**<#...                            ",
"                              ....+-*,***#@-2463313333233531352225111-,-*-=*--::--*-***,--,*****#...                            ",
"                              ....+@%*-1-O#--**%***%&%&%%%*****=--:--=********%,*%*%%%##*###++O+....                            ",
"                              ......O+#=+oO..........o..XXOOOOo++O+++++o.XXOXXXX..........X.........                            ",
"                              ....................................XX...........X....................                            ",
"                              ......................................................................                            ",
"                              ......................oo....OO+oooXXo+o...............................                            ",
"                              ..........                     :::-2===+++oO+.           ....     ...                             ",
"                                .....                                                                                           ",
"                                                                                                                                ",
"                                                                                                                                ",
"                                                                                                                                ",
"                                                                                                                                ",
"                                                                                                                                ",
"                                                                                                                                ",
"                                                                                                                                ",
"                                                                                                                                "
};
