/* XPM */
static char *b83193d737324294d5e23ab117cbd2efKe26VYch77cnRJ6V[] = {
/* columns rows colors chars-per-pixel */
"64 64 14 1 ",
"  c None",
". c gray5",
"X c #181818",
"o c #222222",
"O c #2D2D2D",
"+ c gray25",
"@ c #6F6F6F",
"# c gray58",
"$ c gray62",
"% c #C1C1C1",
"& c gray80",
"* c gray85",
"= c #ECECEC",
"- c white",
/* pixels */
"                                                                ",
"                                                                ",
"                                                                ",
"                                                                ",
"                                                                ",
"                                                                ",
"                                                                ",
"                                                                ",
"                                                                ",
"                                                                ",
"                          ++++++                                ",
"                         +@&%%%@+                               ",
"                   ..   +@&*&%%%@+                              ",
"                  .... +@%%&*&%%%+                              ",
"                 XXoo.+@%%%%&*&%%+                              ",
"                XXoo++@#$%%%%&*&%+                              ",
"                XXo+@%%%#$%%%%&*&+                              ",
"                 XX+&%%%%#$%%%%&@+                              ",
"      +++++++++++++@*&%%%%#$%%%@+                               ",
"     +@*********&&&$#*&%%%%#$%@+                                ",
"    +@*****&&&&&%%%%$#*&%%%%#@+                                 ",
"    +-*&&&&%%%%%%%%%%$#*&%%%@+                                  ",
"    +-=%%%%%%%%%%%%%%%$#*&%%+..                                 ",
"    +--=%%%%%%%%%%%%%%%$#*&@+o..                                ",
"    +---=%%%%%%%%%%%%%%%$@++ooo..                               ",
"    +@---=%%%%%%%%%%%%%%&+Xooooo..                              ",
"     +@---=%%%%%%%%%%%%%&+XXooooo..                             ",
"      +@---=%%%%%%%%%%%%&+ XXoooOO..                            ",
"       +@---=%%%%%%%%%%&*+  XXoOOOO..                           ",
"        +@---=%%%%%%%%%&*+   XXOOOOO..                          ",
"         +@---=%%%%%%%%&*+    XXOOOOO..                         ",
"          +@---=%%%%%%%&*+     XXOOOOo..                        ",
"           +@---=%%%%%%&*+      XXOOooo..                       ",
"            +@---=%%%%&**+       XXooooo..                      ",
"             +@---=%%%&**+        XXooooo..                     ",
"              +@---=%%&**+         XXooooo..                    ",
"               +@---=%&**+          XXoooOO..                   ",
"                +@---=**@+           XXoOOOO..                  ",
"                 +@----@+             XXOOOOo..                 ",
"                  ++++++               XXOOooo..                ",
"                                        XXooooo..               ",
"                                         XXooooo..              ",
"                                          XXooooo..             ",
"                                           XXooooo..            ",
"                                            XXoooOO..           ",
"                                             XXoOOOO..          ",
"                                              XXOOOOO..         ",
"                                               XXOOOOO..        ",
"                                                XXOOOOO..       ",
"                                                 XXOOOOo..      ",
"                                                  XXOOooo..     ",
"                                                   XXooooo..    ",
"                                                    XXoooo..    ",
"                                                     XXooX.     ",
"                                                      XXXX      ",
"                                                       XX       ",
"                                                                ",
"                                                                ",
"                                                                ",
"                                                                ",
"                                                                ",
"                                                                ",
"                                                                ",
"                                                                "
};
