/* XPM */
static char *ce1c310dc7544e31bb1bf8631f9a94576qc4rO2Nzo08iR9T[] = {
/* columns rows colors chars-per-pixel */
"128 128 14 1 ",
"  c #010100",
". c #0B0602",
"X c #0E0802",
"o c #140A03",
"O c #1B0E04",
"+ c #1E1005",
"@ c #200F04",
"# c #231205",
"$ c #291707",
"% c #2B1807",
"& c #271708",
"* c #291708",
"= c #2D1A08",
"- c #321E0A",
/* pixels */
"  .#%%%---=%%%--%-%%-==---*O   o=-=--==-------=-----=---=+&#++.  .##%$=%==-=----------------#O. o#%%=%$%------------------=&&.  ",
"  o#%%%---=%%%=-%-%%-==--=#O.  o==-=-=------=+.o&------==++&+#o  .O#%$%==-=-----------------%O  o##%==%%------------------==&.  ",
"  .#%%%---=%%%--=%=---==--*O   o=-=-===-----%.  +---=---%+##+OO  .##%%===-------------------%O  O##%==*=-------------------=&.  ",
"  .#%%%----%%%--------==--*O.  o=-====------&   O--===-=%+##@#O. .@#%=%====-----------------#O  +&&%==*=-------------------=#.  ",
"  X#%%=----%%%--------==-=&O   o-==-=*=-----&.  &--==&=&##O#O#O. o##%%==%--=---------------%#O  O$&%==&=--------=---------=%&.  ",
"  X#%%=---=%=%=-------==--*O.  o==-==%=-----=OoO*==&+&&&%@OO@OO. .O#%%====-----------------=#O  +$#%=%*=--------=---------=$#.  ",
"  .#%%=---=%%%=--------%--*O.  o=-=-*&=--=$$$$&&**%++&&&%OO+O#O. .##%%=====-=--------------=@O. +&&%=**=------------------=$&.  ",
"  .#%==---=%%%---------==-&o.  O*-==**==-$$$$$$$%%&+++&&#OoOO@O. o@#%%=-=-------------------#O  +%&%====------------------%$&.  ",
"  .#%%----%%%%--------=&--*O.  o$=-=$%=-==&&%%%#%&&#+###OOOOoo.  oO#$=--==----=-----------==#o  +*&%==%==-----------------=$#X  ",
"  .#%%-----%%%=-------==--=O   o&%%$&%$&%####&##&&##OOO##OOOo.   o@@$==-=-=-==-%---------=-%#o. +%&%==%=------------------=%#.  ",
"  .#%$----%%%%--------==--*O   ..O+o......... .  .....oooX.      o##$=-==---=-%-----------==@O  O=#===%%------------------%%#.  ",
"  .+%%-----%%%--------&=--*O.    .                               o@##=-==-=--%-=-=%=------=%OO. o%#=====------------------=$#.  ",
"  .O%=----------------&=--=O.                                    o@#$%-==---=-=====%------==@O. o=#%===-------------------=$#.  ",
"  .#%%----------------*=--=+                                     o@O$%-%--=-=-=-==%=------==#O. o=&=====------------------=$+   ",
"  .+%=----------------*=--=O    .    ..  .   ..           .      o#@#--%-%=-==-===%=------==#O. +=*===--=-----------------=$+   ",
"  .#%=----------------**--=O.  XOOOOO+#+OOOOOooOOO++#&++OooOo    o#@#-=---=----===%%------==#O. +**=====------------------=*+   ",
"  .#*-----------------&---=+   o+###%#####@##$#$########@@#+o    o@#%-----=--=-===%%------==@@..#%$===--------------------=%O   ",
"  .+*-----------------&&--=+.  o##=%%%%##%%%%%%%=%$$$##O@#O+o.   oO#=----=--=-=-=%%=------==#@. +=%==---------------------==O.  ",
"  .&*-----------------&---&+.  +&%%%%%%%%%%=-%--=$=%%$&&####o.   oO#=----------==%%=-------=#@..#%%===----------------------O   ",
"  .&*-------------=--==&---+.  +=%%====---=-------==%Ooo#=##o    o##---------=-=-%%=------=%#@..#%%===----------------------o   ",
"  .#--------------=---&=---+   &&===----------------&   #%%#o    o@#----------=-=%%=-----=-%#O..#%%=----------------------=#o   ",
"   &--------------=---&---=+   +==&=----------------+  .+%%#o    o@%--------==-=-%%=------=%##..#%==--------------------=-%%o.  ",
"  .#-------------==--==----+   +==&-=++=------------&..o#-=%o    o#%------------%%=-------=%##..&%==--------------------=-=#o   ",
"  .&-------------&---=&---=+. .&=&=&O  +-------------&+%---%X   .o@=--------=-=--%--------=%#O.X%%=---------------------===#o   ",
"  .O$-----------==--------=&  X&--=&.  +-------------------=X    o#%-----------=%%%--------%##.X%%=--==------------------==$O   ",
"  .O%-----------==--------*&  o=--===#+=-------------------=.    o#%-------------%%=------%$#O.o%%===---------------------=$o   ",
"  .O#-----------=&--------=+  O=---------------------------%.   .o#%------------====------%$#+.o%==-=---------------------%#o   ",
"  .O%------------&--------&+  +&---------------------------%.    O@%-------------=%=------%$#O.o=%%=---------------------=%$o   ",
"  .O%------------=--------&+  &&---------------------------=.    o#%-------------%==-----=%$#@.o==%-----------------------=#O   ",
"  .O#---------------------&+  +=---------------------------=    .o@=-------------%%=------%$#@.+%%=-=---------------------=%o   ",
"  .O=---------------------&O  #=---------------------------=     O#=------------====-----=%##+.+==%=---------------------=%#o   ",
"  .@---------------------=#O  +=---------------------------#     oO%-------------%%%------%$%#.+&%%%-----------------------%O   ",
"  .+=---------------------+o .+%%---------------------------    .O@%-------------=%=------%#&+.O&%%%------------------------O   ",
"  .#=--------------------=&O .#%=---------------------------     O#%----------==-=%%-----=%%&+ O&%%%------------------------O.  ",
"  .#=--------------------=&O .&==---------------------------     o#%----------====%=-----=%&%+.o&%%%------------------------O   ",
"  o#=--------------------=%O .#*=---------------------------     O#=-------------==%------%&&O O&%%&=-----------------------O   ",
"  o&=---------------==----*+ .+==--------------------------=     o#%-------------====----=%#%o.o&&%%=---=-----=------------%O.  ",
"  O$=-=-------------=*----=+  o%-------=-------------------%     o#%------------===%-----=%%%o o&%%&-=-------=$%----------==O   ",
"  O%=--=------------=*=--==o  o&=----=-=-------------------$     o@%---=---------=%%-----=%$%X o&%=&==--=---=$%%----------==o.  ",
"  .#=--=------------**=---=O  o%=---------------------------.   .o#%------------==%=-----==#%+.X&%&&==--=----$#%----------=%O.  ",
"  X%-------=--------=$=---=o  o$=----------===------------=#.    O#%---=---------=%=-----%$$$# X&%%%==--==--=%%%----------=%O.  ",
"  X&=-----=-=-------$&==--=O  o%=----=----==&%------------=#.   .o@%------------==%=-----=$$$O .+%%=-=--=---=%%#---------=%$@.  ",
"  X%------=--------==&$--==o  o#=----=---==&%*=-----------=#.    o#%---=---------=%------==$%+  &=%==-=-----=%&%----------%$O.  ",
"  X&=----=----------=&$=--=O  o%=-------=-=&==-------------#o    O#%---=--------====------$$$O .+=%%==--=----%%&=--------=%%O.  ",
"  X%--------=------==&&=--%O  .#=------==-%$==-------------#o   .O#%--==---------=--------%%%O  +%%=-=--=----=%%%---------=##.  ",
"  X%=----==-=-------=*&=-==O  .#=---=---==%%==------------=%O.   o#=-=&=--------==-------=%%%+  O%%==----=---=%&$=------==%%O.  ",
"  X%---=&=-=-------==*&=-=%o. .O*-------==%%==-------------#+.   O#%-=&=---------=-------==%#+  o&%%==---=---=&&#--------%#%O.  ",
"  .%--==&==-------=%=&%=-=%o  .O&-------==$%==------------=$O.   O#%-=#=---------=--------%%#+  X&&%=----=---==&#=-------%%%#.  ",
"  .%=--$%%==-----=%%%#$=-%$X   O&=------==$===-------------%O.  .O+%-*&=--------------------#+  .&&%=----==---%%#=--------%##.  ",
"  .#$===%%=-=---==%%%%&$=%@o  .O&=------==#===------------=$O.  .O#%-=&=-------------------=&+  .#&%=-----=--=%##=-------%%%Oo  ",
"  .#%%=%%%=----=%%%%$&#$%%@o  .O#-------==$%==------------=##.  .O+%-=&=-------------------%$O  .O#%-=-------==%#=------=%%##o. ",
"  .#%%%%%%---=%%%%%=%##$%##O   o#=------==#$=-------------=&%.  .O+%=%&%-------------------=%O  .#&%=-----=---%%#===-----%%#OO. ",
"  .##%%%%%=-====%%=%$#####Oo   O#=------==#==-------------=%&X   o@$--&%-------------------=%O  .##%-=-------=%#@===----==%%#O. ",
"  o@##$%%%=-=%%=%%$##@@##@#o  .O#-------=$$=--------------=$&X   .O$-=&%-------------------=&+  .oO%=---------%%#==-----==%#@O. ",
"  o@@@@##$%%%###$#@#@#@##@#o   o#=------=$$==-----------==$$#o    +&--&$-------------------=$O  . .%-=-----=-=%%@==-----==%##OX ",
"  oO##@@O@##@#OOOOOOooooooo.  .o#=------=$$%=------------$&&&o   .+&--$$--------==---------=%O    .%=-------==%##=-------=%#@O. ",
"  oOOoo.XXXX.....              O#$=------%%=----------------&o   .##=-=*--------=%%*---==--=&+.   .&=--------=%%&------====##O. ",
"  ....                        .o#$%-------*%==--------------&o   .@#==%&--------=%$%---=---=%+. . .$=-------==%&#------===##OO  ",
"                              .O#%=------%#%-------------=-=&o   .#O&=%%--------=%&%---==--%#%.   .&=-=-----=%%%#------==%##+o  ",
"                   . .        .O@%%------=*%=-----------==%=&X   .+#%=%&--------=%&%---=---%%&.   .&-=-----=-=%%&-------==###o  ",
"         .....XooOOOOOOOooo.   .O$=------=*$=-----------====@.   X##%==%--------=%&%--==---=%#X  .O$==-----%=====------===#OOo  ",
"  oOOOOOOOOO+@#O@+@@@@@#@OOO.   X$=-------*===----------====@.   .#+%===--------==#=--=----=%#X  .O#%-%----%-====-------==##@O  ",
"  OO@O##OO#@#O#####@#@@O#@@Oo.  X*%-------=%==----------====+    o##==----------=%&%--==---%&%.  .O@$-----=%===----------%#@+O  ",
"  o#@#@@#####@@@O#%%%%##O#@#O.  X*=-------====----------====O.   o+#==----------=%#=--=----=$$o ..O#%%%%=-=#--=====----==%##@O  ",
"  o@@#+##&&&&&+&#%*==*#OOO@@O   X&--------==&-----------===%O    ++#=----%------=%#=--=----=#%+ ..O#%&.X&==&%-=======--==%#@#+  ",
"  o@@O#&$&#&===-&*=-=+   O@##   .&---------=&=----------===%O    O##%==--=-----==$%=--=----=&%+.  o#&X  o==&==-=-==-===%%%#@OO  ",
"  o@OO+$$#&==---*=--=.   o#@O    +---------==-----------=--%o    +##==---=-----==%#---==----&$+.. o#&X  o$=%=======$===%#%@##O  ",
"  oOo..O&%&=----=---*    o##O.   +---------===----------====o    &##%%---$------=%%=--==----%%#. .o#&O..@%%#$==%=%%#%%%$%#@@Oo  ",
"  oO.   +#&=--------=.   O$&O    +=---------&-----------=-=&o    ###==---==----==%#=---=----$$&X  o#&$#&%%####%%%####%$$%#@##O  ",
"  oo    O%&---------=X   +$&#    +=--------=&-=---------====o    &#$===--===----=%#---=%----$$#. .oO#$$$%##@#@@##@O###$$#@#OOO  ",
"  oO.  .&=%=---------&...$$$#    O=--------==-----------==-&o.   &##%=--===----==%&=---=----$$&.  oO#$$$%%#OO#O#@@@@@##@#OO##o  ",
"  oOooo+==%-----------=*=-$=#    +=--------=&&----------=-=%o    &##==---=-----==%&----=----%$%.  ooOOOOOOOOoOOoOOOOOOOOOOOOOo  ",
"  o#O#%--&=--------------=$=#    +=--------====---------==-=o    $#$$=----------=%#=--==---=$$&X             . . ........ . .   ",
"  .##%%=-&=---------------=$&    +=---------==----------=-=&O    $#$%$----------=%#---==----%$&X                                ",
"  o@#%%-=&----------------=%#    O=---------==----------=-=%O    $#%%=---------==$%---=-----%$&o  X... ..      .                ",
"  oO#%%===----------------%%#    O%--------=&==---------==-%O    $#%%=-----------==---------%$$X  o#OOOOoOOOOOooooXXoooX.....   ",
"  X##%%%---------------=--%%+    O=--------=------------===%O    &#$%=----------------=-----$$%X  o@#@O##O@#@@@@O@#O@@#OOOOOo.  ",
"  o@#%#%--------------==-==%+.   O%---------------------%--%+    &#%%=-----------------=----%$&o  oO#@#O@#@######@O##@O###O#Oo  ",
"  oO##&=--------------&=--=$O.   O---------=------------%--%&    #$$=------------------=----$%&o  o#OO@O+%%%%####@#@#O@@@@@@O.  ",
"  o###$-----------===-&=--=#o.   #----------=-----------%-==#   .#&$------------------------$&&o  o@@#O .#==%%%##O#@O#@#####O.  ",
"  oO+#%-----------$%=-*=-=*#o.  .&%---------==--------------$    &#%%=----------------------$$*o. X##Oo .O-%%$$$########%###O.  ",
"  o#+#=----------=$%%=*=--$#o.  .#==--------==--------------#   .#&$%=---------------------=$$&O  .O@&+  O%%----=-=%##%%%%$$o   ",
"  o#+#=----------=%%%%$=--$OO.  .#%---------%=----------=--=&.   +&$%=----------------------$*$+. .@@$=#O%=---------%#%%%%%$o   ",
"  oO+&=----------%%%%-&=--$OO.   #$---------%=----------=-==#.  .O#=%==-----------------=--=$$%+. .O@$====%---------=%=-=%%%O   ",
"  oO##=----------$$%%-&=--$OO.  .#$---------==----------&--&&.  .@$%%=------------------=--=%$&+  .O#====-------==--%=----=$+   ",
"  O@+#-----------$$===&=--$OO.  .+$--------=%=----------&-==#.  X$@%%=---------------------=$$&+  .#$=--------====--%=----=$+   ",
"  OO+#-----------#&%==&=--$OO.   @$=-------===----------=-=&&   o#**%%------------------=--=$$%O. X%===--------%==-=%-----=%+   ",
"  o#+#=----------#+%=-&=--$OO.   #$--------===----------=--&%.  O#*%%%=--------------------*$%$+  X%=-=---------======-----$+.  ",
"  OO+&-----------#@#=-#---%+O.  .+&--------===----------%--%#.  X#*%==---------------------*$$$O. o#--=---------=====-----=%#.  ",
"  O+#%=----------#@#--&---#OO.   +#=-------===----------=-=%%.  o*%%===-----------o=----=-=$$$&o  o$==-=--------%==-=------=#.  ",
"  o##%----------=###=-#=--#+O.  .O#=--------==----------=-=%#.  X$%===---------%.  X=---=-=$$$#.  o#===---------%%*==------$#.  ",
"  O+#&=---------=%@#--%---%OO.  .+&--------==-----------*-=$%X  X*%====--------%   .*----=$$$$#.  O#=-==--------%%%==------=#.  ",
"  O##%----------=###--%---%OO.  .O#%-------==----------==--%#.  .$%-%-=---------.  o=--%$&$$%$O   O#===--------=$$===------$%.  ",
"  OO%-----------$%@%-=$---%@O.  .O#%------====---------==-=$%.  .@%==%=---------&oo&-=*$&$$$$&O. .O#=-==-------$$%$-=------$&o  ",
"  O+------------%##=-==---%OO.  .O#%------====---------*--=*%.  .@$%%-%=--------==--=**&&$$$##o  .O#===--------$=$=-==----=%%o  ",
"  O@------------=##=-==---%OO.  .O#%------==-----------*--==#.  .@$%=%=---------===****%&$$##@o  .@#====-------=$$==-=-----%#o  ",
"  OO#%-----------##-------$OO.. .@#%------==---------------%#.  .+%%%%%$$$=====%%$$$%%%%#%#@#Oo  .O#=-=--------%%%%-=*-----$$o  ",
"  OO#=----------=%@--=----$OO.  .O@%-------=--------------=%#.  .##=%%%$%$=%=%$$$$%%%%######@+o  .O&====-------%%%=--*-----$$O  ",
"  O##=----------%##--=----*@o.  X@@%------==--------------%%#.. X###+##&$$$&#+&####$######O@O#X  .##====--------%%=--*=----$$o  ",
"  OO#=----------=$#=------#@O.  oO@#-------------------=--=%#.  .++##&&&#Ooo    ....XXooOOoXo..  .O#====--------%%---==----$%O  ",
"  OO#%---------=%%*--%----%OO.  X@@%------==-----------=--=%+.  .###+Ooo..                       X@$==-=------=%%%---%%---=%$O  ",
" .O##==--------=%%%-------%@o.  o###-------=----------=---=%#.   XoX..                           o@#====-------%%%---%%----&$O  ",
"  OO#=---------=%%%--=----%Oo.  o@@%-------------------=--=#O.    .                              X@#%--=------==%%---%%----%$O  ",
" .O##==--------=-%%-%-----#Oo.  oO#=-------=--------------=%@o   .XoooO+++oooX.......Xooooooo.   X@#=%%-------=%%%--=%%---=$$O  ",
" .o#&=---------=%%=-------##o   o@@#-----------------------%#o   .@@##%%%==**#$#####$%$%$#@@@o   X##====-------%%%---==---=%%+  ",
"  OO#==-=------==%=------=#OO.  O@@%----------------------=#@o   .O@@#%===%=%%*%%=%%===$%%%$@O.  X##===--------%%==--&&---=%%O  ",
" .O@#-=--------=%%=-------@@o.  OO#%----------------------=##o   .+#@#%%=%%=====%====%==%%%%#Oo .X#%%===------=%%%---&=----%%O  ",
"  O@#=--=------==%=-------#Oo   o#O%--=-------------------=#Oo   .#O@#%=-======---=---==%%%%%@o  o##%==-=-----=%%%=-=&=----%%O  ",
"  OO%=---------=%%-=-----=#OX   o##=----------------------=##o   .O#@#====--=-=----------==%%#o  X#&===-==-----$%%--=&=---=&&o  ",
" .O@%====------==%-==-----#@o   o#@=--=-------------------=#+o   .#@#%-=-====$$=----------=%%#o  o#&=====------%=%=-=&----=%%O  ",
" .o#%-=--------=$===------#+o   o#+%----------------------=&+o   .#@@%=--=-=$$$$$##$------=%%#o  o##%==-%------%%=--**----=%%O  ",
"  OO#----------=%===-----=#+.  .O++&----------------------=#+.   .@@#%==%---$$%#O .X%------%%#o  o#&==-==------%=*=-%=----=&%O  ",
" .O@$===-------=%=-%------#@o  .OO##---=------------------=##.   .#O#=-%---=%%%O    #------=%#o  o*#*-==------=%%&=-&=----=%%o  ",
"  O@#%%%-------=%===------#@.   O@O$---=---------------=--=%+.   .O##%%-%--=%%%O    +------=%#o  o#&=====-----=%$$=-&=----=%%O  ",
"  O@&$$%-------===-=-----=#@.  .O@@%--==--=---------------=##.   .#@#%%---==%%%@.  .#------%%$o  o#$=====-----=%$$=-*-----==%o  ",
"  O##%$$--------===-------#O.   O@@#---=--=---------------=##.   .#@$%%=-=-%%%$$. .O%------=%#X  o&$==-*=-----==$%==*-----==%+  ",
"  OO#=#=--------==-------=#@o  .O#O%--==---------------==-%$#.   .#@#====-==%%%%@OO@-------%%#X  o&&===*=-----=%$$-=$-----%%%o  ",
"  o##%%$--------===-------#@.  .O+##--=-------------=-----%&#.   XO#%%$%=--=%%%%$$O#-------==#X  o#&===%------$$&$-=%=----=%&o  ",
"  o#%%#=--------===-------#O.  .O#+&--=-----------------=-%$#.   X#@#%=%%=--===%-----------=%#X  O$$==*%------=$&=-=%-----=%&o  ",
"  o@#%%---------%=-------=#O.  .O+#&--=-------------=-----$%#.   .@@#==%%---====-----------=%$.  o#*==*%------=$#=-=*-----%$$o  ",
"  o@#%#=--------===-------#O.  .+##%--=------------------=%%@X   X@@#==#==-----------------==#. .o%$%=%$------%$=---------=$$.  ",
"  X#%%%=--------===-------@O.  .+#%=--=------------------=%#@o   X@@$=*$=-=---------------==$#.  O#$===$------%$$---------=%$o  ",
"  o@#%#=--------%=-=-----=#O.  .+%&=--=-------------------=#@o   X@@$=*$=-=----------------==#. .+&$==$$------=$$=--------=$$o  ",
"  .#%%==--------==--------#O.  o#&=--=------------------=-%#@o   .@@**$$=------------------=$#   +&$==$%------$$$=--------=$$.  ",
"  .#%%%=--------====------#O   .&&-=----------------=---==%##o   X##%====-=-----------------%#  .@%$=%$$-----=%$#---------=%$o  ",
"  X#%%%=--------=====%=---#o.  o&==---------------------=&##@O   .O#%%**==-----------------=$#. .##$==&%-----=%&$=--------%$$.  ",
"  X#%%%----=----=-==-%%---#O.  o&------------------==---=&###O.  X@#%=%%-=----------------==$#. .#&$==&%------$$$=--------%%$.  ",
"  .@%%$=---===--====-==---#o.  o------------------------=+##@O.  .@#%=%%=------------------=$O  o#&%=*%*------%$$---------=%$.  "
};
