/* XPM */
static char *ff6ab72a5cb74662bac92f33d0b12e9bh8CdxNLk0AWMPqiq[] = {
/* columns rows colors chars-per-pixel */
"128 128 37 1 ",
"  c #040302",
". c #090705",
"X c #0B0906",
"o c #0E0B08",
"O c #120E0A",
"+ c #15110D",
"@ c #1A140E",
"# c #1B1610",
"$ c #1E1912",
"% c #201710",
"& c #231C14",
"* c #291E15",
"= c #261F19",
"- c #262017",
"; c #2B2017",
": c #272119",
"> c #2C231A",
", c #2D291E",
"< c #32261B",
"1 c #33291E",
"2 c #392B1E",
"3 c #2D2721",
"4 c #2F2B21",
"5 c #352D21",
"6 c #3A2E21",
"7 c #353124",
"8 c #3C3325",
"9 c #402F21",
"0 c #423627",
"q c #493626",
"w c #4C3827",
"e c #453728",
"r c #4A3728",
"t c #463828",
"y c #4C3A29",
"u c #553E2C",
"i c #57402F",
/* pixels */
"X  ..XXXXXXXoOOOOOoOooooooXXoXXXoo.XXooOO++@@%&**;;<<<<<,<<<<2112<<2<<<;<;>>><><>><>;-&$$#@@OoX.XXXXoXOO%%@@@OOXXoooO++@@@%%OOOO",
".  O%#@%%$@@+OOOOOOOO++O+O++++++++++++++OOOOooX.....XXooooooXoXoXXXXXXXXXXX.XXXXooXX....XXXXO@%*;;;>>1<<***%&*;*;;%%@@+OOXXXXXXO",
"OXo<6><580862111,11,1111111111266666566622<<>;*&$$$#@@@@@+@@+O+++O@@++@@@@@+@@+++++##$&&--;>>58800t0qiiwuwuuwwuuuuww992222<<:=**",
"OO@2$o#$,8888888808880808080000000000000000000880898622255566661722266869q9q999986688000000000qwiqiiiqiiuuuuuuuuuuuuuwqqwuuu8662",
"OO<*@%=#+5eewyyuwweeeweetteeteeet0t0t0tt0qwwi8wtwqwwqqqiwyyyyywuuwuwuuuuuuuuiiuuuuywtwwwt0t00qiwwuwuiiwiuuuuuuuuuuuu9*%%*quue877",
"##2@%::3+2yuuuuuuuuuyuyuiwiwiyyuuuwiyuyuiiwwiiuuiiiuiiiiuuuuuuuuuiuiuuuuuuuuiiuiuiuuiyiyiwwqiiwiiuiuwiiwuuuiuuuuuuw<OX@##*0u8768",
"@%5O=::7O>euuuuuuuuuuuiuuiuuuuiiuuuuiuuuiiwiwuuuuuuuiiiwuuuiuuuuuuuuuuiuuiiuuuuuuuuuyiuuiiuuiwiiuuuuuuiuuiiuiuuuuuw@O**==>5e8776",
"@%6##=33O,0uuuuuuuuuuuuuuuuuiuuuuuuuuuuuwiiuiiuuuuuiwwiiuuuuuuuuuuuuuuuuuuuuuuuuuuuuuuuuuuuuiiiwuuuuuuuuuuuuuuuuuu9o@;**=7ee8776",
"@&0>++$+#6euuuiuuuuuuuuuuuuuuuiuuuuuuuuiuiuuuuuuuuuuuuuuuuuuuuiuuuuuuuuuuuiiwuuuiyiuuuuuuuwiiiwiuuuuuuuuuuiuuuuuuu6X+=:===ee8775",
"@%083$#<800uuuuuuuuuuuuiuuuuuuuuuuuuuuuuuuuuuuuuiuuuuiuuuuuuuiuuuuuiiuuuuuwiiuuiwiyiuuuiuiiiwwiiuuuuuiuuuuuuuuuuuu9#X+#%&&5ee777",
"+%00856e00ruuuuuuuiuuuwiuuuuuuuuuuuuuuuuuuuuuuuuuuuuuuuuuuuuyyuiuuuyyuyuwiiiwiwwwiwyyyiywwqtwiwiyywwyywuuuuuuuuuuy05%O+##&5e0776",
"+%8088e80eyuuuuuuuuuuuiwuuiuuuuuuuiuuuuuuuuuuuuuuuuuuuuuuuuuwtyyyyyyywyywq0wqqiwiwyiyytwtyittqwqwttiwuiuuuuuuuuuuree6:$$&3800775",
"@#000eeyyuuuuuuuuuuuiiwiiiiiiiiuiyyiiyyiuuuuiwiiuuwiiuuuuuuuwywyyyyyywyyiwtiitwiywywyywyiywiuwuwiwuuuuuuuuuuuuuuureee875588ee775",
"+#800euuuuuuuuuuuuuuwiwiqttyqwqqiwyytiwiuwwwiwyywwiiuuiiuuuuiiuuuuuuuyiuiwiwitwiuuiwiuiuiwwiuuuuiiuuuuuuuuuuuuuuuyeee0e888eu0775",
"#+600ruuuuuuuuuuiuuui0it0ttet00tt0t00tt0ttwtttttwtttwwiwuyiuuiuiuuuuuuiuwiuuwiiiuuuuuuuuuuiuuuuiwyiuuuuuuuuuuuuuuuyeyeeeeeuue775",
"+O5e0euuuuuuuuuuuuuuqitqtttt00t00t000t0t000t0008t00ttt0twwyyywwyyyuyiwyyiyiwiiwwuuuuuuuuuuuiuuuuiiuuuuuuuuuwwuuuuuyyeeeeeyuue775",
"@X:e0ruuuuuuuuuuuuuuuuuuuuuuwwuwwwwwwwwwwttwwwww00q0t0tqee000e00tttttttttttwi0itiwuuuuuuuuuuiuuuuuuuuuuuitq56wiuuuuureeeyuuuq855",
"#X#eeeuuuuuuuuuuuuuuuuuuuuuuuuuiuuiiiiuuiiiiuiiiiuiuuiwwyyweytwetwtyttttttttwtwwwiuuuuuuuuuuuuuuuuuuuuuuywwwqiwuuuuuuuuyuuuuq877",
"#X+08eur09qquuiuuuuuuiuuuuuuuuuuuuuuiuuuuuuuuuuuiiuuiuuiiiuiiuuuuyyyyyyyiyyiitiyiiyiuuuuuuuuuuuuuuuiuuuuiwuwuuuuuuuuuuuuuuuu0877",
"@Xo5err*++@&2yyuuuuuuuuuuuuuuuuuuuuuwiuuuuuuuuuuuuuuuuuuuiuuuuuuuuiuuuyywyywwiwiiyuuuuuuiuuuuuuuuuuuuuuuiiuiuuuuuyuuuw996290e877",
"#XX<0e<o%&=%$7eyuuuuuuuuuuuuuuuuwiiuuuuuuuuuuuuuuuuuuuuuiuuuuuuuuiuuuyyywityyyiwuuuuuuuuuuuuuuuuuuuuuuuuuuuuuuuuu6wuu2##@OO@>577",
"#XX=08##*=:=O20euuuuuuuuuuuuuuuuiuuuuuuuuuuiuuuuuuuuuuuuuuuuiuuuuuuuuuyuwuiwuiwuuuuuuuiuiuuuuuuuuuuuuuuuuuuuuuuuuwuu0OO#@#@O#578",
"#X.%06+==3:=+,8euuuiuuuuuuuuuuuiuuuuuuiiuuuuuuuuuuuuuiuuuuuuuuuuuuuuuuiuuuuuuuuuuuuuuuuuuuuuuiiuuuuuuiuuuuuuuuuiuuuu2X@%===@O,87",
"$XX$06##>>>=+58ewuuuuuuuuuuuuuuuuuuuuiiwuuuuuuuuuiuuuuuuuiuuuuuuuuuuuuuuuuuuuuiiuuuuuuuuuuuuuuuuuuiuuuuuuuuuuuuiuuuu2X@*>3>#X,87",
"#..+78-+&>>$#6880itiiwyiuuiwiuuuiiuiiuiiuiiiiwiiuuiiwuiwiuuuuuiuuuuuyiuuuuuiiwiwuuuuiiiiwiiwiuuuuuuuuuuuwiiiwiiwuuuu2X@=3>3#o397",
"$X..-87$+>:X>8788t0e000ttttt0tttytewyeyiwywiwitiuuwiiuuiiiuuuuuiuuuuiiuuuuuyitwiuuuuiiwiiwiiiiuuuuuuuuuuiiwiiwtiywee8+O$=4:O+588",
"$. .-081++O@5888ttt00808888088888888888880t88t8iqqqiiwwwyyyyyyyywtyywttwtttt8i880ttti8qtttqqeteyuuuuuuuuiiiiqq8088088;.O#+oo=888",
"$. .&88e1;;7088e00000088888888878787788777778788688870888088880000tt000000t08i8i0000000000880808twtwwiwuqiti8880088808;+oO@=8888",
"&X  +-&&&&&&-:,,11117778888888888788878788788887080088008e8080000880880888880888888080888888808089000008e8e88e888008088733688888",
"$o            ..oOO@@###$$&&&$$$$--:,,17888000i700080000e8e800808088888787877777777787888888888808888888888888888888888888e80855",
"o                  . . .      ..   .XXO+@$&;,68888887878888886777776776777511,>><>>><><>;--&*--->15666668777887887887755,:&$#++o",
"       .....X . ..                        ...XooO++@@@@@@@++#+++@#$$#@+++OOooX.Xo..oXX..X.......o+&&-&&-$$$###@+@@@++ooX..      ",
" .  ..XooooOooOoOoXXXXXXXXXXXXXX.X....          .                                          ....X.XooXoXXX....... .              ",
".   o$-$&-&$&&-&&-&$$$$-$$$$&&$$$$$$##++++OO.   .X                    .XXooooO+O+++O++@+@@$$####@$$&$&&&oooXXXooXXo...          ",
"##+.-66888888878876677877777778878778777788861,;-$#@++++@+O++++++$&->,115800000qee0t08888878776688889088<,<;,,>,1,,,>>*-$&%&$@@#",
"801,8ewt0ttt000800080008080808888888880880000080088878877775675788888080000ttt0iewyytytt8888888888808880000t80888088888880808778",
"uuuuuuuuuuuuiwiwuuuuuuuuiiyytytti80tttwwyyyyyyyyyyytyywyqyyyyeyyeeee000000809908888080888880wwwq0qwwi0qiuwwwwuww00t0ttqwyyyuuyuu",
"uiiuuuuuuuuuiuiiuuuuuuuuiiuuuuuuiiuuuiuuuuuuuuuuuuuuuuuuuuuuuuuuuuuuuuyuyyyywuwqwetetqwwiiiiuuwuiwiuiiiiuuuuuuuuiiwwiiiwuuuuuuuu",
"uuuuuuuuuuuuiuiuuuuuuuuuyiyuuuuuiywuuuuuiuuuuuuuuuuuuuuuuuuuuuuuuuuuiuuuuuuuuuuuwuiywiiiwiiiuuuuiwuuuuwiuuuuuuuuwiuuiuuiuuuuuuuu",
"uuuuuuiuuuiiwuuuuuuuuuuuiyiuuuuuiiiiuuuuuuuuuuuuuuuuuuuuuuuuuuuuuuuuuuuuuuuuuuuuiiiiiiwwiiiquuuuuiuuuiiwuuuuuuiuiiuuuuuuuuuuuiuu",
"uuuuiuuuuuuuuuuuuuuuuuuuuuuuuuuuuuuuuuuuuuuuuiuuuuuuuuuuuuuuuuuuuuuuiuuuuuuuuuuiiuuuuuiuuuuiuuuuuuuuuuuiuuuuuuuuuuuuuuuuuuuuuuui",
"iuuuuuuuuuuuuuuuuuuuuuuuuuuuiuuuiuuuuuuiuuuuuuuuuuuuuuuuiuuuuuuuuuuuuuuuuuuuuuuuuuuuuuuuiuuuuuuiuuuuuuuuuuuuuuuuuuuuuuuuuuuuuuuu",
"uuuuuuiuuuiuuuuuiuuuiuuuuuuuiuuuuuuuuuuuuiuuuuuuuuuuuuuuuuuuuuuuuuuuuuuuuuuuuuuuuuuuuuuuuuuuiuuuuuiuuuuuuuuuuuuuuuuuuuuuuuuuuuuu",
"uuuuuuuuuuuuuuuuuuuuuuuuuuuiuuuuuuuiuuuuuuuuiuuuuuuuuuuiuuuiuuuuuuuuuuiuuuuuuuuuuuiuuuuuuuuuuuuuuuuuuuuuuuuuuuuuuiuuuiiuuuiuuuuu",
"uuuuuuuuuuuuuuiuiuuuuuuuuuuuuuuuuuuuuuuuuiuiuuuuuuuuuuuuuuuuuuuuuuuuuuuuuuuuuuuuuuuuiuuuuuuuuuuuuuuuuuuuuuuiuuuuuuiuuuiuuuuuuuuu",
"uuuuuuiuuuuuuuuuuuuuuiuuuuuuuuuuuuiuiuuuuuuiuuuuuuuuuuuuuuuiuuuuuuuuuuiuuuuuuuuuuuiuuuuuuuuuuuuuuuuuiuuuuuuuuuuuuuuuuuuuuiuuiuuu",
"uuuuuiuuuuuuuuuuuuuuuuuiuiuuuuuuuuuuuuuiuuiyyuuuuuuuuuuuuuuuuuuuuuuuuuuuuuuuuuuiuuuuuuuuuuuiuuuuuuuuuuuuuuuuuuuuuuuiuuuuuuuuuuuu",
"uuuuuuuuuuuuuuuuuuuuiuuuuuuuuuuuuuuuuuuiwwywywwwyyyyyyyywwuuuyyyyuwwuuuuuuuuuuuuuuuuuiuuuuuuuuuuuuuuuuuuuuuiiuuiuuuuuiuuuuuuuiuu",
"uuuuuuuuuiuuuuuuuuuuuuuuuuuuuuuuuuuuuuuuuyyyyywyyyyyyyyywytyyyyywyeywweyyywiywiyyuuuuuuuuuuuuiuuuuuuuuuuuuuiuuuuuuuuiiiuuuwiiiuu",
"uuuuuuuuuuuuuuuuuuuuuuuuuuuuuuuuiuuuuuiuuuuuuuuuuyuyyyyyuuyyyyyuyuyyuwyyywyetyyyyyyyyuuuuuuuuuuuuuuiuiuuiuuuuuuuuuuuwiuuuiiiwiuu",
"uuuuuuuuiyyyuuuyuuuuyuuuuuuuuuuuuuuiuiuuuuuuuuuuuuuuuuiuuuuuuuuuuuuuuuuuywiwwqywyuuuuuuuuuuuiuuuuuuuuuiuuuuuuuuuuuuuiiuuwiiiiiuu",
"uuuwwwwwyyyyyywyyyyyyyyyyyyyyyyywuuwwuwuuuuuuuuuuuuuuuuuuuuuuuuuuuuiuuuuiiiuiiiiuuuuuuuuuuuuuuuiuuuuuuuuuuuuuuuuuuwwwwwwwiwqwwww",
"tttwwwwiwywwwtyyyyyyyyyytyyyyyyyiwwuuuwiuyuuuuuuuuuuuuuuuuuiuuuuuuuuuuuuuuuuiiwiiuuuuuuuuuuiuuuuuuuuuuuuiuuuuuuuuuwuwwqwttttwqtt",
"ywiwuwiwuuyiyuuuuyuuuyyuuuuyuuuuuwiwuwiwuuuuuuuuuuuuiuuuuuuuuuuuuuuuuiiuuuuiiiiiuuuuuuuuuuuuuuuuuuuuuuiuuuuuuuuiuuuuuuuuwiwtiwti",
"iiuuuuwiuuuuiuuuuuuuuuuuuuuuuuuuiuuuiiiwuuuuuuuiuiuuuuuuuuuuuuuuuuuuuuuuuuuuuuwiuuuuuuuuuiuuuuuuuuuuuuuuuuuiuuuuuuuuuuuuiiuiuuii",
"uuuuuuuiuuuuuuuuuuuuuuuuuuuuuuuuuuuuuwiiuuuuuuuuuuuuuuuuuuiuuuuuuiuuuuuuuuuuuiwiuuuuuuuuuuuuiuuiuuuuuuuuuuuuuuuuuuuuuuuuuuuuuuiw",
"uuuuuuuuuuuuuuuuuuuuuuuuuuuuuuuuuuuuuuuuuuuuuuuuuuuuuiuuuuuuuuuuuuuuuuuuuuuuuuuuuuuuuuiuuuuuuuuuiuuuuuuuuuuuuuuuuuuuuuuiuuuuuuuu",
"uuuuuuuuuuuiuuuuuuuuuuuuuuuuuuuuuuuuuuuuuuuuuuuuuuuiuuuuuuuuuuuuuuuuuuuuuuuuuuuuuuuuuuuuuuuuuuuiuuuuuuuuuiuuuiuuuuuuuuuyuuuiuuuu",
"uuuuiuiiuiuuuuuuuuuuuuuuuuuuuuuuuiuuiiuiuuuuuuuiuuuuuuuuuuuuuuuuuuuuuuiiuuuuuuuuuuyiuuuuuuuuuuiyuuuuuuuuiyiyyyiiuuuuuuiiuiiiuiui",
"yiwwyywyuyywyuyyuyuyuyuyuyuuuyuuwwuuwiwiuuuuuuyyuuuuyuuyuuuuuuuywuuuuuwiuuuuuuuuiyiiuuuuuuiuuuyiuuuwwwwwt00iywyyuuyuuyyywwwwwwuw",
"ttttttttttttttttttttytyttytytyyywwwi0qtwtwyyytyywyyyyyyyyyyyyyyywwi0wityiwi0wwiqitiyyyyyyyyyttitty0iwttwi0tw0itwtyywttttttt0wtwt",
"yywtiwttywyywyytyytyyytyyttyyttt8it8itq0tttwwttywwwttttyttttttttwwtttt8t807iwwt0tt80ttyytttyt00tytttwtwtttttttyytttttti0t0iyyyyw",
"wywititiyyyyyyyyyyyyyyyyyyyyyyyywiti0itiwiwyiyiyyyyyyyyyyyywyyyytiwti00i00i80000t08080tttytttitttitttytti8i00tytttwti0ttytyw0iwi",
"88800000t0t0t0t00t0000000000000ttt8t8t0tww0t0000ttttttttttt0t000700888888888888888880080880070007708888877708770t0t0000000088877",
"888800e0eeet000t0t00eeee0000000000000880088888878888788887787887788877888877888878888778778787887878788778887888888e8e8888888888",
"788880888e88e008000088e800000000888888078888788877888887888888878778777787777777777777777887777777878778887878788888878888888787",
"88878888787888788888887877777878800880000808000800888878888778777777777777777777777477777777747788787887877888787887888788788887",
"88e8888888888888777,,,,:--#--,:,778787878888878777787877777777777777474777777,:,:&$$:4444477777777878787888887878878788878888888",
"877676678717,,-&$$@++oooX..XXoOO+#&:,,,47444,,,474,4,,,,4,,,,,,,,,,,,,,,,,,,:+XX    .oooOOoOOOoooOO+##+#===%&&=%$478887787878878",
"-$#+++++++oX... .       ...XXXXXX..XXXoOo+++Oo++++#+###+$####@######++#+#@#++X..                                o+$$==&====:3$$=",
"ooX.. .             . ...XXoooOOo................XoX.XXXXXooXoooXXXXooooooo+.           ..X                        $$&&&$$$$#oOO",
"X... .   X.oOO+++++@#+##$-:,,,-,::$##+++oOooOoooXXoXX..X.XXXX..XXXXXooooo+o+o      o++$-:,:$O+++++@+++@+OO@OOOOooX+$&&&&==$+oXXX",
"##$*-;**;<17897988080880000000080088t8876226111<,,<--&&&-&%%&%%%%%@%$@++++O+O   .X+-2800000e00qqryyyuuwuwwuwwwwwq00qqeqqe0&$####",
"666800080q0q0qtttytyyytiwuwyyyyy0iwtitwuuuwuiwyyi80800t8988888888888711<,,,1;   +>2quwwyyywewwuuuuuuiuuuuuuuuuuuuuuuuuuwr9666566",
"y0tttywwwwwuiwiyiiwwwiiiuuuuuuuuiiiiuuiiuuuuuuuuitityttywqwwttt0weeeqeee008e9   &eeuiuuiuuuuuyuuuuuuuuuuuuuuuuuuuuuuuuuuyyyreeyy",
"iiiuiwuiuuuuiwiwiwiiiiwiuuiuuuuuiiituuuuuuuuiuuuityiiuuiuuuuuwwiuyyyuuuuyy0e8   -twuuuuuuuuuuiuuuuuuuuuuuuuuuuuuuuuuuuuuuuuuuuuu",
"uuuuiuuuuuuuuuuuuiuuiiiuuuuuuuuuuuuuuuuuuuuuuuuuuuuuuuuuuuuuuuiuuiuuuuuuuy000X  ;ewiuuuuuuuuuuuuuuuuuuuuuuuuwuuuuuuuuiuuuuuuuuuu",
"uuuuuuiuuuuuuuuuuuuuiwuuuuuiuuuuuuuuuuuuuuuuuuuuuiuuuuuuuuuuuuuuuuuuuuuuuy000o.X>euiuuuuiuuuuuuuuuuuuuuuuuuuuuwuuuuuuuuuuuuiuuuu",
"uuuiuuuuuuuuuuuuuuuuuuuuuuuuuuuuuuuuuuuuuuuuuuuuuuuuuuuuuuuuiuuuuuuuuuuuuue08+XX;ewuuuuuuuuyuwquuuuuuuuuuuuuuuuuuuuuuuuuuuuuuuuu",
"iuuuuuuuiuuuuuuuuuuuuuuuiuuuuuuuuuuiw2qwuiuuuuuuuuuuuuuuuuiuuuiuiuuuuuuuuuee6OXo;eyuuuuuq00ee0qquuuuuuuuuuuuuuuuuuuuuuuiuuuuuuuu",
"uuuuuuuuuuuuuuuuuyuuuuuuuuuuuuuuuiuuuuwuuuuuuuuuuuuuiuuuuuuuuuuuuuuuuwuuiue87+Xo;ewiuuuwe0000000uuuuuuuuuuuuiiiwuuuuuuuuuuuuuuuu",
"uuuuuuuuuuuuuwwwyyyuuuuuuuuuuuuuuuuuuuuuuuuuuuuuuuuuuuuuuuuuuuuuuuuwq2<9wiw01+XX;ewuuiw2:=%<6000quuuuuuuuuuuuuuuuuuuuuuuuuuuuuuu",
"uuuuuuiiuuuuwyiwyuuuuuuuuuiuuuuuuuuuuuuuuuuuuuuuuuuuuuuuuuuuuuuuuuu0*#%%2wt07+.o-eyuuw;O+@##26009uuuuuuuuutqwwuuuuuuuuuuuuuuuwwu",
"uuuiiiwwuuiuiiwiuuuuuuuuuuuuuuuuuuuuuuuuiuuuuuuuuuuuuuuuuiuuuuuuuuu<#@#=@>888+Xo-eyuuq+&=::=<5080wuuuuuuuuuuuuuuuuuuuuuuuuuuuuuu",
"uuiwiiwiwiyiiuuuuuuuuuuuuuuuuuwyuuuuiuuuuuuuuuuuiwiiiuuuuuuuuuuuuu9#&3:3$@,87+.o&eyuu0+*33>3;2880wiuuuuuuuuuyiuuuuuuuuuuuiiiuuuu",
"uuiiiwiiiiwiwiwyuyyuyyuyyuuyyyyuuuuuuuuuuuuuiuuuwiwiuuuuuuuuuuuuuu9@=333&+,77+.X&eyuuq@&,33>;5900wuuuuuuuuuuiiuuuuuuuuuuyuyiuuyu",
"qqqtq8tqtwtwtwyyyyyyyyyywyyyyywywuuuuuuuuuuuuuuui0wiwwuuuuuuuuiuuu9#=333-+,78#Xo%eyuuq%%,>>>>5900uuuuuuuuuuuiwwiuuuuyyywwyyyyyrr",
"wtyyqii0twttiwtiyyyyyyyyyyyyyuyyuuuuuuuuuuuuuuuwqiwwiwuuuuuuuuuuuur#%==3-@,77#XX%0quuu<O:>:-18800uuuuuuuuuuuwiywwwrereyeeeeyeyre",
"uywuuyuyiyuuyuuuuuuiuuuuuuuuuuiuuuuuuiuuuuuuuuuuwiuwiwuuuuuuuuiuuuu<#*=$O&588&XX&0yuuu9#X+@;9088wuuuuuuuuuuuuywywwiwwww0yywuyyuy",
"uuiuiuuuyiuuuuuuuuuuuuuuuuuuuuuuuuuuuuuyuuuuuuuuuuuiiiuuuuuuuuuuuuuq=++@:5888#XX$0wuuuu9#+<908qwuuuuuuuuuuuuuuuuiiwwiiiiuuuuuuui",
"uuuuuuuuiuuuuuuuuuuuuuuuuuuuuuuuuuuuuuuiuuuuuuuuiuuuwuuuuiuuuuuuuuuuy65588888&XX#eyiuuiiw6y08wiwuuuuuuuuuuuuuuuuiuuuiwiiuuuuuuuu",
"uuuuuuuuuuuuuuuuuuuuuuuuuuuuuuuuuuuuuuuuuuuuuuuuuuuiiiuuuuiuuuuiuuuuuye800888&XX@euiuuuiiiwuiwiiuuuuuuuuuuuuuuuuuuuuiiwiuuuuuuuu",
"uuuuyiuuuuyiuuuuiuuuuiuiuuuuiyiuuiuuiiiuiiiiuuuuiiiiiiiiuiuuiiiiuuuyuyye80888:X O0ywyiiwuwiwiiiiuuuuuuuuiiuiiwwyuiiuiiwiiiiiuuuu",
"uuuuiiuuuuiiuuuuyiuuuuyyyuyyyiyyuwywwwtttttwuwwwyytyywyywwttty0eqqeeree880887:X o6ee0ettwtttt0yqyyyyuuuuwuwiitiiwwwwyiwiwwwyuyuu",
"tt0wtttttttttwtttttttt000ttt000000t000t0808000tte000000e80000808800eeeee0e877:  .20eetee00tt0t0ttttttttttttt0ttttttt0t0ttte00000",
"008008008000800080080000000000000000000000t0000000080880000800000e0ee8e8e8877,o .:0ee0ettqttttttttttttttttttttttttttt00000e80800",
"808t0t8t0000008ee8ee000000e8000000e00e0eeeeeeee000000800000000000000000tt8777,o .$600000t8ttt008ttttttttttttttttti00eeeewet00000",
"0tq0t8t0ee00000e008ee000000e00000000000000008000e8088e8e8008000880800800e8877:.  +>00t00it0t08iittttttttttttttt0t0000qe00000000e",
"0tttttt806866621,11125668800e8000008808800808008808008e8888871,>,>>:;>,,7177,&.  O*0yyty8ttw0880009000008000000t0teeee0q00t0000t",
"7869896>%@OOOXX.X.XXoOO+#$$%&&-::,11711,,>:,,>>>,;,;>>>:--$++o+oXXXXXooo+++##o   .O$<<12115<>>-:-,<<<<;,;-;;><1<<<>>>><11<<22226",
"OOOOOOX.                   .    XXXoo.......X  ...XXX.. .   ....XXX.X.... . ...    .XXXooXoo##+#$$&--&&&$%$*$XXXXX....X...XXXoXo",
"               .        .... XX     . ..                  ....XXXXXXoXXX.XX....    . .. .....X.....o+OO+XXXX.... . . .          ",
"%@++@@$$&**<,<<<<<<;<<;<<2<<<<>*&%$#@@#$@$$$$$#$$$$$$$$$&-->:>>>><,>>>>>>>:>;;-%$&&--*&&&$$$&$$&$$&-->--&-*-&--&-***;&*&**&&&&%%",
"qqqtwyuwwuwquqiwyyquqyuqywwyqyeytt08880teqeqyywyyee800080000000080800e0008008t88808080808080008888778877t0qt00tt0t00tttwqqywwywy",
"qeeeeeeee0eet0t0t0t0eee0eeee0000ttttwwyyuuuuuuuuuye000000000t00e0tq0t0t0q00qq0q000008000000000wti88ttwttwwuwuwtwtttte0q0ee0000e0",
"eeeweeeeewee00ttttt0tte0eweewyyywwyuuuiuuuuuuuuiuuuywweyyyyywwwwtiwwiwiiiwiwiiiwywywwytyuwwwwwyuiiiiuuiuiuiiuuuwwuwwwyyuywyweyye",
"uyyuwuyyywiywiwwwiqiiwwiuyuuuuiiuuuuuuuuuuuuuuuuuuiuiuuuiuiuuuuiiwiiuuwiuuuuiwiiiuuiuuiiuuuuuuuuuuiwuiuuuuuuuuuiiiuuiiuuuuuuuuuy",
"uuiuuuiuiuiiiiiuiiuiiiuuuuuuuuuuuuuuuuuuuuuuuuuuuuuuuuuuuuuuuuuuiiwiuuuiuuuuwiiwiiuuuuuiuuuuuuuuuuuiuuuuuuuuuuuuuiuuuiuuuuuuuuui",
"uuuuuuuuiiiiwiiiwiiiiuuiuuiiuuuuuuuuuuuuuuuuuuuuuuuiuuuuuuuuuuuuuuuuuuuuiiuuuuuiuuuuuuuuuiuuuuiuuuuuuuuuuuuuuuuuuuuuuiuuuuuuuuuu",
"uuuuiuuuwwyiwwyiwiqwiywiuuuiuuuuuuuuuuuuuuuuiuuuiuuuuuuuuuuuuuuuuuuuuuuuwiuuuuuuuuuiiuuuuuuuuuuuuiuuuuuuuuuuuuuuiuuuuuuuuuuuuuuu",
"uiuuuuuwyyttttttttqiyytywwyyuywyuuuuuuuuuuuuuuuuuuuuuuuiuuuuuuuuuuuuuiuuiiiuuuiiuuuuuuuuuuuuuuuuuuuuuuuuuuuuuuuuuiuuuuuuuuuiuuiu",
"uuuuuuuwywyyiyyyi0i0tyyyteeweeyywwwuuuuuuuuuuuuuuuuuuuuuuuuiuiuuuuuuuwiwwuwuuwwiwuiwuuuuuuuuiuuuuuuuuuuuiuuuuuuuuuuuuuuuiuuuuuuu",
"uuuuuuuuuuuiuuuuiwiwuuwuwyuwyyyywwwwiiuuuuuuuuuuuiuuuuuuuuuuuuuuuuuuwwiyytwwitwwyyywiyyyuiuuuiuuuuuuuuuuuuuuuuiuuuuuuuuiuuuuuuuu",
"uuuuuuuiuuuuuuuuwiiiuuiuuiuuiuuiuuiiyuuuuuuuuuiuuuuuuuuuuuuuuuuuiuuuwuywyyyytt0iywyyyyiwuuuuuuuuuuuuuuuuuuuuuuuuuuuuuuuuuuuuuuuu",
"uuuuuuuuuuuuuuuuuuwiuuuuuuuuuuuuuuuuiuuuuiuuuuiuuuiuiuuuuuiuuuuuuuuuuuuuiwiwiyiwuwuuiwiwuuuuuuuuuuuuuiuuuuuuuuuuuuiuuuuuuuuuuuuu",
"uuuuuuuuuuuuuuuuuuuiuuuuuuuuuuuuuuuuuuuuuuuuuuuuuuuuuuiuuuuuuuuuuuuuuuuuuuuuyyiiuuuuwiiuuuuuuuuuuuuuuuuiuuuuuuuuuuuuuuuuuuuuuuiu",
"iuuuuuuuuuuuuuuuuuiuuuuuuuuuuuuuuuuuuuuuuuuiuuuuuuuuuuuuuuuuuuuuuuuuuuuuuuuuiuuuuuuuuuuuuuuiuuuuuiuuiuuuuuuuuuuuuuiuuuiuuuuuuuuu",
"uuuuuuuuuuuuiuuuuuuiuuuiuuuuuuuuiiuuuuuuuuuuuuuuuuuuuuuuuuuuuuuuuuuuuuuuuuiuuuuuuuuuuuuuuuuuuuuuuuuuuuuuuiuuuuuuuuuuuuiwiuuuuuuu",
"uiuuiuiiwiuuiyuiuiiiuiiiuuuuuuuuuwuuuuiuuuuuuuuuiuuuuuuuiuuuuiuuuuuuuuuuuuuuuuuuuuuuuuuuuuuuuuuuuuuuuuuuuuuuuuwiiiuiuiuiuuiuuuuu",
"ywwuyyywyiwwyyyywwwwwwwywuuuuuuuuuuuuuiwuuuuuiuuuuuuuuuuuuuuuuuuuuuuuiuuuuuuuuuuuuiuuuiiuuuuuuuuuuiuiuuuuuuuiyiiwuuwwuwuuwwuwwuu",
"tttttttt0wtwttyytwttt0wyyyyyyyyiiwiiiwiiuiyiuuuuuuuuuuuuiuuuuuuuuuiiuuiiuuuuuuuuiwiiuuiwuuwiiwiiuuuuuuuuiuwuww0tttti8ittqwtttttt",
"ywyyyyuyiwyyiyyyiyyyiiwywyyyywtttttwyywiyyuiuuuuuuuyyyuuiwuuuuuiuiwiuuuiuuuiuuuuiiwiuuwiuiiiwiwiuuuuuuuuwiiytiiwtttttwttwwttyyti",
"iiiuuuuuiyuiyiyyyyiywiuwyyyytiyy0twwttttyywywiwiuuwwwtwyiiwiwtytwtwwtwtwwywwyyyyiqtiwwwiqtttwtt0wwwtyttwi0wtttwtttttiwiwiiyiwiiw",
"wwwtttywyyywwyyyyyytw0yyyyyytywwitttttttttt0w0t0wwqq0ttyt00t0t0t0t00000tttt0t0tt000000t00000ttttwwtttttttttttttt8itttiiwqwwwyyww",
"0090000qqt0tt0ttytttttqt0tt00000q8008088880800800000000000000000000t00qtt00qtwttt00000000t8ttttttqttttttqqtttt808088888888888808",
"<,,,,1,157688000800000888088788777788800800000000000t00tt0t0tq0q865<<<;>><><11;-&**->><<<<>,1<<,>1,,,-;;99661>;;;;,-;;;>>>>>>>>,",
"@++@#+@+%#$&-,578888088671,<,---****;>>>;-,,<556611611,1<<>>>>;&&@@@@+OO++OOO+OooXooOoOOOO+OOOoooooXXooo++O@++++O+++O@O++++++@@@",
"%$#%##%#+@+++#&-;;<,>>;-&%%+++O+OOO+OO++++O++@@####@@@@@+@++O+OO+@@@%%&&%@OOoooooOoOOoOOOOOoooooooXooooo++@+@+O++O++@O+@++++@@@%"
};
