/* XPM */
static char *_7f1acc515e14a0aa728c0d413fc1ac5VYzbLq2HPOIM0SfD[] = {
/* columns rows colors chars-per-pixel */
"64 64 170 2 ",
"   c #1C1D1B",
".  c #22221E",
"X  c #242523",
"o  c #292926",
"O  c #272928",
"+  c #2C2D2B",
"@  c #302F2B",
"#  c #2F312E",
"$  c #31312E",
"%  c #2C2D31",
"&  c #2F3130",
"*  c #333433",
"=  c #383734",
"-  c #363836",
";  c #3A3936",
":  c #373939",
">  c #3C3C3B",
",  c #403F3A",
"<  c #3E403D",
"1  c #42423D",
"2  c #3F4140",
"3  c #444443",
"4  c #484742",
"5  c #4B4A46",
"6  c #4C4D4B",
"7  c #474946",
"8  c #504E45",
"9  c #514E49",
"0  c #4F504C",
"q  c #535047",
"w  c #53524D",
"e  c #58554D",
"r  c #5B584F",
"t  c #4F4E52",
"y  c #4F5151",
"u  c #555553",
"i  c #595651",
"p  c #575854",
"a  c #5B5A54",
"s  c #575958",
"d  c #5C5D5B",
"f  c #615E55",
"g  c #615F5A",
"h  c #5F605C",
"j  c #626057",
"k  c #64625C",
"l  c #69665E",
"z  c #6B685F",
"x  c #5F6160",
"c  c #656562",
"v  c #6A6763",
"b  c #676864",
"n  c #6C6A64",
"m  c #6C6C6B",
"M  c #716E65",
"N  c #716E69",
"B  c #6F706B",
"V  c #747166",
"C  c #74726C",
"Z  c #79766D",
"A  c #7C796F",
"S  c #6D6E70",
"D  c #757573",
"F  c #797672",
"G  c #777875",
"H  c #7C7A74",
"J  c #7D7D7B",
"K  c #817D75",
"L  c #817F79",
"P  c #7F807E",
"I  c #838175",
"U  c #84827B",
"Y  c #89867D",
"T  c #8C897E",
"R  c #7F8180",
"E  c #858482",
"W  c #898681",
"Q  c #878885",
"!  c #8C8A83",
"~  c #878988",
"^  c #8C8D8B",
"/  c #918E85",
"(  c #918E89",
")  c #8F908A",
"_  c #949186",
"`  c #9A9786",
"'  c #94928C",
"]  c #99958C",
"[  c #9C998E",
"{  c #8F9092",
"}  c #949593",
"|  c #9A9791",
" . c #979894",
".. c #9D9A93",
"X. c #97989A",
"o. c #9C9C9A",
"O. c #A09E8E",
"+. c #A19E94",
"@. c #A19E99",
"#. c #9FA19B",
"$. c #A4A195",
"%. c #A9A697",
"&. c #A5A39B",
"*. c #A9A69B",
"=. c #ACA99D",
"-. c #A4A4A2",
";. c #A9A6A1",
":. c #A7A8A3",
">. c #ADABA2",
",. c #ADADAA",
"<. c #A5A6A8",
"1. c #B1AEA3",
"2. c #B1AFA9",
"3. c #AFB0AA",
"4. c #B4B2A5",
"5. c #B9B6A7",
"6. c #BBB8A7",
"7. c #B5B3AA",
"8. c #B9B6AB",
"9. c #BCBAAD",
"0. c #AFB1B0",
"q. c #B4B5B2",
"w. c #B9B6B0",
"e. c #BDBBB3",
"r. c #BCBDB9",
"t. c #C0BDAE",
"y. c #C1BEB3",
"u. c #C1BEB8",
"i. c #BFC0B8",
"p. c #C5C3AE",
"a. c #C4C2B5",
"s. c #C9C7B7",
"d. c #C5C4BB",
"f. c #C9C6BB",
"g. c #CCC9BD",
"h. c #D4D1BE",
"j. c #C6C7C1",
"k. c #C9C6C1",
"l. c #C7C8C1",
"z. c #CAC9C2",
"x. c #CDCEC6",
"c. c #CDCBC2",
"v. c #CECDC8",
"b. c #D1CEC2",
"n. c #CFD0C8",
"m. c #D4D2C5",
"M. c #D0D1C9",
"N. c #D1D2CA",
"B. c #D5D3CD",
"V. c #D3D4CC",
"C. c #D5D5CD",
"Z. c #D5D3CA",
"A. c #D9D6CB",
"S. c #DBD9CD",
"D. c #D6D7D1",
"F. c #D8D5D0",
"G. c #D7D8D0",
"H. c #D9DAD2",
"J. c #DDDED6",
"K. c #DDDCD3",
"L. c #E1DFD3",
"P. c #DFE0D8",
"I. c #DFE0D8",
"U. c #E3E1D5",
"Y. c #E1E2DA",
"T. c #E5E6DE",
"R. c #E5E4DA",
"E. c #EDEBDF",
"W. c #E7E8E0",
"Q. c #EBECE4",
/* pixels */
"r.o.{ r.^ 0.q.-.{ } ;.0.X.-.q.,.X.r.' :.:.o.q.i.#.,.l.:.u.k.#.j.z.u.2.F.d.<.j.D.7.-.n.I.l.e.V.D.n.i.n.W.n.i.z.C.D.n.z.n.J.I.n.T.",
"q.#.o.{ q.~ X.q.X.X.q.o.2.X.r.q.} j.#.r.:.| 3.i.:.&.i.:.,.k.3.q.Z.2.q.w.u.q.q.z.G.d.&.z.z.i.x.n.i.D.3.n.n.G.z.i.i.I.I.D.G.I.I.D.",
"~ X.0.R 0.o.X. .{ ;.r.{ @.{ 2.<.@.q.;.-.e.] 3.,.,.e.e. .q.2.2.7.z.w.u.7.v.D.l.7.w.I.v.w.i.i.I.n.r.J.G.l.d.Y.Q.B.e.I.W.V.n.I.V.T.",
"R <.<.-.~ #.-.q.{ @.@.<.<.<.-.-.o. .:.| o.q.&.#.&.,.i.&.k.u.;.k.2.y.F.;.,.v.d.w.:.z.d.B.l.3.i.d.d.w.H.c.w.d.x.B.l.e.n.n.n.J.n.J.",
"#.-.~ q.{ ~ -.-. .Q #.q.' &.r.X.X.2.2.} ;.<.;.{ 3.:.2.@.q.>.;.>.>.&.u.q.o.q.Z.a.=.d.7.k.z.w.a.4.b.Z.y.b.d.F.g.j.z.l.n.Q.T.I.n.I.",
"{ 0.{ X.0.) X.o.) o.:.:.W o.r.<.o.@.-.} -.2.t.{ 7.r.;.2.B.;.f.7.y.k.1.k.d.8.e.e.u.2.K.F.j.;.Z.e.&.u.Z.b.g.w.R.R.w.G.V.n.J.G.l.V.",
"S <.{ ~ } <. .o.^ ' o.,.^ } -.} ~ q.0.@.{ | ,.( ~ 2.| ( @.>.*.&.w.y.*.e.f.d.2.d.A.1.w.w.F.d.z.A.S.9.1.S.K.a.b.u.d.7.g.i.I.l.V.I.",
"X.~ { X.-.S ) i.^ ~ o.7.' ..q.o.} @.@.@.q.;.w.( >.| &.e.&.@.&.*.2.w.@.w.u.u.1.4.d.w.u.k.z.w.a.8.s.A.1.2.z.t.d.t.r.Z.V.H.n.n.I.V.",
"X.q.G E <.( L <.o.J o.-.^ ) ,.) @.2.X.L @.| 0.W 2.;.] w.w.8.| 8.8.w.;.>.u.>.f.y.1.1.7.b.Z.w.9.Z.5.g.I.5.s.A.m.R.r.m.J.G.g.z.J.J.",
"~ X.0.S J X.@.E ^ { o.~ E o.,.U W <.( { ^ @.;.| ;.8.| +.( 1.| W @.k.;.2.@.1.y.f.;.y.1.y.A.w.7.2.i.1.s.g.9.R.S.I.e.>.V.z.G.A.m.x.",
"{ J X.,.G ^ ,.E J  .-. .^ #.,.) @.@.( ;.@.2.| | w.@.( ;.1.( 1.;.@.8.;.;.8.@.y.y.4.8.d.+.c.9.A.c.1.a.s.a.$.a.S.g.b.m.g.7.Y.H.Y.T.",
"J { D #.' S } ^ o.} E G ) #.^ U <.| L ( @.2.( W ;.;.| ( u.( | 8.;.,.+.+.y.&.+.1.y.d.s.f.$.8.a.g.d.6.9.S.g.4.m.a.=.A.c.=.8.b.b.9.",
"R ~ D { ^  .E G ( -.{ } J ' &.) @.;.( W | | @.@.w.@.| 2.*.*.1.;.>.@.@.@._ 1.@.u.4.*.4.g.a.[ a.e.9.9.e.8.b.d.a.g.N.6.g.L.b.4.H.A.",
"{ ~ J o.{ J <.L ~ o.E ,.~ W Q ^ ( @.( ( ;./ ( | w.( 1.| 2.@./ 2.y.] 4.f.u.O.] 2.s.+.1.a.m.[ a.m.m.=.i.Z.s.6.>.S.I.9.6.K.S.9.i.g.",
"R o.G R J ~ X.^ { L E ^ E :.' U K | L ( @.| W / | ( ( | +.@.| 1.>.( O.@.8.+.=.O.=.1.=.9.m.4.T a.i.5.=.s.i.s.%.#.s.A.%.g.Z.H.i.s.",
"R D X.{ J ^ ( D @.} ^ W } } #.' ( @.( W 2.( | 1.( 1.| | *./ | w.@.@.;.] =.*.[ 2.d.>.4.8.i.a.p.=.h.i.>.5.i.A.c.6.b.a.L.a.S.g.g.5.",
"{ G X.} ^ W o.D ( ( o.L E X.^ ^ @.] ! ( @.! W &.+.| | ] @.1.Y | ] | t.t.W t.+._ t.t.L t.1.*.u.1.1.9.s.9.O.8.8.y.S.9.g.b.u.b.L.m.",
"R X.m G ^ R m ^ } S } ( J ( H E } ! L ;.| L ( ( / w.| | | w.| @.| / ( t.;.*.4.| ` 1.=.O.u.%.1.1.$.%.u.a.S.b.y.y.s.b.s.A.8.9.L.E.",
"R <.~ S } o.J J @.D ~ ;.J @.^ J ;.( W ;.( L ..@.L ;.| | @.@.| | t.1.L %.*._ 1.y.] [ t.u.u.1.+.t.4.+.*.O.*.g.g.y.e.L.s.e.c.b.b.S.",
"~ R E E G G { m ^ L E { G @.E D @.] L >./ W ] ..L @.@.Y +.( | | t.| +.=.1.] ] +.t./ L t.t.=.t.t.$.*.g.u.5.=.t.Z.&.*.s.e.9.c.8.s.",
"^ G J { m S R m W S J ! D S @.L ( | K ,.L L +.+./ ( @.*.( *.;.K $.| / y.%.1.+.t.t.t.T *.1.4.f.u.y.O.u.s.m.*.8.8.a.a.8.9.$.m.A.s.",
"S ~ G R L } G D X.S ^ { o.K L ' g ! F ! Y F Y ..K / | ( W K ] W *.=.K *./ +.*.*.t.@.t.*.L t.t.t.y.O.1.b.u.m.8.+.9.A.Z.V.9.9.4.b.",
"m E c J o.G L { o.L S R | E W >.W L ( ' W / @.( L / @.| | | *.| *.*.] t.| *.+.K | | *.y.+.] t.t.5.t.O.@.h.5.u.t.i.S.m.A.d.m.g.4.",
"S G d N } c D J } J F K W L W | U ( ( @.K W ( ] K K / | K ( | 1.+./ +.] $.| t.1.t.1.K t.1.*.*.y.*.4.b.@.t.5.@.4.O.9.5.m.=.g.m...",
"c J { L d J { D D E ^ F D N K @.m L | | K W ( ( W L L ] L L K @.+.L ;.;.Y / *.+.t.*.1.+./ 1.] *.+.@.f.m.8.7.s.A.s.=.i.b.=.i.m.A.",
"S S J X.m S L G c J ( E L L E E W N W @.D U F } L @.;./ / @./ +.Y *.| u.@.( 1._ $.%.t.y.| 1.h.u.O.O.5.7.8./ 9.s.m.f.$.f.a.4.a.g.",
"D D v S D E m ~ v S J @.v F W ( L L N } F K | | K L | | N L 2.+.K Y / | *.K *.1.1.L _ =.1.L %.y.5.;.y.s.a.5.Q 9.9.a.f.%.e.=.Z.L.",
"x m S ~ g W S c D m D F ' k K L L l L ' K E U L Z l +.W ( Z L >.K | | ( @./ O.*.=.1.+.+.t.+.[ %.s.O._ y.=.8.5.%.c.5.e.a.a.9.%.s.",
"D u D J c J F c R S ^ m L W g W ;.m ! ( N L ( ( K W W K ( ;.! | K K | t.t.] ] 4.L *.t.t.+.O.4.8.1.5.] t.9.e.8.5.4.i.9.m.A.9.4.i.",
"v E S x S E { c S v R N v ! N F L k L | F L ' L K W ;.K N W | L +.K K L *.L +.2.t.K [ t.@.Y 1.1.7.+.y.+.g.s.O.g.=.[ $.p.a.s.$.i.",
"R d { x g F D R v m F L g D F | L v N ( F N W L K N L L K ' +.Z ] / K / +.K K / >.L @.t.%.1.7.y.y.Y 1.1.=.s.4.%.h.s.%.i.h.g.9.=.",
"R S d x S S g D m g S { x g N W L v K W L C ( ( g ' W W L W @.W K | | / L @./ @.t.O.` %./ O.1.6.=.6.` =.a.9.g.6.4.Z.i.` a.g.m.m.",
"S S ~ u N { m D x c x D K a N H ! N D ! N m n ' v F ! ! g C / +.K K *.%.K +.K / K 5.O./ 7.T ] @.%.t.| ;.6.y.8.+.1.s.u.9.$.4.a.s.",
"v x W J d m c L D g s D { i N L V N n C M N b ^ K D W / K F _ L K K K L K +.+.*.Y _ +.` u.5.( 5.f.5._ %.*.g.5.*.6.u.4.z.Z.4.4.m.",
"J d s D c x t i c v v c F N m ! n d n F c N N ( g C K C Z f _ ! f ] ] K K L +.L / %.[ T _ O.=.O.t.1.O.1.+.+.y.t.] 8.a.s.y.=.1.9.",
"x d t v ~ d x m x s g m a 5 6 B C g m E F n D L L N K C L C L K f K | K K K ` K U _ 8.] / Y %.O.' =.+.y.>.5.y.y.4.&.O.y.c.a.9.=.",
"J D t s D u d c S 6 g J h b k n D c w P g g F d C D N N n K | Z K L K K / | | / ' _ 4.$.! 1.Y 5.+./ *.t.4.] g.*.=.m.$.#.9.m.S.s.",
"c m t s m d t x G S 7 d e F P e v U a n K e L N N K F ( L C W L O.O.L K K K ` K U | &.T $.9.4.=.4.Y _ t.u.O.8.Z.#.5.g.i...a.c.d.",
"x c D t v d 6 s 6 u x m p p p w i m V k ' i L C L N g v L L n M | K K | K K L L H ' ] z T _ 1.[ ` +.` _ +.5.t.+.[ 6.5.a.9.4.a.a.",
"u t m t d S 5 3 m t 6 c 1 D h 5 u n e p K L i g N L g F L n F v K K K K 6.K K L | 5.T V Y ..] O.O.@.c.Y ] =.7.*.] %.1.$.4.m.g.a.",
"t x s x d G t u s 6 t d 6 m c h v n N 5 n Z e g v ] L e W Z M / K 8 l K L @.F F A 6.W K *.+.] %.T %.1.i.%.$.i.%.9.a.5.m.=.i.h.$.",
"t 3 t s t m 3 g N 9 m n 3 t G 5 d 9 g F l N F e v N K M v K 9 T K f K ] N Y Y Z / ( K I +.` I =.O.T 4.T g.4.s.` _ 5.i.a.%.i.5.6.",
"x 3 t 7 v u 2 5 5 t 3 d 9 u G D 7 c v H 8 i W i 9 Y 5 C M v Z K l N K K K M K F +.K Z T K / T T O.T =.O.P =.i.=._ 1.4.=.i.s.5.d.",
"s s 3 3 s s 3 3 > c u s 5 u 6 H u 1 a L f 9 g F Z M e M ' f Z ( i i v L ( q K T _ n Y +.` K T @.$.$.Y 5.O.T 5.%.8.=.a.6.h.4.%.#.",
"7 c 7 * t v 6 t 5 b 6 D 7 > q m s g 1 k n L v 4 F I d 8 Y l k Y Z l F N ] l K +.Y e / O.] +.Y _ O.m.` T a.9.P O.f.O.O.#.6.1.f._ ",
"t s s 3 = g x = 6 , 2 s G ; w d > u H v , a U , j C H 5 U z n V E K f N / v e Y K l e Y K l M T [ _ T P [ 9.O.P 9.6.i.=.%.b.g.m.",
"2 t v 3 3 2 d $ 5 6 - & m 5 4 m , > 3 N > i J i ; 5 Y h u H P 8 g C g g ! e W Y l ..] M ! +./ ! T T i.M $.O.4./ P ` d.` %.>.$.i.",
": t x > u s 5 u d 1 s 3 p m = m S 3 6 g 4 i m N e 0 0 0 0 C V 8 i C W 9 _ f ! K i K &.K C / [ ] P T %.1.Y 3.6.9.5.[ 6.4.%.g.%.6.",
"2 * x 3 6 c ; < G 5 : t i g 2 3 P 5 w C 5 < p e G 0 P 8 l P n h l v | 9 e M L f f L M _ K K 1.` Z T O.O.K T T =.m.T +.m.%.t.s.6.",
"3 t t 3 3 b : ; s u 2 + d b > + w i < m 0 p C e h p h k e z a B 1 e / 1 g _ K z K K f / ` q K O.T ` =.1.K O.=.6.%.O.T 5.Y t.f.7.",
": : t t % i 3 3 S 3 v 7 , D 7 4 B 6 5 C < ; 5 G h l $ V j k 1 P j z Z l , / g l / z z L t.K K K P T T =.V Y =.9.+.O.s.O.] =.4.5.",
"2 : t t % s 3 % 7 u 2 3 * v 3 > 6 b + k 1 h h 1 b m w a T 8 < h T a q L C l K ' K 8 K K ` T T L P ` 4.=.O.K $.$.1.y.t.O.=.y.t.` ",
"% % 2 c : t : : 7 6 - 9 5 d 3 * - d u d 5 3 3 > b b = < P r q p A n = j } N f K L r K M K K ` +.j P %.O.O.1.M I O.1.p._ *.a.t.h.",
"x t % x 3 : : : * 6 3 3 s 4 i o 7 + b 6 d 3 t d 5 G < # V 1 < 0 V a 1 h F 8 K L L g g O.q K ` L A V Y %.V %.O.P 1.5.a.O.T *.a.h.",
"t t O 3 s : t % > 4 : > d , b 3 ; * c w 4 5 > : * l h k j 1 < p P M r a L u n q L L g L L l T l I 4.T I $.Z p.V *.+.=.t.` O.s.p.",
": % % : 2 X x 2 2 u ; $ - 3 u 7 : b q 1 9 c 6 o * h < 8 _ < q 8 C C q ; l L L q K L 8 z %.K K L T %.%.T T T 1.p.M $.=.a._ $.6.t.",
"y 2 - 2 y : 2 s % : u 4 + + 5 3 o s 5 X = $ d t $ h < ; M 1 1 1 Z V B w h k ! j K K K q N +.K K N ` O.Y O.K %.s.V T t.p.t.%.t.s.",
"2 * % * 2 O O 6 : @ 3 6 ; + 6 c = 3 6 s , 2 7 v 5 8 . 0 Z 1 o e A k D h w k T 1 r L K ' i K +.*.f z @./ %.` O.O.t.K O.h.O.5.t.1.",
"- 2 + 2 2 & * s , ; u : 3 + : t t . . u t 3 $ = a h < 5 C l < @ n k h h 3 k H V r / 8 L M z ( _ +.r K O.` ` K T %.4.T h.` +.s.h.",
": * & : y % O > 3 + 7 O u i o 6 g + $ s 9 X = 3 = 0 w 7 8 0 V $ r T l w > V B l r ( f f K l ] l K ` z O.O.| T O.%.t.T 4.*.O.s.s.",
"& X < < % 2   2 * * 7 + > n + $ x + . = 7 3 > * $ p 1 1 1 1 Z z @ h C h k G U 5 L K L r f T L T z ` @.K K K %.T T 1.6.I t.=.t.t.",
"O : < * & > y > 9 X u ,   ; m 2 7 > X u c 3 ; O < a = . + 8 h 1 e h h < $ V m < g N K L f K l T / V t.K O.T T t.K O.5.T t.@.T t.",
"* % 6 & & X * + > > * x + . > 7 u 2 . 3 6 + + 6 6 i q 5 < h z 1 r ! 0 z e k V H v K K | l K K M O.K V O.K T T p.T T t.T 1.t.O.T ",
"2 - 2 % O X : : + h + 2 $ O = X $ c   , $ @ i 6 o = 9 + z < 5 q 1 h h < [ n a h L 8 N _ M f W l / %.K / %.T %.p.T K p.%.O.s.t.O."
};
