/* XPM */
static char *_2081e7a75f349d2ea019b74f3d064a9TAwuBZsFGC2sT7L2[] = {
/* columns rows colors chars-per-pixel */
"64 64 256 2 ",
"   c black",
".  c #010101",
"X  c #020202",
"o  c gray1",
"O  c #040404",
"+  c gray2",
"@  c #060606",
"#  c #070707",
"$  c gray3",
"%  c #090909",
"&  c gray4",
"*  c #0B0B0B",
"=  c #0C0C0C",
"-  c gray5",
";  c #0E0E0E",
":  c gray6",
">  c #101010",
",  c #111111",
"<  c gray7",
"1  c #131313",
"2  c gray8",
"3  c #151515",
"4  c #161616",
"5  c gray9",
"6  c #181818",
"7  c #191919",
"8  c gray10",
"9  c #1B1B1B",
"0  c gray11",
"q  c #1D1D1D",
"w  c #1E1E1E",
"e  c gray12",
"r  c #202020",
"t  c gray13",
"y  c #222222",
"u  c #232323",
"i  c gray14",
"p  c #252525",
"a  c gray15",
"s  c #272727",
"d  c #282828",
"f  c gray16",
"g  c #2A2A2A",
"h  c gray17",
"j  c #2C2C2C",
"k  c #2D2D2D",
"l  c gray18",
"z  c #2F2F2F",
"x  c gray19",
"c  c #313131",
"v  c #323232",
"b  c gray20",
"n  c #343434",
"m  c #353535",
"M  c gray21",
"N  c #373737",
"B  c gray22",
"V  c #393939",
"C  c #3A3A3A",
"Z  c gray23",
"A  c #3C3C3C",
"S  c gray24",
"D  c #3E3E3E",
"F  c #3F3F3F",
"G  c gray25",
"H  c #414141",
"J  c gray26",
"K  c #434343",
"L  c #444444",
"P  c gray27",
"I  c #464646",
"U  c gray28",
"Y  c #484848",
"T  c #494949",
"R  c gray29",
"E  c #4B4B4B",
"W  c #4C4C4C",
"Q  c gray30",
"!  c #4E4E4E",
"~  c gray31",
"^  c #505050",
"/  c #515151",
"(  c gray32",
")  c #535353",
"_  c gray33",
"`  c #555555",
"'  c #565656",
"]  c gray34",
"[  c #585858",
"{  c gray35",
"}  c #5A5A5A",
"|  c #5B5B5B",
" . c gray36",
".. c #5D5D5D",
"X. c gray37",
"o. c #5F5F5F",
"O. c #606060",
"+. c gray38",
"@. c #626262",
"#. c gray39",
"$. c #646464",
"%. c #656565",
"&. c gray40",
"*. c #676767",
"=. c #686868",
"-. c DimGray",
";. c #6A6A6A",
":. c gray42",
">. c #6C6C6C",
",. c #6D6D6D",
"<. c gray43",
"1. c #6F6F6F",
"2. c gray44",
"3. c #717171",
"4. c #727272",
"5. c gray45",
"6. c #747474",
"7. c gray46",
"8. c #767676",
"9. c #777777",
"0. c gray47",
"q. c #797979",
"w. c gray48",
"e. c #7B7B7B",
"r. c #7C7C7C",
"t. c gray49",
"y. c #7E7E7E",
"u. c gray50",
"i. c #808080",
"p. c #818181",
"a. c gray51",
"s. c #838383",
"d. c #848484",
"f. c gray52",
"g. c #868686",
"h. c gray53",
"j. c #888888",
"k. c #898989",
"l. c gray54",
"z. c #8B8B8B",
"x. c gray55",
"c. c #8D8D8D",
"v. c #8E8E8E",
"b. c gray56",
"n. c #909090",
"m. c gray57",
"M. c #929292",
"N. c #939393",
"B. c gray58",
"V. c #959595",
"C. c gray59",
"Z. c #979797",
"A. c #989898",
"S. c gray60",
"D. c #9A9A9A",
"F. c #9B9B9B",
"G. c gray61",
"H. c #9D9D9D",
"J. c gray62",
"K. c #9F9F9F",
"L. c #A0A0A0",
"P. c gray63",
"I. c #A2A2A2",
"U. c gray64",
"Y. c #A4A4A4",
"T. c #A5A5A5",
"R. c gray65",
"E. c #A7A7A7",
"W. c gray66",
"Q. c #A9A9A9",
"!. c #AAAAAA",
"~. c gray67",
"^. c #ACACAC",
"/. c gray68",
"(. c #AEAEAE",
"). c #AFAFAF",
"_. c gray69",
"`. c #B1B1B1",
"'. c #B2B2B2",
"]. c gray70",
"[. c #B4B4B4",
"{. c gray71",
"}. c #B6B6B6",
"|. c #B7B7B7",
" X c gray72",
".X c #B9B9B9",
"XX c gray73",
"oX c #BBBBBB",
"OX c #BCBCBC",
"+X c gray74",
"@X c gray",
"#X c gray75",
"$X c #C0C0C0",
"%X c #C1C1C1",
"&X c gray76",
"*X c #C3C3C3",
"=X c gray77",
"-X c #C5C5C5",
";X c #C6C6C6",
":X c gray78",
">X c #C8C8C8",
",X c gray79",
"<X c #CACACA",
"1X c #CBCBCB",
"2X c gray80",
"3X c #CDCDCD",
"4X c #CECECE",
"5X c gray81",
"6X c #D0D0D0",
"7X c gray82",
"8X c #D2D2D2",
"9X c LightGray",
"0X c gray83",
"qX c #D5D5D5",
"wX c gray84",
"eX c #D7D7D7",
"rX c #D8D8D8",
"tX c gray85",
"yX c #DADADA",
"uX c gray86",
"iX c gainsboro",
"pX c #DDDDDD",
"aX c gray87",
"sX c #DFDFDF",
"dX c gray88",
"fX c #E1E1E1",
"gX c #E2E2E2",
"hX c gray89",
"jX c #E4E4E4",
"kX c gray90",
"lX c #E6E6E6",
"zX c #E7E7E7",
"xX c gray91",
"cX c #E9E9E9",
"vX c #EAEAEA",
"bX c gray92",
"nX c #ECECEC",
"mX c gray93",
"MX c #EEEEEE",
"NX c #EFEFEF",
"BX c gray94",
"VX c #F1F1F1",
"CX c gray95",
"ZX c #F3F3F3",
"AX c #F4F4F4",
"SX c gray96",
"DX c #F6F6F6",
"FX c gray97",
"GX c #F8F8F8",
"HX c #F9F9F9",
"JX c gray98",
"KX c #FBFBFB",
"LX c gray99",
"PX c #FDFDFD",
"IX c #FEFEFE",
"UX c white",
/* pixels */
"s d f f g j x b b l h x C G G A [ l r z B y P c N Z J I U Y Y T Y Q ( ( ~ ~ ` } ' ] { }  .......{ >.0.5.,.2.4.1.q.4.-.%.=.<.7.q.",
"f g h k x x l j f g k b B A A Z R ! l b a c l n D G J H D Z C V D J I U I P U R / ) ' {  .X.o.O.| O.-.2.2.,.,.2.<.1.3.5.8.9.0.9.",
"f a i a f h f s h c B A A Z C C h / H s r B a Z C A S A C V V C C A F J L P P P T R Q ^ ( _ ' ' { ) ] %.:.%.&.<.-.1.8.r.y.t.r.e.",
"g s y e e y s g h z n m v l j g u Z ' p l v z V V C Z Z Z S G K D S D J U E W W U Y T E W W W W ` ~ ^ [ ..X.#.>.<.3.7.9.0.w.y.p.",
"k l k f u y p f v x l l l k g s b g ' D m z x l Z A A Z C A F J J G D F J U R W W Q ! ~ ^ ^ ^ ^ / ] ' ^ / ..=.>.1.1.3.3.5.7.q.e.",
"f k c c j a y t h d i i a d d a c r n ) l c s f z c b n m B S G L K G F F H L U R E Q ^ ( ) _ ` ^ |  .( ( @.,.<.-.;.,.3.7.7.3.<.",
"d a a g x c k s r t t e w w t u g p r T N f t j u a f j l c m V C S G G D D H L P I Y R W ! ! ~ ! / ` [ ..%.;.:.=.*.-.1.8.9.2.=.",
"l u 9 t v F H S V D H D N n B S M C k N ^ 8 r g d g h f s a s d s z B A Z C S G I U Y T T T Y Y E L T | *.%.#.*.>.*.$.;.6.0.5.>.",
"q z r 5 a S 9 u u a f h l c M V U c G b U M w r 8 u f s p a s s s k z j k c c j Q Q T L K P K S H I Q _ } o.$.*.=.;.:.-.*.;.3.0.",
"8 d e 8 t C e i t p f h h h j k l e V Z H ~ u w w y u r e u s s u s d p s k x k J Y E T Y R W E T W ~ / / ^ / ( ! / `  .@.&.=.=.",
"6 e e e 0 M u u u i p p i p s g x d D I C o.z 5 r u u r r i p u y i i u a k c c b F T R Y E ! ^ Y E ~ / ( ( ) _ +.| ' ` [ | } ] ",
"6 7 r u 5 v i t i u r w r p l n D S S K m _ T 3 0 y p p a s i w a s f g k c n n k B J P P I U P L Y Q / _ ' { | [ [ { ..+.$.#.+.",
"8 7 r i 6 z t w q e y i d z N A N J b B A D $.r 4 0 e e t p p u g h l v n b v v l m A G L U L D L U E Q Q Q ! ~ E _ o.%.@.} / W ",
"7 9 q t q c 0 e 6 e f c M N B B b K m Z I m %.x 7 w e 9 8 r s g g g l b n x k k x n V S K T U H H L Y T R R E W } | { / I D S D ",
"5 w 6 q p m 6 u y s z m M m b v C G Z D D V W Y h b M l p u a d f s g x c j g k h c m M V D H F D H I T E Q ~ / Q U G C C G E ( ",
"2 e 2 7 g V 4 a v v c z k k z c N c m m h H m +.S E _ E V h u e g a s k l h h x p k c l h z m B G K U Y Y Y T R D S D H P P G Z ",
"4 % 9 1 5 J < h i 7 y t , w f 1 t e q 7 3 7 j G 0.*.( T ! ^ J x e w C 5 z w r y d y 0 w d v B C G V G R Y I F v B B C D S Z F I ",
"f > 3 ; 6 A X.$ < 0 > ; w 1 $ 0 9 , : 9 g l d t Y ) | ' ! Q ^ ) ^ J j i k 2 7 q u i d l n n x h N N K U V c v z N B M n Z H C j ",
"* u x c r & E H o 6 : $ 8 8 : 9 - 3 y h d r q e x J ( _ W T T R ~ ] n S H A / ` Q Q W W E R T T V x b n h k C G b Z C n V K N t ",
", 2 u P f w t W s & : q > , w 4 4 a n l 6 & 4 h Z Z S L ~ ~ S f 4 S S i u c J F ` ` _ / ! Q ~ / ..L V Z B m v g l B A B M N x s ",
"t   2 G 8 h v r ' 5 * r :   , y c d r 9 5 3 6 w B B C G T E D z q c X.i v F S H B G R / ( ~ R Y R N V T Q I Z j N x z m b f y u ",
"6 : ; g j   s u D L r   ; 9 w z k q > < 8 0 6 2 a V I D l f v A k 5 Q 0 F K b Y V A K R ^ _ ' ] d 6 w z m Z T ^ R n g n N s 9 9 ",
"t 0   % P 3 O 4 - U A & < b v p 5 2 1 4 3 1 2 6 i n A l 6 < 0 d J z E h D D k G K S N N D U ! / E j 0 0 8 e c S P D Z C c u 0 w ",
"0 < q = 5 T o   O 6 F J r 0 u : 2 , , 3 3 1 1 5 z g t 8 7 8 5 > a D T M v F C J I H S D J K F C %.S a g j g s y h H Q D y 3 9 a ",
"- 5 < $ 7 B Z p < 0 q w g z d y j h s r w p z M J M d t q 0 q r 2 l ~ ` H Z K P B H K A V F H D Q ] H e w l z f Z d z ! ( c 7 9 ",
"- : , < < 9 v Y +.k 6 9 = X * > O & 2 w p i q 3 w v z 2 * w a 0 < 3 i x M J U S R ~ / Q T U K F S ' / m l M N m n Q ` I K ! P k ",
"- * < 9 4 @   O > H I x b h 1 = 8 w e 7 > : 8 p t 6 p A b :   # 7 6 r y r f v k v v n N M v v m 5 s m H U S B H ) ..@. ._ / ( ) ",
"< , & o + * % X 1 + 0 d < 9 A D 9 < : 6 i i 8 > w 6 1 5 p l s 9 e r a y 6 0 p y h s f k h a l A f 4 8 J } T L X.+.! ^ #. .F C Q ",
"% , < @   X * : $ 4 ; 9 J B 4 6 v h t 4 & $ 4 d w 4 ; , y c z u e 2 < 3 8 d k t a i s f e 2 7 a Y v i m I D G ] +.@.#.$.-.&.` H ",
"O X * 0 u w e d d u d q 9 H R 9 2 s D K k < * 2 0 2 0 x x 8 > 5 y 0 9 6 1 0 i e v m A F C x j k k L U C V C M b m S D Z U ( D 0 ",
"@.~ V h i w 7 6 q r 6 0 s t d T f : X 4 b Z x p : g h > < x M r p j N b y e u q 0 q w u k v j y 0 F ~ Y Y Y F V A m b B S B l p ",
"2 m H l u x N x y j j q 5 s j 9 S c h l z k m J g j g d z n d 3 y i n I W Q S y w 4 * = r b z e j f a z A C A Q Q ! U C v c c k ",
". * 6 t r 7 , * y e i z b x M H 8 5 d q 7 6 $ y , 0 i p g v c f v x z k a y k A C S B f r y s f h f d h x v c z b D E ( ) R M p ",
"< $ X = r h a 0 O : < * * 6 t r I * - * , X s 5 r q 3 > 5 f Z L N c x M N z p t z c x k x B S A Z n g p a j b N V B n x n A F S ",
"$ ; , = @ & 8 f x -   & ;     , C g   8 @ 5 u > : 1 w f h i q 9 F D A M j p f v d g h l n N v f e a x N N v h s g x M V A S B c ",
", * + + & - * # 3 c M 9 # * ; # # Y 3 , - f ; 6 y 0 q i t 4 , 2 0 j F U F c s i h k l x z d 9 > q y d j l v B S v m n x z x l g ",
"% # $ = , , - # > X : c n 5 = 7 . f S   u 6 3 r d q 5 7 6 3 9 p 4 3 9 k F J x 0 l k h d i e 9 8 : 2 8 w t i h x Z G J G D S V n ",
"  = 4 < @ . * 5 @ * @ o 4 c c q 9 X m u g e 0 5 > < 7 t t 8 2 < t 7 , 1 y n V N f y 8 3 1 1 8 y p j M A S B c k j N H P U I J A ",
"1 & X O - > & X , > 3 4 O   7 I d * 1 G w s 5 ; 5 6 4 < , 3 5 4 > q d a t y p a t 7 1 4 7 7 8 w f y 7 2 3 9 y a f d y 9 w j S I ",
"  % > > & # = 1 2 ; * ; 4 7 , # f d @ - 3 % 4 2 3 9 9 3 5 t i e t y q 3 1 5 4 , q 6 q k V m h i e q 0 e i a p u s k x z x N S F ",
"# # % * ; ; - * % = $ o = 7 5 & % t h e 0 g x f r t u i u w 5 < < 2 5 7 8 8 6 5 9 8 e k S J C z m b z k j k z x b c x v m m c k ",
"w , O X % - $   < = : 8 7 = @ * y s f p e w t p V h 7 > , 4 6 6 8 5 < : , 4 0 r p q 3 < 6 y h x g g h j j j j h g h j j h g f g ",
"6 6 3 ; # + % ; X . % 3 3 > 7 f 9 : ; 5 2 & - 0 7 4 < : : < 3 6 : , 3 7 0 q w q 9 9 8 3 < 2 9 t s f h h f p r q p f j g s s h z ",
"& 3 w 9 > # $ - + 2 8 < : 5 0 7 3 $ # 1 4 : < e = 8 s p 6 = * : < 4 0 r t w 7 3 ; 4 e t 0 5 4 5 y i s d s p t w y i p i u p f j ",
"> = * < 8 6 &   & 6 r 9 8 0 3 $ : = = > 2 4 5 5 $ : 3 3 , : 2 8 i r 8 3 < < 2 4 3 4 4 3 2 4 6 9 3 6 q y d j z x p y e w r y t r ",
"# @ @ - 4 9 8 6 0 : * < 2 ; - 3 O * - * > 9 q 5 < = % > q i y 0 2 1 < < 1 3 5 7 0 7 4 3 4 6 8 8 7 8 0 r i f k z n z g g j j d i ",
"  + - - % - 0 h n y 3 1 ; + + ; , 3 4 2 5 r p i k d i d k h r 4 & - < 4 7 8 7 6 5 7 0 w w 0 8 7 u y t r e w w q v c c v b b v c ",
"@ @ + O O + $ * 3 u j f d f r < 9 6 2 : * & ; 2 O & > < 1 6 u j s t 6 , ; : 1 5 3 4 5 4 2 5 q u t t r e q 8 6 4 7 e p d f g l c ",
"X + % * = * * * -   ; % = h e : - ; X o > % $ r & - ; - & * > 3 9 r a g d t 6 , 5 2 3 9 e q q w 5 7 8 9 8 8 0 w 2 7 e i d l N D ",
"* o   + > 2 - O & & % # @ 9 a = 1 5 ; = < % o 2 : ; - = - - = = > , 1 5 9 e u p e 8 6 9 0 8 7 9 , 1 5 6 7 8 0 w y i a d d p r q ",
"* O   o - < ; # . 1 @ * @ = f : @ > > > 3 > = 3 3 ; $ # * ; ; = : ; = = ; 1 7 q 0 5 2 4 5 3 3 5 4 7 0 w w w e t y r e y i y 9 2 ",
"O @ $ # + # = ,   * $ > * $ w w   + * - , < 1 4 e 6 : % $ & = - , , , , > ; = * 2 > : 2 5 4 4 7 9 w r t e 0 0 0 8 5 3 4 9 r y u ",
"O # % # o O * , < o - - & $ = v $ @ $ % # % = * e r w 7 < - * * = : 1 5 6 6 5 3 > ; > 5 9 7 6 7 3 5 6 5 3 < , < 6 7 7 5 4 6 w y ",
"- # . X $ = & # y % : @ @ @ . m 5 O o % + + & % % 1 e i t 9 4 3 < < 2 4 7 q t u , ; ; 1 3 1 > , , < 1 < > : > < < 6 q q 8 5 7 0 ",
"- $ o o $ & $ O 4 3 - $ - $ @ r y X   : = & > >   # > 6 9 9 7 5 3 2 1 < 1 3 5 7 6 < ; > > ; : , 6 6 5 3 < < 3 5 > 1 4 7 8 9 0 q ",
"+ & ; & X   O &   0 * > 9 - : # c $ o 6 2 = > : 1 - @ O @ % % $ * = ; : : ; = * u 9 2 1 2 3 6 q r e 9 5 1 < 2 4 9 3 > > 3 8 q q ",
"o + % * = & # + X + % - , 3 4 5 k p 7 < , < - + o O @ $ * ; > < 1 1 , ; ; > 3 7 y u i i u t w 0 2 4 9 r q 2 ; - 5 6 7 6 4 4 6 8 ",
"    X # = , 2 4 # + o X o # * ; y d i 3 = * @   $ # @ @ # & ; > % & * * - , 5 9 < , , > : : : : 3 = % , 9 8 1 - 4 6 7 7 7 8 q e ",
"@ + + @ % - < 3 6 3 > * # + O O   3 r 6 < 5 8 5 = & @ O O @ % = 5 6 6 4 2 1 3 5 < , : - - ; > < 0 1 : 2 0 w q q 3 5 6 7 8 0 e y ",
"@ O .         X ; > < 1 > * + X   & 3 2 = $ % = 2 < > ; - ; > , 4 4 3 < = $ @ @ : ; - - - ; : > , 1 3 2 - & < q = - : > > , 2 5 ",
"@ @ @ @ # $ $ % . + - 1 6 7 6 5 > * ; 6 3 % + = 2 3 3 4 4 3 3 2 $ * - - = * * = ; : > , , , > : : < 4 4 : & : 6 2 3 4 3 2 2 4 6 ",
"o + # $ % $ # @ o o o + % ; < 3 2 $ # 2 9 2 - : + @ % & * & $ @ + $ * - - - : , * = ; : : ; * & 1 - = 2 9 8 3 , 3 4 4 2 , > < 1 ",
". . X X .       $ + .       X O 5 1 ; ; 3 5 &   $ $ % % % % $ # % & * * % % & = * * * & & % $ # : $ @ , 0 0 3 : - ; ; = % $ % * ",
"8 8 9 0 w r t y q w e r t r e w 3 u p r z P A r u y r w w w w e w e r r r t u a d s i y t t y u r r p h j f d h d f f s p p a d "
};
